<?xml version="1.0" encoding="UTF-8" standalone="no"?>
<!-- Created with Inkscape (http://www.inkscape.org/) -->

<svg
   xmlns:dc="http://purl.org/dc/elements/1.1/"
   xmlns:cc="http://creativecommons.org/ns#"
   xmlns:rdf="http://www.w3.org/1999/02/22-rdf-syntax-ns#"
   xmlns:svg="http://www.w3.org/2000/svg"
   xmlns="http://www.w3.org/2000/svg"
   xmlns:sodipodi="http://sodipodi.sourceforge.net/DTD/sodipodi-0.dtd"
   xmlns:inkscape="http://www.inkscape.org/namespaces/inkscape"
   width="2500"
   height="3500"
   id="svg2"
   version="1.1"
   inkscape:version="0.48.4 r9939"
   sodipodi:docname="madonna.svg">
  <defs
     id="defs4">
    <filter
       inkscape:collect="always"
       id="filter3874">
      <feGaussianBlur
         inkscape:collect="always"
         stdDeviation="6.4561177"
         id="feGaussianBlur3876" />
    </filter>
    <filter
       inkscape:collect="always"
       id="filter3904">
      <feGaussianBlur
         inkscape:collect="always"
         stdDeviation="16.451123"
         id="feGaussianBlur3906" />
    </filter>
    <mask
       maskUnits="userSpaceOnUse"
       id="mask3908">
      <path
         sodipodi:nodetypes="sssss"
         inkscape:connector-curvature="0"
         id="path3910"
         d="M 3060.776,1659.5939 C 3067.0192,1782.7934 3119.3506,1931.8593 2719.6494,2016.7121 C 2567.0379,2049.1101 2497.1429,1851.4838 2497.1429,1700 C 2497.1429,1548.5162 2623.7823,1425.7143 2780,1425.7143 C 2936.2177,1425.7143 3053.1088,1508.2931 3060.776,1659.5939 z"
         style="fill:#ffffff;fill-opacity:1;stroke:none;filter:url(#filter3904)" />
    </mask>
    <filter
       inkscape:collect="always"
       id="filter3932"
       x="-0.30356052"
       width="1.607121"
       y="-0.31215182"
       height="1.6243036">
      <feGaussianBlur
         inkscape:collect="always"
         stdDeviation="78.781177"
         id="feGaussianBlur3934" />
    </filter>
  </defs>
  <sodipodi:namedview
     id="base"
     pagecolor="#ffffff"
     bordercolor="#666666"
     borderopacity="1.0"
     inkscape:pageopacity="0.0"
     inkscape:pageshadow="2"
     inkscape:zoom="0.35000001"
     inkscape:cx="1288.1003"
     inkscape:cy="2122.9667"
     inkscape:document-units="px"
     inkscape:current-layer="layer2"
     showgrid="false"
     borderlayer="true"
     inkscape:window-width="1537"
     inkscape:window-height="878"
     inkscape:window-x="-8"
     inkscape:window-y="-8"
     inkscape:window-maximized="1" />
  <metadata
     id="metadata7">
    <rdf:RDF>
      <cc:Work
         rdf:about="">
        <dc:format>image/svg+xml</dc:format>
        <dc:type
           rdf:resource="http://purl.org/dc/dcmitype/StillImage" />
        <dc:title />
      </cc:Work>
    </rdf:RDF>
  </metadata>
  <g
     inkscape:label="Base"
     inkscape:groupmode="layer"
     id="layer1"
     transform="translate(0,2447.6378)"
     style="display:inline"
     sodipodi:insensitive="true">
    <rect
       style="fill:#fff8cd;fill-opacity:1;fill-rule:evenodd;stroke:none"
       id="rect3753"
       width="3048.5713"
       height="4107.3882"
       x="-257.14285"
       y="-2723.5972" />
  </g>
  <g
     inkscape:groupmode="layer"
     id="layer3"
     inkscape:label="Background"
     style="display:inline"
     sodipodi:insensitive="true">
    <path
       inkscape:connector-curvature="0"
       id="path3820"
       d="M 2688.0603,1845.8008 C 2688.0603,2092.0694 2125.8715,2291.7097 1432.3762,2291.7097 C 738.88122,2291.7097 176.69228,2092.0694 176.69228,1845.8008 C 176.69228,1599.5322 738.88122,1399.8919 1432.3762,1399.8919 C 2125.8715,1399.8919 2688.0603,1599.5322 2688.0603,1845.8008 z"
       style="fill:#81a991;fill-opacity:0.47089945;stroke:none" />
    <path
       style="fill:#81a991;fill-opacity:0.47089945;stroke:none"
       d="M 4463.7746,2145.8009 C 4463.7746,2690.3032 3841.464,3131.7097 3073.8048,3131.7097 C 2306.1458,3131.7097 1683.8351,2690.3032 1683.8351,2145.8009 C 1683.8351,1601.2984 2306.1458,1159.892 3073.8048,1159.892 C 3841.464,1159.892 4463.7746,1601.2984 4463.7746,2145.8009 z"
       id="path3794"
       inkscape:connector-curvature="0" />
    <path
       style="fill:#7a5f4b;fill-opacity:0.89417988;stroke:none"
       d="M 2365.0756,1149.7567 C 2338.2863,1251.2733 2293.0155,1473.5391 2297.6106,1530.2367 C 2300.1784,1561.92 2237.0905,1621.9778 2220.2072,1619.1624 C 2199.2096,1615.6609 2187.2922,1571.205 2205.2229,1543.1417 C 2233.8052,1498.4079 2286.3395,1342.2798 2319.5666,1164.4356 C 2335.8893,1077.0701 2251.0925,855.48044 2242.3459,817.16887 C 2231.1743,768.23558 2246.9632,706.97099 2243.8131,650.24308 C 2240.5992,592.3649 2272.8387,442.85153 2258.5994,395.00389 C 2254.5326,381.33834 2264.0766,367.18619 2273.0914,321.30206 C 2277.9318,296.66501 2284.0727,228.78936 2283.8808,222.19103 C 2283.7632,218.14519 2289.012,216.4624 2292.4729,206.93672 C 2303.3883,176.89332 2330.9888,164.43941 2344.4964,145.66155 C 2367.0897,114.2532 2382.8194,117.55808 2422.651,75.211968 C 2425.8482,71.812923 2427.8104,74.880645 2425.6234,77.3881 C 2393.1755,114.5895 2370.9258,114.84541 2345.8587,150.95924 C 2333.6313,168.57506 2308.2106,175.32003 2299.5524,213.04327 C 2298.1451,219.1747 2293.893,219.77704 2293.0027,227.13113 C 2290.7756,245.52706 2291.0002,291.7589 2284.5599,324.37646 C 2280.2028,346.44327 2271.1077,371.32738 2275.2533,397.21706 C 2286.738,468.94051 2259.7624,616.72913 2263.3184,644.93487 C 2270.6422,703.02495 2255.6973,761.5777 2267.8815,812.67465 C 2277.6162,853.49911 2376.5878,1106.1317 2365.0756,1149.7567 z"
       id="path3800"
       inkscape:connector-curvature="0"
       sodipodi:nodetypes="ssssssssssssssssssssss" />
    <path
       inkscape:connector-curvature="0"
       id="path3791"
       d="M 1677.2098,2313.1396 C 1677.2098,2857.6419 642.43739,3299.0484 -634.01904,3299.0484 C -1910.4754,3299.0484 -2945.2479,2857.6419 -2945.2479,2313.1396 C -2945.2479,1768.6371 -1910.4754,1327.2307 -634.01904,1327.2307 C 642.43739,1327.2307 1677.2098,1768.6371 1677.2098,2313.1396 z"
       style="fill:#81a991;fill-opacity:0.47089945;stroke:none" />
    <path
       style="fill:#925528;fill-opacity:0.9254902;stroke:none"
       d="M 3509.6164,3362.6193 C 3509.6164,3907.1216 2444.0902,4348.5281 1129.6971,4348.5281 C -184.69599,4348.5281 -1250.2221,3907.1216 -1250.2221,3362.6193 C -1250.2221,2818.1168 -184.69599,2376.7104 1129.6971,2376.7104 C 2444.0902,2376.7104 3509.6164,2818.1168 3509.6164,3362.6193 z"
       id="path3788"
       inkscape:connector-curvature="0" />
    <path
       style="fill:#764d2a;fill-opacity:0.89417988;stroke:none"
       d="M 377.14285,2105.5461 C 398.50816,2392.4587 331.31871,2593.4256 140.0841,2647.8289 C -705.81034,2888.4729 -211.27518,2409.2152 -241.38652,1862.9412 C -252.64578,1658.6779 -350.26478,989.2283 -364.08633,251.35758 C -368.15016,34.407368 -355.9101,-190.71899 -303.45813,-388.33642 C -246.78029,-601.87517 137.39932,-526.99878 120.60738,-380.04745 C 91.843562,-128.32646 84.483426,142.89535 79.158453,397.76498 C 63.87733,1129.1666 327.61861,1440.4899 377.14285,2105.5461 z"
       id="path3797"
       inkscape:connector-curvature="0"
       sodipodi:nodetypes="ssssssss" />
    <path
       style="fill:#d6d2b3;fill-opacity:0.88888891;stroke:none"
       d="M 2424.3661,3831.3301 C 2134.3253,3940.4942 1925.6786,3108.3393 1265.1171,2936.3452 C 665.05987,2780.1049 -354.753,2887.8944 -339.4112,2691.878 C -315.1676,2382.1252 478.27214,1813.0163 1814.2339,2069.6241 C 2683.8878,2236.6648 3283.8415,3507.8452 2424.3661,3831.3301 z"
       id="path3766"
       inkscape:connector-curvature="0"
       sodipodi:nodetypes="sssss" />
    <path
       style="fill:#ac7c3c;fill-opacity:0.92592594;stroke:none;display:inline"
       d="M 2771.1653,1340.1648 C 2129.7695,1628.6499 1175.8175,1633.2382 674.78188,1811.025 C 173.74623,1988.8118 -125.25891,1932.2433 -347.49247,2110.0301 C -569.72602,2287.817 -593.96968,2501.9693 -315.16758,2421.1571 C -36.36549,2340.3449 133.34013,2219.1266 791.95958,2170.6393 C 1450.579,2122.152 2298.5124,2491.1644 2751.0607,2584.0984 C 3203.609,2677.0324 2929.4423,2461.5632 2941.5641,2178.7205 C 2953.686,1895.8778 3073.3374,1204.2547 2771.1653,1340.1648 z"
       id="path3032"
       inkscape:connector-curvature="0"
       sodipodi:nodetypes="ssssssss" />
    <path
       style="fill:#7a5f4b;fill-opacity:0.89417988;stroke:none"
       d="M 2300.1173,191.09224 C 2295.0746,193.46522 2280.4867,170.78767 2263.4717,162.00267 C 2250.1283,155.11333 2212.0946,86.060709 2209.3515,64.971109 C 2208.7291,60.186478 2204.566,57.859792 2205.1017,63.425242 C 2206.7471,80.518828 2245.1305,155.4113 2260.3546,163.95645 C 2275.3295,172.36176 2294.3522,194.07719 2295.0052,203.42328 C 2296.169,220.08078 2305.7258,188.453 2300.1173,191.09224 z"
       id="path3826"
       inkscape:connector-curvature="0"
       sodipodi:nodetypes="sssssss" />
    <path
       style="fill:#7a5f4b;fill-opacity:0.89411765;stroke:none"
       d="M 2246.0345,631.49375 C 2232.6576,606.51272 2150.9055,537.9782 2134.1437,528.0954 C 2129.2953,525.2368 2124.7141,524.22295 2120.2405,521.21882 C 2094.3244,503.81542 2041.7497,446.13266 2012.7288,421.56021 C 2007.9225,417.49056 2001.5913,418.86191 1994.4843,414.21241 C 1963.5568,393.97919 1887.7405,363.11457 1877.2066,363.83807 C 1872.4319,364.16601 1860.8675,344.70642 1852.3395,334.18051 C 1849.5135,330.69248 1846.5713,328.24166 1844.9174,327.74229 C 1842.6858,327.06848 1844.2133,325.22788 1845.5487,325.53258 C 1847.8422,326.05591 1848.9389,327.74192 1850.853,329.51397 C 1855.0484,333.39798 1859.6041,339.43515 1864.2506,345.75492 C 1868.4497,351.46611 1872.072,356.80196 1880.3073,359.16249 C 1917.615,369.85614 1974.7942,399.39104 1999.6914,409.59211 C 2010.5474,414.04011 2015.5192,412.5678 2020.8101,417.26706 C 2062.8178,454.57751 2096.7621,505.62124 2141.5233,522.07038 C 2155.6391,527.25776 2231.1581,611.38066 2248.9624,605.08009 C 2259.4028,601.38547 2251.3428,641.4069 2246.0345,631.49375 z"
       id="path3828"
       inkscape:connector-curvature="0"
       sodipodi:nodetypes="sssssssssssssssss" />
    <path
       style="fill:#7a5f4b;fill-opacity:0.89411765;stroke:none"
       d="M 2006.6474,413.8615 C 2011.9744,409.23994 2004.6542,389.86988 2001.0203,383.88343 C 1996.6862,376.74368 1969.0398,356.91044 1963.989,350.84953 C 1958.9383,344.78861 1965.4942,340.98522 1964.9892,336.69207 C 1964.4841,332.39892 1951.6072,314.19343 1943.0284,306.65535 C 1938.7274,302.87613 1942.4494,302.76793 1945.7323,305.54585 C 1954.3724,312.60949 1966.4251,332.14638 1967.9403,335.17684 C 1969.4556,338.2073 1965.1497,344.9418 1966.7363,346.67893 C 1969.4291,349.62727 1991.9265,371.74745 2001.6172,377.11349 C 2009.6651,381.56989 2009.6651,404.53772 2016.8741,415.46602 C 2020.8122,421.43587 2004.7897,415.47327 2006.6474,413.8615 z"
       id="path3830"
       inkscape:connector-curvature="0"
       sodipodi:nodetypes="ssscsccssss" />
    <path
       style="fill:#7a5f4b;fill-opacity:0.89411765;stroke:none"
       d="M 2114.6428,508.57151 C 2106.0714,487.85722 2087.1428,467.85722 2080.3571,452.85723 C 2073.5714,437.85723 2071.4285,434.64294 2068.2142,431.7858 C 2064.9999,428.92865 2034.2857,419.64294 2031.0714,416.42865 C 2027.8571,413.21437 2024.6428,401.42866 2022.1428,401.42866 C 2019.6428,401.42866 1993.7137,397.82673 1985.3571,397.50008 C 1969.9066,396.89614 1933.2142,407.85723 1926.0714,406.7858 C 1918.9285,405.71437 1905.7142,395.71437 1900.7142,395.00008 C 1895.7142,394.2858 1897.2691,392.96555 1901.5548,392.96555 C 1905.8405,392.96555 1919.2857,403.21437 1926.0714,403.21437 C 1932.8571,403.21437 1971.838,393.37688 1985.0866,393.93237 C 1995.4306,394.36608 2021.6885,398.34064 2025.6171,396.91207 C 2029.5456,395.4835 2030.7142,410.71437 2034.2857,412.85723 C 2037.8571,415.00008 2070.3571,426.42865 2074.2857,428.57151 C 2078.2142,430.71437 2085.1696,455.00008 2090.5267,460.00008 C 2095.8838,465.00008 2128.0557,516.28815 2129.8415,520.57386 C 2131.6272,524.85958 2114.2857,514.28579 2114.6428,508.57151 z"
       id="path3832"
       inkscape:connector-curvature="0"
       sodipodi:nodetypes="csssssssssssssscc" />
    <path
       style="fill:#7a5f4b;fill-opacity:0.89411765;stroke:none"
       d="M 2062.6785,424.64294 C 2066.337,422.08506 2059.6428,404.46437 2059.1071,398.21437 C 2058.5714,391.96437 2054.1071,366.25008 2049.8214,361.96437 C 2047.3232,359.46615 2046.9851,342.68431 2046.6963,332.51276 C 2046.4896,325.23493 2045.6981,323.78148 2046.9642,322.14294 C 2049.9999,318.21437 2073.9285,294.2858 2075.8928,288.92866 C 2077.8571,283.57151 2080.1785,286.96437 2079.1071,290.5358 C 2078.6947,291.91047 2075.4449,294.22443 2070.4333,299.85042 C 2062.4248,308.8409 2051.3046,322.40508 2050.5357,324.82151 C 2049.2857,328.75008 2049.1195,351.94486 2052.6785,356.42865 C 2055.7491,360.29721 2056.7857,369.28579 2058.3928,375.17865 C 2060,381.0715 2063.0357,398.75008 2064.2857,403.75008 C 2065.5357,408.75008 2068.8059,423.54087 2074.6428,431.42865 C 2076.8326,434.38786 2058.7379,427.39804 2062.6785,424.64294 z"
       id="path3834"
       inkscape:connector-curvature="0"
       sodipodi:nodetypes="ssssssssssssss" />
    <path
       style="fill:#7a5f4b;fill-opacity:0.89411765;stroke:none"
       d="M 2246.8863,631.91338 C 2243.6197,629.48221 2229.2695,609.78255 2222.9716,607.59439 C 2216.6737,605.40623 2183.5509,593.24978 2179.1903,589.77013 C 2174.8297,586.29055 2147.2986,568.29975 2143.4391,571.59673 C 2139.5798,574.89377 2103.4957,592.94284 2099.2717,595.89039 C 2095.0476,598.83788 2072.9372,597.10748 2070.6886,592.15408 C 2068.4401,587.20077 2049.8057,561.26157 2043.8042,556.2093 C 2037.8027,551.15704 1996.6959,524.70268 1987.5718,524.00341 C 1983.9282,523.72417 1970.9327,521.59925 1955.7118,517.86716 C 1932.8175,512.25359 1905.1137,504.35648 1898.4242,504.42237 C 1893.1188,504.47462 1891.8572,499.78067 1898.6566,500.35068 C 1905.4559,500.9207 1939.7626,510.83126 1953.0325,512.98272 C 1959.6195,514.05066 1990.8994,520.89631 1994.6296,519.924 C 1998.3598,518.95171 2038.3659,546.21178 2045.2259,549.63828 C 2048.5922,551.31973 2054.2622,561.18164 2061.8391,569.06831 C 2070.3089,577.88446 2073.2061,586.26746 2076.4553,588.20166 C 2079.6613,590.11014 2090.9868,592.3007 2097.7103,589.30007 C 2104.4338,586.29945 2140.8184,565.93687 2142.543,563.04246 C 2144.2676,560.14798 2147.3444,562.0474 2152.6014,565.68654 C 2157.8585,569.32574 2200.5607,595.21036 2209.1605,596.4566 C 2217.7604,597.70284 2231.6627,604.73056 2235.3244,608.9395 C 2238.986,613.14838 2244.1062,618.75515 2246.2487,618.70969 C 2248.391,618.66416 2249.6439,635.60566 2246.8863,631.91338 z"
       id="path3836"
       inkscape:connector-curvature="0"
       sodipodi:nodetypes="cssccsssssssssssssssscc" />
    <path
       style="fill:#7a5f4b;fill-opacity:0.89411765;stroke:none"
       d="M 2140.5132,566.01201 C 2134.9573,563.99171 2100.1071,545.30389 2098.0868,539.74805 C 2096.0665,534.19221 2089.5005,511.46378 2084.1972,504.14017 C 2078.8939,496.81657 2062.4789,493.53357 2058.6908,490.50311 C 2054.9028,487.47265 2053.2396,489.75819 2056.27,493.04118 C 2059.3005,496.32418 2074.8533,500.09956 2077.6312,503.88763 C 2080.4091,507.6757 2092.7835,531.66683 2092.7835,537.22267 C 2092.7835,542.7785 2093.5411,546.56658 2098.8444,548.83942 C 2104.1477,551.11226 2133.4421,566.51709 2133.4421,569.54755 C 2133.4421,572.578 2145.8165,567.52724 2140.5132,566.01201 z"
       id="path3838"
       inkscape:connector-curvature="0"
       sodipodi:nodetypes="cssccssssc" />
    <path
       style="fill:#7a5f4b;fill-opacity:0.89411765;stroke:none"
       d="M 1985.4464,519.46436 C 1985.0808,513.43578 1964.4032,481.96827 1959.2857,475.00008 C 1957.7797,472.94946 1960.0349,472.57106 1961.9317,474.66646 C 1963.5231,476.42444 1978.4667,501.23925 1982.7524,505.52497 C 1987.0382,509.81068 1989.2857,519.64294 1991.7857,521.42865 C 1994.2857,523.21437 1985.7736,524.859 1985.4464,519.46436 z"
       id="path3840"
       inkscape:connector-curvature="0"
       sodipodi:nodetypes="ssssss" />
    <path
       style="fill:#7a5f4b;fill-opacity:0.89411765;stroke:none"
       d="M 2270,531.78579 C 2281.4653,534.2102 2291.4285,528.92865 2302.8571,524.64295 C 2311.422,521.43111 2309.2856,500.00005 2312.1428,495.00008 C 2314.9999,490.00005 2342.8571,477.14294 2347.8571,475.71437 C 2351.5363,474.66317 2383.6351,458.14312 2405.2848,452.55132 C 2414.1781,450.25428 2418.9395,447.49005 2420.5357,445.17866 C 2422.568,442.23588 2421.9359,437.10464 2423.1821,430.63934 C 2425.4579,418.83313 2428.9945,403.41217 2431.0714,394.64294 C 2432.349,389.24848 2430.5546,384.57803 2428.5111,377.87561 C 2425.8078,369.00959 2422.133,358.46254 2419.2856,356.42866 C 2414.2856,352.85723 2417.8571,347.85723 2419.2856,345.00009 C 2420.7142,342.14294 2436.2944,340.21941 2439.4193,334.49129 C 2444.442,325.28458 2458.5714,309.2858 2471.4285,300.71437 C 2484.2856,292.14295 2507.1974,279.87014 2511.4285,269.82151 C 2512.857,266.42866 2515.5356,268.75009 2514.2856,271.42866 C 2510.5008,279.53898 2482.3213,296.25009 2476.6071,301.25009 C 2470.8928,306.25009 2447.1428,325.00009 2444.9999,334.2858 C 2443.671,340.04449 2434.5851,344.72535 2428.2334,346.30548 C 2424.5706,347.21667 2423.4018,350.68545 2424.6428,352.85724 C 2430.1785,362.54462 2438.5714,388.57151 2437.8571,395.71437 C 2437.1428,402.85723 2427.1428,427.85723 2428.5714,437.85723 C 2429.9999,447.85723 2417.8571,456.42866 2413.5714,457.14294 C 2409.2856,457.85723 2341.4285,487.14294 2334.9999,491.42865 C 2328.5714,495.71437 2320.3571,495.71436 2319.6428,506.42865 C 2318.9285,517.14293 2316.4285,527.85722 2312.1428,530.71437 C 2307.8571,533.57151 2277.8571,543.21437 2270,557.14294 C 2265.2266,565.60484 2264.3658,530.59442 2270,531.78579 z"
       id="path3842"
       inkscape:connector-curvature="0"
       sodipodi:nodetypes="sssssssssscssssscssssssssss" />
    <path
       style="fill:#7a5f4b;fill-opacity:0.89411765;stroke:none"
       d="M 2454.0541,241.27022 C 2451.8017,248.01627 2454.4709,262.90428 2447.4469,268.77022 C 2445.165,270.67591 2439.9445,275.71868 2435.5123,282.03285 C 2433.5332,284.85233 2428.5603,290.22055 2428.3398,291.9845 C 2427.6255,297.69879 2429.4112,317.69878 2428.6969,321.9845 C 2427.9827,326.27021 2422.9827,339.84164 2420.4827,344.84164 C 2417.9827,349.84164 2431.1932,345.21675 2429.7646,340.93101 C 2428.3361,336.64532 2431.9112,330.19878 2433.3398,324.84164 C 2434.7684,319.4845 2432.9827,306.62736 2432.9827,299.84164 C 2432.9827,293.05593 2433.3757,290.67171 2436.2329,287.81454 C 2437.817,286.23042 2444.5779,275.31349 2447.9253,271.92051 C 2450.6152,269.19392 2453.6969,267.82258 2453.6969,265.91307 C 2453.6969,261.62736 2454.5903,245.11733 2455.8398,241.27022 C 2456.9751,237.77497 2455.2175,237.78567 2454.0541,241.27022 z"
       id="path3844"
       inkscape:connector-curvature="0"
       sodipodi:nodetypes="sssscsssssssss" />
    <path
       style="fill:#7a5f4b;fill-opacity:0.89411765;stroke:none"
       d="M 2406.4285,250.00009 C 2402.4784,246.59466 2406.2499,247.14294 2407.6785,248.0358 C 2409.1071,248.92866 2422.6785,267.14294 2424.6428,271.07151 C 2426.6071,275.00009 2430.5357,286.07151 2433.2142,286.60722 C 2435.8928,287.14294 2429.4642,296.07152 2428.7499,292.67866 C 2428.0357,289.28581 2423.7499,275.5358 2422.1428,272.67866 C 2420.5357,269.82151 2415.3588,257.6991 2406.4285,250.00009 z"
       id="path3846"
       inkscape:connector-curvature="0"
       sodipodi:nodetypes="sssssss" />
    <path
       style="fill:#7a5f4b;fill-opacity:0.89411765;stroke:none"
       d="M 2313.7543,527.12639 C 2321.4917,522.48437 2342.8432,521.94863 2363.9633,514.01977 C 2372.4604,510.82977 2376.1979,514.33064 2382.3581,515.02995 C 2391.5161,516.06958 2391.4494,523.4123 2392.4596,528.96813 C 2393.4697,534.52398 2414.7696,543.78867 2424.366,545.80896 C 2426.5414,546.26694 2433.156,547.66845 2436.566,551.02866 C 2444.2503,558.60079 2459.4201,564.84378 2464.1938,570.5655 C 2466.6775,573.5424 2470.7873,572.92236 2472.8534,572.57801 C 2481.9447,571.06281 2490.026,574.09323 2495.5818,571.06278 C 2501.1376,568.03232 2553.1605,550.85973 2557.2011,550.85973 C 2561.2417,550.85973 2604.3877,506.97783 2617.0146,501.42199 C 2619.5385,500.31149 2621.69,500.48071 2624.3778,500.42391 C 2635.137,500.19654 2646.0179,502.42333 2652.1554,503.38256 C 2659.5233,504.5341 2656.2184,501.06764 2652.8391,500.82282 C 2648.4276,500.50321 2629.9554,498.13618 2623.9988,496.27063 C 2619.7672,494.94535 2617.1578,495.81299 2614.7798,497.44791 C 2606.6986,503.00375 2560.2569,544.53358 2553.6909,547.05896 C 2547.125,549.58435 2498.3372,564.3057 2496.2655,565.20581 C 2489.9595,567.94566 2472.3244,568.5899 2468.9914,565.8028 C 2464.597,562.12823 2457.3494,559.40556 2448.6048,553.03536 C 2444.7743,550.24497 2443.2904,547.43601 2440.277,545.1035 C 2437.3308,542.82297 2435.3279,541.34715 2431.4371,540.7582 C 2425.3618,539.83859 2403.6579,531.16177 2401.1325,527.12114 C 2398.6072,523.08055 2398.6072,512.97903 2395.0716,509.94855 C 2393.427,508.5389 2387.0951,508.51783 2380.6835,506.3296 C 2372.2343,503.44593 2364.2734,505.29729 2360.2214,506.91809 C 2352.6452,509.94858 2321.601,516.50929 2318.0348,510.7136 C 2315.1717,506.06064 2308.8542,530.06616 2313.7543,527.12639 z"
       id="path3848"
       inkscape:connector-curvature="0"
       sodipodi:nodetypes="ssssssssssssssssssssssssssss" />
    <path
       style="fill:#7a5f4b;fill-opacity:0.89411765;stroke:none"
       d="M 2524.8596,556.99461 C 2525.3957,555.31934 2528.5947,549.79152 2532.4839,544.90391 C 2535.3186,541.34156 2542.3731,537.95559 2543.6272,534.82355 C 2544.5565,532.50264 2548.7221,518.62345 2549.6439,507.25074 C 2550.3685,498.3103 2553.375,490.62029 2553.1605,487.72519 C 2552.6554,480.90666 2544.3217,459.44092 2541.2912,455.40031 C 2538.2607,451.3597 2541.165,448.96059 2543.9429,453.50628 C 2546.7208,458.05197 2556.4435,485.70489 2557.2011,488.48281 C 2557.9587,491.26073 2552.6554,503.63509 2552.6554,508.18078 C 2552.6554,512.72647 2548.6148,538.73789 2544.0691,540.50566 C 2539.5234,542.27342 2532.5577,550.97719 2533.3605,554.2587 C 2533.8881,556.41539 2523.7232,560.54591 2524.8596,556.99461 z"
       id="path3858"
       inkscape:connector-curvature="0"
       sodipodi:nodetypes="ssssssssssss" />
    <path
       style="fill:#7a5f4b;fill-opacity:0.89411765;stroke:none"
       d="M 2555.6573,485.58658 C 2558.7004,481.69131 2568.6403,465.57421 2570.26,461.32226 C 2571.8798,457.07027 2573.5277,458.63767 2572.4136,462.31428 C 2570.984,467.03263 2565.4049,473.536 2563.1777,477.38302 C 2560.9505,481.23004 2557.0746,489.23115 2556.0623,490.85092 C 2555.0499,492.47074 2553.6281,488.18392 2555.6573,485.58658 z"
       id="path3860"
       inkscape:connector-curvature="0"
       sodipodi:nodetypes="ssssss" />
    <path
       style="fill:#7a5f4b;fill-opacity:0.89411765;stroke:none"
       d="M 2396.2499,512.32151 C 2402.6771,516.25652 2419.4642,522.50008 2424.1071,523.03579 C 2428.7499,523.57151 2437.0721,519.82065 2439.9999,518.48222 C 2443.1249,517.05363 2446.764,519.61994 2449.4426,518.77175 C 2452.4879,517.80744 2474.3596,511.17797 2482.4783,507.1646 C 2490.9504,502.97648 2504.7385,493.69197 2506.4127,491.73503 C 2507.6519,490.28668 2509.9696,491.75858 2508.6475,492.98503 C 2506.1327,495.31795 2488.8605,506.43782 2483.9483,509.136 C 2473.1507,515.06693 2453.1142,521.60468 2450.4144,522.43114 C 2448.227,523.10078 2443.1474,521.83231 2441.0045,522.45728 C 2438.1514,523.28943 2433.7499,526.25008 2429.8214,526.60722 C 2425.8928,526.96436 2416.7857,526.60722 2412.6785,524.46436 C 2408.5714,522.32151 2398.3928,519.10722 2396.6071,519.28579 C 2394.8214,519.46437 2393.842,510.84726 2396.2499,512.32151 z"
       id="path3862"
       inkscape:connector-curvature="0"
       sodipodi:nodetypes="ssssssssssssss" />
    <path
       style="fill:#7a5f4b;fill-opacity:0.89411765;stroke:none"
       d="M 2071.5625,591.78579 C 2068.0513,590.21501 2053.3482,585.89293 2049.7768,586.0715 C 2046.2053,586.25007 2025.3125,583.75007 2020.6696,585.53579 C 2016.0268,587.3215 2000.6695,593.57148 1998.7053,596.0715 C 1996.741,598.57148 1992.2065,596.72451 1996.8493,594.04594 C 2001.4922,591.36737 2016.3839,584.64293 2020.8482,582.14293 C 2025.3125,579.64293 2028.3482,581.25007 2032.8125,581.60722 C 2037.2768,581.96436 2051.2053,584.10722 2054.2411,583.39293 C 2057.2768,582.67864 2066.3839,586.96439 2067.9911,585.53579 C 2069.5982,584.10725 2074.8428,593.25334 2071.5625,591.78579 z"
       id="path3864"
       inkscape:connector-curvature="0"
       sodipodi:nodetypes="ssssssssss" />
    <path
       style="fill:#7a5f4b;fill-opacity:0.89411765;stroke:none"
       d="M 2261.4483,374.91987 C 2258.234,367.88857 2256.4942,359.56866 2253.526,352.87735 C 2251.5722,348.47294 2249.179,347.67976 2247.6812,344.91117 C 2243.1535,336.54156 2234.9624,330.14138 2231.1744,328.12109 C 2227.3863,326.10077 2194.6355,326.21808 2191.3525,328.49093 C 2188.0695,330.76377 2170.8178,330.89901 2167.0297,331.15155 C 2163.2416,331.40409 2159.9586,328.12108 2158.9485,324.58556 C 2157.9383,321.05002 2153.0535,298.60477 2151.2857,293.554 C 2149.5179,288.50324 2140.9433,279.41637 2134.8311,276.60331 C 2130.7321,274.7168 2120.3102,266.2492 2118.5424,261.9561 C 2117.4383,259.27485 2115.0226,249.7912 2115.3785,238.74713 C 2115.556,233.2398 2116.3927,228.32868 2112.8386,226.10838 C 2108.7468,223.55206 2107.1832,217.13091 2102.885,210.9434 C 2100.5868,207.63503 2103.9183,205.77498 2105.0099,208.65787 C 2106.7776,213.32609 2111.2188,221.04495 2113.7441,223.06523 C 2116.2695,225.08556 2119.0474,228.36853 2119.0474,232.40914 C 2119.0474,236.44975 2117.2796,254.50621 2122.4567,261.19849 C 2125.8597,265.59741 2135.9675,273.57286 2139.2505,275.34063 C 2142.5335,277.10839 2151.6249,286.19979 2154.1502,289.7353 C 2156.6756,293.27085 2160.4637,319.0297 2162.2315,321.5551 C 2163.9992,324.08046 2163.9327,327.68999 2169.236,326.93237 C 2174.5393,326.17476 2186.7277,326.60584 2189.7581,324.08048 C 2192.7886,321.55507 2219.0525,322.31272 2225.366,322.31272 C 2231.6794,322.31272 2237.2353,325.84827 2240.2657,328.12109 C 2243.2962,330.39396 2252.135,342.76831 2256.1756,346.30384 C 2260.2163,349.83937 2260.4688,357.16298 2265.7721,359.43582 C 2271.0754,361.70867 2263.9062,380.29648 2261.4483,374.91987 z"
       id="path3866"
       inkscape:connector-curvature="0"
       sodipodi:nodetypes="sssssssssssssssssssssssssss" />
    <path
       style="fill:#7a5f4b;fill-opacity:0.89411765;stroke:none"
       d="M 2159.928,325.47842 C 2156.5232,323.89676 2144.7449,311.05442 2137.3909,310.81589 C 2130.3049,310.58605 2103.8952,307.41297 2098.5919,305.89774 C 2093.2886,304.38251 2090.803,301.20658 2089.0541,298.78072 C 2087.4346,296.53441 2090.7256,296.0992 2091.5668,297.462 C 2092.9679,299.73218 2095.8166,303.52292 2102.3826,304.28053 C 2108.9486,305.03814 2133.7966,308.45375 2137.5847,307.94868 C 2141.3728,307.4436 2145.3088,309.85167 2147.5816,311.64747 C 2150.3979,313.8726 2156.6661,317.65866 2158.2775,317.02211 C 2160.7549,316.04351 2163.7046,327.23281 2159.928,325.47842 z"
       id="path3868"
       inkscape:connector-curvature="0"
       sodipodi:nodetypes="ssssssssss" />
    <path
       style="fill:#7a5f4b;fill-opacity:0.89411765;stroke:none"
       d="M 2116.4285,226.42866 C 2119.4215,223.21397 2123.6885,210.82494 2124.0115,208.85469 C 2124.3552,206.75831 2127.1511,207.43034 2126.3311,209.41207 C 2124.4815,213.88192 2119.2027,224.68967 2118.0357,230.89294 C 2117.4982,233.74975 2114.3035,228.71113 2116.4285,226.42866 z"
       id="path3870"
       inkscape:connector-curvature="0"
       sodipodi:nodetypes="sssss" />
    <path
       style="fill:#7a5f4b;fill-opacity:0.89411765;stroke:none"
       d="M 2256.0714,157.50009 C 2258.1735,151.75956 2258.5101,134.62936 2258.153,126.77221 C 2257.7959,118.91507 2256.538,108.05622 2254.4157,103.74547 C 2252.906,100.67912 2255.7397,99.51236 2257.0185,102.74275 C 2259.4883,108.98177 2259.9387,118.55793 2260.2959,130.70079 C 2260.653,142.84364 2259.4066,156.2556 2260.8035,160.44652 C 2261.6963,163.12509 2255.1883,159.91169 2256.0714,157.50009 z"
       id="path3872"
       inkscape:connector-curvature="0"
       sodipodi:nodetypes="sssssss" />
    <path
       style="fill:#7a5f4b;fill-opacity:0.89411765;stroke:none"
       d="M 2338.1874,158.66801 C 2345.0179,158.36443 2355.865,155.63756 2360.1582,156.90025 C 2364.4513,158.16294 2385.1595,157.65787 2391.2204,156.90025 C 2394.1458,156.53457 2395.9457,156.90181 2403.157,152.11977 C 2410.2939,147.3871 2423.2993,140.01012 2426.4495,139.00161 C 2430.4415,137.7236 2429.9607,135.06468 2427.2134,136.44466 C 2423.6453,138.23696 2416.2217,141.24288 2412.181,144.0208 C 2408.1404,146.79872 2395.5341,153.09686 2393.7664,153.60193 C 2391.9986,154.10702 2385.8024,155.62223 2379.7415,155.11716 C 2373.6806,154.61208 2360.1582,153.86979 2357.6328,153.11217 C 2355.1074,152.35456 2344.5009,154.81682 2343.9958,152.6071 C 2343.6399,151.05009 2333.6462,158.86984 2338.1874,158.66801 z"
       id="path3874"
       inkscape:connector-curvature="0"
       sodipodi:nodetypes="ssssssssssss" />
    <path
       style="fill:#7a5f4b;fill-opacity:0.89411765;stroke:none"
       d="M 1877.9612,358.55818 C 1879.7678,357.65184 1877.4445,345.38467 1876.2723,341.44431 C 1875.7253,339.60556 1877.2938,338.73272 1878.006,340.48772 C 1879.2314,343.50718 1879.604,352.82027 1880.4383,354.60754 C 1881.2726,356.3948 1881.0973,359.45569 1882.2148,360.66472 C 1883.3323,361.87372 1875.6927,359.69621 1877.9612,358.55818 z"
       id="path3876"
       inkscape:connector-curvature="0"
       sodipodi:nodetypes="ssssss" />
    <path
       style="fill:#7a5f4b;fill-opacity:0.89411765;stroke:none"
       d="M 2325.7138,485.99086 C 2333.5634,475.69593 2340.6447,454.77769 2340.6671,448.88756 C 2340.6896,442.99749 2341.7393,440.31626 2343.7562,433.82737 C 2344.9274,430.05958 2345.6217,425.37687 2343.9411,421.38154 C 2342.7273,418.49614 2339.8045,416.34843 2337.1643,413.35985 C 2330.8681,406.23295 2318.1004,385.43229 2317.1013,374.8608 C 2316.102,364.28928 2317.6076,362.69905 2321.0148,355.08942 C 2324.422,347.47979 2330.6744,331.99008 2331.8382,320.3389 C 2332.2045,316.67051 2335.5397,317.71639 2335.0958,320.21752 C 2332.4399,335.18741 2327.8053,348.10752 2324.391,355.57867 C 2321.0719,362.84217 2319.1079,367.37178 2321.2835,375.27571 C 2323.0465,381.68077 2330.2194,396.74711 2339.3515,407.65122 C 2343.8831,413.06207 2346.5578,415.55497 2349.0921,418.29025 C 2352.4126,421.87401 2351.2896,425.98339 2350.5124,428.28578 C 2349.023,432.69773 2346.135,444.28428 2346.107,451.10745 C 2346.0606,462.39616 2337.8399,476.99691 2339.4659,482.20036 C 2341.0919,487.40376 2320.8475,492.37306 2325.7138,485.99086 z"
       id="path3878"
       inkscape:connector-curvature="0"
       sodipodi:nodetypes="sssssssssssssssss" />
    <path
       style="fill:#7a5f4b;fill-opacity:0.89411765;stroke:none"
       d="M 2337.794,406.15073 C 2342.0599,404.72511 2348.0266,395.29036 2349.0981,387.79037 C 2350.1695,380.29036 2360.8977,360.19167 2364.6428,351.42866 C 2366.7226,346.56236 2369.3081,349.97032 2367.7253,352.60655 C 2364.7612,357.54333 2353.5714,380.71437 2351.4285,390.35723 C 2349.2857,400.00008 2343.2812,407.87702 2343.3009,412.22774 C 2343.3159,415.52038 2335.84,406.80372 2337.794,406.15073 z"
       id="path3880"
       inkscape:connector-curvature="0"
       sodipodi:nodetypes="sssssss" />
    <path
       style="fill:#7a5f4b;fill-opacity:0.89411765;stroke:none"
       d="M 2344.8963,1103.7615 C 2355.99,1092.5929 2374.8851,1067.9198 2377.9085,1055.8265 C 2380.9317,1043.7332 2398.064,1020.5544 2398.064,1007.4533 C 2398.064,994.35216 2395.0406,950.00988 2397.0562,936.90875 C 2399.0718,923.80764 2406.679,913.82198 2399.0718,902.6443 C 2391.0004,890.78464 2384.3537,873.06477 2372.5148,861.04977 C 2365.1158,853.5408 2350.6862,830.5775 2346.6673,827.06094 C 2343.3106,824.12389 2338.1225,814.09995 2330.6552,806.80211 C 2320.1869,796.57135 2306.6985,788.77982 2300.3096,787.7576 C 2294.0109,786.74981 2297.0264,782.78055 2300.7101,784.35416 C 2308.1846,787.54713 2324.5832,796.28235 2333.4909,804.12102 C 2342.3984,811.95968 2368.4085,851.15306 2375.5347,856.85392 C 2382.6606,862.55477 2400.1195,895.33468 2405.4641,901.03554 C 2410.8086,906.73639 2412.5901,912.08094 2410.4523,915.64397 C 2408.3146,919.207 2403.6826,940.2289 2403.3262,948.78019 C 2402.97,957.33146 2407.2457,999.73159 2406.8893,1008.2829 C 2406.533,1016.8341 2390.1742,1045.1678 2388.7179,1053.177 C 2385.1548,1072.7739 2369.1212,1094.1519 2364.8455,1106.2663 C 2360.5699,1118.3806 2357.3631,1136.1957 2355.5816,1142.9655 C 2353.8,1149.7352 2338.7739,1109.9251 2344.8963,1103.7615 z"
       id="path3882"
       inkscape:connector-curvature="0"
       sodipodi:nodetypes="ssssssssssssssssssss" />
    <path
       style="fill:#7a5f4b;fill-opacity:0.89411765;stroke:none"
       d="M 2403.6884,902.30244 C 2406.5061,901.17823 2415.3636,879.83509 2415.8669,875.88337 C 2416.3699,871.93172 2419.2267,859.7462 2426.2257,856.50114 C 2431.2852,854.15527 2462.4865,839.22006 2467.3613,834.31122 C 2469.5033,832.15442 2470.7955,833.73213 2468.6909,835.75313 C 2467.2209,837.16471 2463.112,840.19552 2457.2515,843.15618 C 2445.8905,848.89558 2430.6311,856.95392 2428.3444,859.10004 C 2424.8783,862.3531 2419.8149,870.6722 2419.9077,875.21323 C 2419.9966,879.56156 2409.5478,900.50047 2408.7686,906.24224 C 2408.0654,911.4241 2400.2374,903.6793 2403.6884,902.30244 z"
       id="path3884"
       inkscape:connector-curvature="0"
       sodipodi:nodetypes="ssssssssss" />
    <path
       style="fill:#7a5f4b;fill-opacity:0.89411765;stroke:none"
       d="M 2384.7986,1063.3316 C 2398.6675,1054.7368 2413.4809,1039.9937 2428.9801,1029.4828 C 2435.9897,1024.7293 2443.4104,1015.9433 2443.5886,1008.9954 C 2443.6823,1005.3426 2443.9327,989.77184 2445.7841,979.44837 C 2449.3919,959.33047 2451.0219,934.86402 2455.3467,927.58014 C 2458.7316,921.8793 2452.3303,920.44513 2451.071,925.79861 C 2444.6541,953.07704 2441.8071,976.21545 2439.6693,987.26088 C 2437.5315,998.30617 2440.9163,1014.3399 2430.5835,1020.3972 C 2420.2507,1026.4542 2392.2809,1052.9988 2388.3616,1051.9299 C 2384.4423,1050.8611 2373.3698,1070.4143 2384.7986,1063.3316 z"
       id="path3886"
       inkscape:connector-curvature="0"
       sodipodi:nodetypes="ssssssssss" />
    <path
       style="fill:#7a5f4b;fill-opacity:0.89411765;stroke:none"
       d="M 2424.4317,858.10975 C 2426.815,850.57187 2434.2856,838.57151 2435.3571,835.00007 C 2435.7252,833.77321 2438.0068,831.46026 2439.8377,830.47519 C 2443.3367,828.59271 2447.5697,828.21591 2450.3571,826.0715 C 2451.9911,824.81439 2454.9491,826.97519 2452.4566,828.1277 C 2449.3247,829.57583 2445.0169,830.50258 2442.8342,831.28167 C 2440.3595,832.16501 2440.1119,832.9126 2438.2142,835.00007 C 2436.5492,836.83159 2434.8511,842.01128 2432.8173,846.41757 C 2430.4887,851.46268 2427.9753,855.69022 2428.9285,856.0715 C 2430.7142,856.78579 2423.4328,861.26907 2424.4317,858.10975 z"
       id="path3888"
       inkscape:connector-curvature="0"
       sodipodi:nodetypes="ssssssssss" />
    <path
       style="fill:#7a5f4b;fill-opacity:0.89411765;stroke:none"
       d="M 2370.3571,852.67864 C 2373.6618,849.37389 2373.5714,842.14293 2373.7499,838.21436 C 2373.9285,834.28578 2372.8571,811.42862 2370.5357,806.42864 C 2368.2142,801.42862 2373.2143,802.14292 2374.1071,805.00007 C 2375,807.8572 2375.8928,823.39292 2376.9643,833.21436 C 2378.0357,843.03578 2375.6091,853.00339 2375.7142,856.78578 C 2375.8928,863.21435 2367.5878,855.44795 2370.3571,852.67864 z"
       id="path3890"
       inkscape:connector-curvature="0"
       sodipodi:nodetypes="sssssss" />
  </g>
  <g
     inkscape:groupmode="layer"
     id="layer2"
     inkscape:label="Mother"
     style="display:inline">
    <path
       transform="matrix(0.66428572,0,0,0.66428572,42.367329,690.38281)"
       d="M 1794.2856,431.42865 A 400,400 0 1 1 994.28564,431.42865 A 400,400 0 1 1 1794.2856,431.42865 z"
       sodipodi:ry="400"
       sodipodi:rx="400"
       sodipodi:cy="431.42865"
       sodipodi:cx="1394.2856"
       id="path3785"
       style="fill:#ebdd92;fill-opacity:0.86243388;stroke:none"
       sodipodi:type="arc" />
    <path
       sodipodi:type="arc"
       style="fill:#ebdd92;fill-opacity:0.86243388;stroke:none"
       id="path3015"
       sodipodi:cx="1394.2856"
       sodipodi:cy="431.42865"
       sodipodi:rx="400"
       sodipodi:ry="400"
       d="M 1794.2856,431.42865 A 400,400 0 1 1 994.28564,431.42865 A 400,400 0 1 1 1794.2856,431.42865 z"
       transform="translate(-39.999999,136.97464)" />
    <path
       style="fill:#040100;fill-opacity:0.81481481;stroke:none"
       d="M 1630.0666,750.03483 C 1565.2684,937.64076 1431.5445,817.68728 1273.9391,841.36186 C 1112.5452,865.60552 1091.4286,735.53602 1108.5715,631.26035 C 1116.248,584.56594 1087.6585,575.07022 1076.6476,533.49201 C 1059.6288,469.22726 1063.9042,375.85596 1156.7983,358.30179 C 1196.9352,350.71714 1234.9485,325.67839 1284.2857,318.40321 C 1405.1421,300.58194 1453.5618,376.37752 1554.1927,452.34846 C 1639.0412,516.40452 1667.7147,641.03496 1630.0666,750.03483 z"
       id="path3780"
       inkscape:connector-curvature="0"
       sodipodi:nodetypes="ssssssss" />
    <path
       sodipodi:nodetypes="sssssssssssssssssssssssss"
       inkscape:connector-curvature="0"
       id="path3069"
       d="M 923.03581,3013.1775 C 913.50581,3035.1986 913.12172,3055.0135 908.36303,3067.3691 C 903.67895,3079.5309 900.5759,3092.4352 907.38478,3099.0259 C 913.25288,3104.7058 922.64281,3095.4595 924.5441,3086.4353 C 926.72811,3076.0694 921.93235,3090.5568 918.80997,3102.3013 C 914.77198,3117.4899 907.60409,3123.7044 918.04799,3132.1097 C 929.82017,3141.5841 937.52936,3128.0785 941.34346,3118.6704 C 945.67775,3107.9793 951.83083,3104.7764 942.18619,3123.4604 C 935.53031,3136.3544 925.86164,3154.0729 938.17625,3162.4364 C 950.27317,3170.652 960.70273,3145.4931 964.93762,3136.3574 C 971.5422,3122.1096 976.11035,3120.5614 965.39571,3139.4113 C 957.41208,3153.4566 947.97551,3171.3644 965.52714,3174.4345 C 987.72885,3178.3179 987.69715,3150.0006 996.66977,3139.1916 C 1003.0972,3131.449 1009.8017,3123.3479 1007.9665,3129.3815 C 1002.8636,3146.1579 985.9758,3177.7546 1010.5124,3183.4154 C 1041.2484,3190.5064 1063.4105,3159.5044 1064.8628,3139.2504 C 1066.0075,3123.2867 1080.3877,3114.435 1090.2138,3082.0437 C 1096.0118,3062.9302 1097.3627,2990.6856 1107.5631,2931.5977 C 1110.7833,2912.9438 1121.0961,2915.5528 1127.7848,2896.0334 C 1132.6344,2881.8813 1121.842,2854.4216 1129.1741,2840.4931 C 1233.3873,2642.5228 1464.3911,2406.1603 1154.8353,2359.8618 C 958.3429,2330.4735 1070.5859,2619.0303 1009.3419,2814.8731 C 1005.6722,2826.6078 987.34515,2839.2384 985.09464,2852.2593 C 982.29919,2868.432 989.16411,2882.895 982.9073,2899.3033 C 963.19651,2950.9942 929.69451,2997.7912 923.03581,3013.1775 z"
       style="fill:#ffdebd;fill-opacity:0.84126988;stroke:none" />
    <path
       style="fill:#ffdebd;fill-opacity:0.84126988;stroke:none"
       d="M 1029.414,2755.0462 C 1005.9035,2777.8036 985.27989,2783.4239 974.12159,2790.5512 C 963.13832,2797.5667 951.11214,2803.1811 943.29588,2797.8234 C 936.55975,2793.206 943.74756,2782.1607 952.21127,2778.4978 C 961.93334,2774.2903 953.80932,2771.5601 942.9235,2776.962 C 928.84537,2783.9481 924.18529,2792.2114 913.86592,2783.6537 C 902.23401,2774.0076 913.93076,2763.7597 922.38917,2758.1459 C 932.00105,2751.7665 933.91243,2745.0982 917.52732,2758.2754 C 906.21981,2767.3692 890.7856,2780.3774 880.13409,2769.9782 C 869.67093,2759.7628 892.24432,2744.5251 900.35187,2738.5533 C 912.99622,2729.2398 913.60224,2724.4546 897.26796,2738.7134 C 885.09709,2749.3379 869.43109,2762.1564 862.92217,2745.5697 C 854.68887,2724.5885 882.4436,2718.972 891.24594,2708.0239 C 897.55111,2700.1814 904.15231,2691.9959 898.60594,2694.9976 C 883.1843,2703.3438 855.59048,2726.194 845.14982,2703.2793 C 832.07129,2674.575 858.03044,2646.6751 877.58789,2641.2126 C 893.00258,2636.907 898.80846,2621.0504 928.5893,2604.9615 C 946.16245,2595.468 1016.6862,2579.7358 1072.5527,2557.9558 C 1090.1896,2551.08 1085.5762,2541.4947 1103.3695,2531.0474 C 1116.2701,2523.4727 1145.3305,2528.5717 1157.5169,2518.609 C 1330.7257,2377.0062 1516.2682,2103.5031 1623.3744,2397.6061 C 1691.3608,2584.2898 1386.2153,2531.8516 1206.5215,2630.9241 C 1195.7545,2636.8605 1187.0328,2657.3384 1174.7223,2662.1406 C 1159.432,2668.1054 1143.8905,2664.2629 1129.0597,2673.6665 C 1082.3384,2703.2905 1041.4602,2743.3858 1029.414,2755.0462 z"
       id="path3072"
       inkscape:connector-curvature="0"
       sodipodi:nodetypes="sssssssssssssssssssssssss" />
    <path
       style="fill:#2c2a5c;fill-opacity:0.94709018;stroke:none"
       d="M 2011.0102,1356.9089 C 2018.6727,1489.1288 1974.8319,1643.1767 1861.5724,1727.5567 C 1821.492,1749.9688 1764.5509,1722.1696 1810.4551,1800.4061 C 1856.3593,1878.6426 1963.0036,1919.5285 1943.7621,2065.301 C 1940.8048,2087.7049 2058.6554,2055.3987 2067.2656,2124.8366 C 2073.6118,2176.0167 1990.4527,2197.2613 2026.0768,2216.9166 C 2073.6322,2243.1549 2120.4282,2246.7658 2137.4224,2279.8236 C 2157.0692,2318.0415 2173.3086,2313.3666 2173.2125,2347.7482 C 2173.1421,2372.9085 2228.2301,2382.3157 2246.6202,2395.0913 C 2266.4158,2408.8431 2320.5674,2450.0832 2289.271,2468.2928 C 2251.8827,2490.0471 2218.8285,2519.9492 2177.5258,2527.8969 C 2130.7801,2536.892 2050.9274,2540.1705 2044.7713,2544.2895 C 2029.0686,2554.796 2038.6268,2606.2644 2018.9205,2612.016 C 1981.2116,2623.0218 1937.4365,2578.7954 1889.2103,2569.5311 C 1830.2427,2558.2033 1768.8639,2580.7581 1756.5076,2591.9918 C 1722.4409,2622.9635 1687.0926,2689.7245 1658.6481,2719.8541 C 1638.3148,2741.3918 1641.9374,2769.8113 1626.6815,2787.7711 C 1617.7057,2798.3377 1600.0386,2811.4005 1584.6507,2818.4512 C 1553.7712,2832.6 1554.6219,2875.9858 1530.1415,2902.2705 C 1522.5176,2910.4564 1511.7952,2909.7924 1503.4601,2891.2181 C 1498.8322,2880.9051 1502.2508,2850.5761 1494.5377,2854.087 C 1446.5803,2875.9161 1398.9583,2900.1115 1363.2861,2899.6278 C 1319.8868,2899.0394 1286.6675,2874.3263 1268.5343,2876.5986 C 1260.3554,2877.6235 1255.156,2878.6613 1253.0591,2885.1228 C 1249.4214,2896.3319 1242.2363,2918.9977 1239.1656,2930.3318 C 1236.0962,2941.6612 1231.6266,2948.5307 1220.1538,2951.344 C 1191.2263,2958.4377 1164.5804,2956.7261 1137.8427,2945.0803 C 1118.5399,2936.6729 1138.3452,2923.7865 1120.7901,2921.8212 C 1090.2871,2918.4063 1038.7411,2931.4172 987.83863,2898.6269 C 980.48024,2893.8867 979.10668,2885.8184 980.48249,2871.3709 C 981.14378,2864.4266 984.48456,2848.8422 989.2133,2834.3581 C 992.5614,2824.1029 1002.3532,2830.4043 1000.442,2813.1362 C 998.01672,2791.2228 985.0014,2766.7078 990.07727,2724.683 C 991.46171,2713.2208 1005.6218,2712.3187 1006.9703,2697.4971 C 1010.2568,2661.3741 995.81809,2601.3643 995.86963,2587.4657 C 996.11081,2522.4212 1014.092,2526.2706 1017.9441,2499.2179 C 1023.5048,2460.1659 1037.8024,2433.2774 1036.9242,2411.8763 C 1034.6665,2356.8633 1018.0412,2357.3867 999.1523,2327.4672 C 963.54286,2271.0629 844.60348,2090.0157 879.69137,1937.8712 C 914.87014,1785.3326 971.69667,1730.8263 1008.9804,1693.0071 C 1023.006,1678.7801 1037.4642,1686.5302 1041.5851,1677.9592 C 1067.8555,1623.3203 1074.3158,1577.9177 1067.5456,1523.3789 C 1064.5099,1498.9244 1049.5712,1498.7934 1044.9039,1504.7686 C 1032.1817,1521.0563 1029.2063,1612.2102 1006.8424,1637.038 C 937.25542,1714.2915 848.27149,1585.9242 817.52477,1525.7338 C 768.28745,1429.3458 730.16881,1291.3313 746.44525,1211.6809 C 767.09724,1110.6183 807.78304,1096.8321 892.83781,1042.6417 C 976.49824,989.33971 1046.8157,951.81582 1138.2761,951.82912 C 1253.3163,951.84585 1367.8826,970.73232 1482.4226,967.39888 C 1573.7933,964.73973 1662.5941,845.32564 1715.4706,856.8486 C 1821.4575,879.94549 1885.8954,1058.0289 1922.657,1163.2903 C 1930.5809,1185.9794 1949.1574,1159.0668 1960.293,1178.9014 C 1989.1655,1230.3291 2007.1901,1290.9911 2011.0102,1356.9089 z"
       id="path3756"
       inkscape:connector-curvature="0"
       sodipodi:nodetypes="sczssssssssssssssssssssssssssssssssssssssssssssssssss" />
    <path
       style="fill:#d7624b;fill-opacity:0.88359794;stroke:none"
       d="M 1721.2405,1001.3728 C 1724.9231,1057.2082 1778.8057,1440.1798 1486.2124,1671.6912 C 1347.9385,1781.099 1391.7314,1741.3694 1261.7945,1797.5514 C 1190.1418,1828.5325 1277.2951,1655.7426 1216.6042,1552.4192 C 1146.0626,1432.3252 943.99007,1117.9536 943.99007,1051.7368 C 943.99007,995.73299 1065.6493,883.5728 1133.5786,866.40106 C 1211.9392,846.59239 1349.9155,784.78653 1443.508,792.79118 C 1557.1284,802.50875 1662.6669,842.96775 1694.3286,868.45825 C 1721.3654,890.22528 1719.2227,970.77888 1721.2405,1001.3728 z"
       id="path3777"
       inkscape:connector-curvature="0"
       sodipodi:nodetypes="sssssssss" />
    <path
       style="fill:#ffd8ba;fill-opacity:0.92592594;stroke:none"
       d="M 1371.5909,496.95271 C 1387.9871,519.74977 1401.2235,482.95616 1425.317,496.26124 C 1452.3076,511.16617 1454.3398,564.00622 1446.5804,590.40841 C 1441.5195,607.62882 1427.4792,601.7854 1421.3248,609.86397 C 1419.2462,612.5924 1428.1713,636.33804 1430.0542,643.43108 C 1441.2253,685.51539 1478.8176,746.50203 1489.6223,760.65476 C 1497.0677,770.40723 1528.1629,790.49228 1558.3951,807.00854 C 1593.8388,826.3719 1627.718,843.28885 1615.2565,869.65157 C 1577.8796,948.72363 1268.8547,927.70988 1230.5369,893.36106 C 1204.5985,870.10931 1238.319,851.08658 1272.2511,826.58339 C 1299.0742,807.21381 1319.7333,780.4831 1320.1151,776.13224 C 1320.7927,768.40981 1311.3445,753.57958 1305.1248,749.60327 C 1294.7952,755.15814 1276.0571,759.23957 1263.2647,764.87628 C 1251.0752,770.24734 1231.7293,765.93794 1219.9906,754.7894 C 1210.7909,746.05214 1189.5056,723.70728 1173.9898,702.24867 C 1158.903,681.3834 1144.6272,652.83667 1140.8638,626.37511 C 1137.418,602.14615 1120.851,592.61241 1114.9387,564.90099 C 1104.3197,515.12897 1108.5871,472.3021 1127.5691,446.86406 C 1138.596,432.08673 1153.9193,423.5121 1175.9216,421.97933 C 1197.6119,420.4683 1233.5291,438.57777 1267.8123,447.55345 C 1307.7248,458.00295 1346.32,461.81639 1371.5909,496.95271 z"
       id="path3759"
       inkscape:connector-curvature="0"
       sodipodi:nodetypes="ssssssssssscsssssssss" />
    <path
       style="fill:#ba5132;fill-opacity:0.81481479;stroke:none;display:inline"
       d="M 1612.9289,1483.0181 C 1616.7413,1519.5349 1619.1366,1566.3059 1617.2359,1600.5298 C 1613.8276,1661.8993 1594.7283,1612.1053 1561.9695,1607.3212 C 1543.7563,1604.6614 1539.0929,1611.3005 1538.184,1599.3494 C 1536.6623,1579.341 1534.4401,1576.4867 1537.8956,1545.1572 C 1541.5809,1511.7443 1535.0231,1475.3141 1562.0202,1474.2066 C 1588.8099,1473.1077 1607.8781,1434.6395 1612.9289,1483.0181 z"
       id="path3786"
       inkscape:connector-curvature="0"
       sodipodi:nodetypes="sssssss" />
  </g>
  <g
     inkscape:groupmode="layer"
     id="layer4"
     inkscape:label="Child"
     style="display:inline">
    <path
       style="fill:#f0a372;fill-opacity:0.89411765;stroke:none"
       d="M 1992.672,1282.0044 C 2004.7462,1281.4801 2008.8407,1275.3508 2010.308,1271.4907 C 2011.6396,1267.9877 2001.2066,1262.0951 1991.5083,1264.569 C 1982.0918,1266.9711 1976.963,1274.8618 1980.0039,1277.8872 C 1983.0448,1280.9125 1988.2565,1282.1962 1992.672,1282.0044 z"
       id="path3964"
       inkscape:connector-curvature="0"
       sodipodi:nodetypes="sssss" />
    <path
       style="fill:#f4bb97;fill-opacity:0.89411765;stroke:none"
       d="M 1975.2885,1257.7987 C 1977.7555,1252.1668 1988.5774,1245.8144 1999.6342,1246.8117 C 2010.6909,1247.8089 2012.1446,1253.5124 2008.9275,1258.4074 C 2007.7078,1260.2633 2005.0233,1261.9003 2002.5134,1262.3478 C 1999.2866,1262.9231 1996.1529,1261.9045 1994.7236,1260.7917 C 1991.0008,1257.8935 1986.6592,1265.2267 1982.6488,1266.3647 C 1978.6383,1267.5027 1972.7181,1263.6664 1975.2885,1257.7987 z"
       id="path3962"
       inkscape:connector-curvature="0"
       sodipodi:nodetypes="sssssss" />
    <path
       style="fill:#f9c8a9;fill-opacity:0.89411765;stroke:none"
       d="M 1975.5238,1238.753 C 1982.4103,1233.4414 1997.6096,1227.9968 2006.3776,1233.0165 C 2014.6234,1237.7372 2010.4398,1245.5479 2005.3285,1248.3715 C 1997.5412,1252.6733 1992.3709,1247.0358 1988.765,1249.7413 C 1984.8236,1252.6983 1978.2115,1254.2819 1974.8395,1251.8391 C 1971.5357,1249.4458 1969.0627,1243.7365 1975.5238,1238.753 z"
       id="path3960"
       inkscape:connector-curvature="0"
       sodipodi:nodetypes="ssssss" />
    <path
       style="fill:#fcd3b9;fill-opacity:0.89411765;stroke:none"
       d="M 1968.1071,1231.7379 C 1973.7594,1224.2335 1983.0839,1216.8577 1996.3695,1217.0118 C 2006.3337,1217.1273 2007.3687,1224.0862 2006.7168,1228.8062 C 2006.0879,1233.3592 1998.7962,1240.3889 1991.5654,1238.8649 C 1986.4771,1237.7926 1985.5584,1244.0096 1981.6136,1245.1243 C 1976.1241,1246.6757 1962.6899,1238.9302 1968.1071,1231.7379 z"
       id="path3958"
       inkscape:connector-curvature="0"
       sodipodi:nodetypes="ssssss" />
    <path
       style="fill:#ffddc7;fill-opacity:0.89473685;stroke:none"
       d="M 1130.8535,1102.0689 C 1152.4438,1093.5736 1176.5469,1090.3644 1202.8742,1091.4806 C 1219.7021,1092.1941 1228.7692,1095.2645 1231.5289,1094.6654 C 1234.5384,1094.0121 1241.6527,1087.9714 1247.5336,1084.4225 C 1257.5751,1078.363 1280.1744,1073.6082 1292.5754,1070.6497 C 1298.6816,1069.1929 1300.7632,1070.2571 1301.9351,1069.1536 C 1303.3657,1067.8065 1302.6299,1065.3585 1304.7589,1061.4246 C 1309.3959,1052.8564 1316.3746,1041.2128 1327.5856,1030.4763 C 1354.392,1004.8042 1376.7139,978.19411 1397.1267,961.84431 C 1418.44,944.77316 1456.752,965.68029 1451.836,988.59928 C 1447.63,1008.2085 1421.3376,1062.6888 1408.7626,1084.0498 C 1396.3069,1105.2084 1386.5096,1118.1934 1377.3404,1134.9692 C 1369.9372,1148.5142 1366.4953,1144.7717 1359.3929,1151.9192 C 1309.3342,1202.2956 1231.0587,1203.8217 1182.4302,1199.9836 C 1152.6847,1197.6358 1071.721,1125.7971 1130.8535,1102.0689 z"
       id="path3940"
       inkscape:connector-curvature="0"
       sodipodi:nodetypes="csssssssssssssc"
       inkscape:transform-center-x="-139.85157"
       inkscape:transform-center-y="-73.151682" />
    <path
       style="fill:#ffddc7;fill-opacity:0.89473683;stroke:none;display:inline"
       d="M 1009.2095,867.84714 C 953.52212,855.28473 886.46092,883.35442 857.80451,924.09101 C 822.32847,974.52203 794.647,1055.7228 855.21522,1108.6823 C 892.91156,1141.6429 952.71264,1141.9649 984.7335,1136.1562 C 1029.9955,1127.9453 1081.062,1108.0756 1112.1796,1087.4604 C 1131.2544,1074.8235 1136.7982,1052.5464 1142.0806,1049.2746 C 1148.9836,1044.9992 1153.5753,1037.1045 1154.9587,1031.1593 C 1156.212,1025.7731 1151.3542,1018.8447 1151.3001,1016.9607 C 1150.0504,973.48789 1121.7981,942.24074 1084.418,922.94101 C 1074.5609,917.85172 1068.2093,903.96969 1059.2663,894.9917 C 1045.0713,880.74117 1027.7719,872.0346 1009.2095,867.84714 z"
       id="InfantHead"
       inkscape:connector-curvature="0"
       sodipodi:nodetypes="sssssssssss" />
    <path
       style="fill:#ffddc7;fill-opacity:0.89473683;stroke:none;display:inline"
       d="M 1098.5714,1091.4286 C 1106.4286,1100.7143 1117.1428,1105.0001 1113.5714,1112.8572 C 1110,1120.7143 1011.4286,1167.8572 1000.7143,1159.2858 C 989.99998,1150.7143 969.28569,1137.1429 967.85712,1128.5715 C 966.42855,1120.0001 1087.8571,1081.4286 1098.5714,1091.4286 z"
       id="InfantNeck"
       inkscape:connector-curvature="0" />
    <path
       style="fill:#ffddc7;fill-opacity:0.89473683;stroke:none;display:inline"
       d="M 954.28569,1207.1429 C 950.89347,1292.955 1086.4285,1356.4286 1113.5714,1390.7143 C 1140.7142,1425 1192.1429,1553.5715 1320,1557.1429 C 1402.4212,1559.4452 1446.6635,1523.1685 1474.2233,1490.4203 C 1531.6581,1422.173 1498.2014,1311.5102 1431.9696,1254.8119 C 1374.4714,1205.5902 1309.0016,1198.6938 1303.5177,1191.2064 C 1293.7321,1177.8457 1289.3861,1155.9833 1280.9777,1148.2812 C 1253.6087,1123.2114 1206.1292,1108.456 1154.6656,1105.0508 C 1110.9112,1102.1556 957.38808,1128.6627 954.28569,1207.1429 z"
       id="InfantBody"
       inkscape:connector-curvature="0"
       sodipodi:nodetypes="sssssssss" />
    <path
       style="fill:#f9c3a0;fill-opacity:0.89473683;stroke:none"
       d="M 1280,1116.7857 C 1301.0464,1107.1811 1326.514,1126.2846 1336.0714,1141.7858 C 1343.3862,1153.6498 1348.7874,1163.9334 1349.3429,1175.9089 C 1349.5399,1180.154 1349.0799,1185.9649 1349.2857,1186.4286 C 1349.6495,1187.248 1349.0405,1188.3947 1349.2272,1189.4895 C 1349.7898,1192.7887 1350.9296,1195.2509 1351.1398,1199.4787 C 1351.2515,1201.7249 1350.295,1205.1514 1350.1962,1207.3182 C 1350.129,1208.7919 1350.2849,1211.9853 1349.99,1214.1955 C 1349.3827,1218.7468 1348.4381,1222.0878 1344.0115,1221.9859 C 1338.9957,1221.8705 1336.4241,1218.0561 1335.3619,1214.8826 C 1334.5824,1212.5539 1335.277,1210.9027 1335.0637,1209.8318 C 1334.9174,1209.0966 1333.4344,1207.4106 1332.7064,1204.5259 C 1332.2101,1202.5588 1330.8535,1201.0549 1329.9911,1199.2942 C 1329.3419,1197.9688 1328.6482,1195.4536 1327.1787,1194.7871 C 1325.2533,1193.9138 1325.3949,1195.7961 1325.7878,1198.8289 C 1326.0894,1201.1568 1326.6515,1204.4653 1325.2185,1206.5246 C 1324.1161,1208.1088 1321.4322,1208.8078 1318.9984,1208.6458 C 1316.024,1208.4478 1313.647,1206.3475 1312.3773,1203.9956 C 1311.551,1202.4651 1311.5539,1201.034 1310.932,1199.2462 C 1309.4335,1194.9377 1308.8771,1191.0189 1307.0417,1190.0123 C 1290.9871,1181.2081 1277.3055,1172.9769 1271.7856,1162.8572 C 1263.2141,1147.1429 1268.6333,1121.973 1280,1116.7857 z"
       id="path3938"
       inkscape:connector-curvature="0"
       sodipodi:nodetypes="ssssssssssssssssssssss" />
    <path
       style="fill:#ffddc7;fill-opacity:0.89473683;stroke:none;display:inline"
       d="M 1166.4285,1183.5715 C 1183.2789,1154.685 1255.5135,1137.0045 1276.4286,1120.7144 C 1297.5626,1104.2537 1336.4286,1132.8572 1330,1157.8572 C 1323.5714,1182.8572 1277.1428,1285.7144 1238.5714,1298.5715 C 1200,1311.4286 1132.874,1241.0935 1166.4285,1183.5715 z"
       id="path3831"
       inkscape:connector-curvature="0"
       sodipodi:nodetypes="sssss" />
    <path
       style="fill:#ffeee3;fill-opacity:0.89473683;stroke:none;display:inline"
       d="M 949.66592,1250.6862 C 924.67613,1213.2015 943.48245,1164.5274 976.81748,1152.4056 C 1010.1526,1140.2838 1084.9038,1155.436 1112.178,1167.5579 C 1139.4521,1179.6797 1208.8666,1167.5308 1241.4267,1207.423 C 1262.3004,1232.9971 1252.0745,1239.5622 1260.8066,1261.452 C 1268.04,1279.5847 1255.7503,1303.8932 1242.12,1307.9901 C 1227.1041,1312.5034 1223.2229,1318.0105 1198.1774,1321.1372 C 1166.1749,1325.1324 1119.6699,1318.5387 1091.9031,1304.9386 C 1042.4057,1280.6949 978.59228,1294.0758 949.66592,1250.6862 z"
       id="path3827"
       inkscape:connector-curvature="0"
       sodipodi:nodetypes="sssssssss" />
    <path
       style="fill:#ffddc7;fill-opacity:0.89473685;stroke:none"
       d="M 1396.9403,954.54076 C 1391.5764,945.88413 1393.5469,913.99983 1400.8429,900.18061 C 1403.1245,895.85907 1406.9342,892.40242 1408.4879,888.49307 C 1409.6462,885.57839 1408.8648,879.01726 1415.4096,873.13198 C 1421.4031,867.74238 1425.2918,866.51508 1427.3536,865.10384 C 1428.7542,864.14519 1433.7112,857.70258 1438.693,854.61869 C 1445.0132,850.70632 1447.4164,850.16717 1454.4441,846.84859 C 1457.8338,845.24791 1459.4142,843.5721 1464.1359,841.83863 C 1468.9312,840.07818 1473.8135,838.06179 1476.7241,837.85432 C 1483.6468,837.36084 1485.7838,848.49491 1477.5996,855.18373 C 1469.0823,862.14472 1463.8891,861.31128 1461.4801,863.12584 C 1459.8506,864.35323 1459.2281,866.92306 1457.2834,868.71638 C 1454.5165,871.26792 1450.3484,873.68331 1449.474,874.79284 C 1447.8073,876.90791 1447.9776,880.68399 1444.3668,884.52666 C 1442.0716,886.96932 1438.1116,889.77524 1438.5853,891.80372 C 1439.1137,894.06612 1454.8615,900.08794 1463.1502,907.97647 C 1475.5705,919.79706 1482.6434,931.59212 1480.9372,941.70501 C 1476.4983,968.01489 1463.9516,980.72016 1454.3357,983.06542 C 1434.902,987.80519 1406.6545,970.21833 1396.9403,954.54076 z"
       id="path3942"
       inkscape:connector-curvature="0"
       inkscape:transform-center-x="-0.6956055"
       inkscape:transform-center-y="-46.310575"
       sodipodi:nodetypes="sssssssssssssssssss" />
    <path
       style="fill:#ffddc7;fill-opacity:0.89411765;stroke:none"
       d="M 1433.6194,887.86574 C 1440.0807,879.70064 1449.7762,872.53632 1455.7355,868.99054 C 1460.0539,866.42123 1463.9682,863.64096 1469.861,860.92419 C 1473.3251,859.32712 1478.0888,858.68509 1481.4181,857.09067 C 1486.4331,854.6889 1490.5407,852.16341 1492.7811,851.29364 C 1495.6087,850.19576 1500.4214,850.53991 1501.9344,853.85252 C 1503.7694,857.87024 1501.5892,865.34568 1495.882,868.2569 C 1493.898,869.269 1490.4624,870.17705 1488.6786,871.42252 C 1485.5531,873.60485 1484.2232,876.21175 1481.1944,877.84984 C 1476.88,880.18326 1472.1434,880.85432 1469.6773,883.36042 C 1467.5905,885.48102 1466.6697,889.81563 1464.8894,893.7496 C 1462.2457,899.59111 1458.4221,904.94889 1451.8611,904.09766 C 1440.8817,902.67319 1431.5325,898.39907 1433.6194,887.86574 z"
       id="path3946"
       inkscape:connector-curvature="0"
       sodipodi:nodetypes="csssssssssssc" />
    <path
       style="fill:#ffe6d7;fill-opacity:0.89473685;stroke:none"
       d="M 1423.7854,976.647 C 1446.5786,978.34368 1450.9548,957.62938 1447.1106,945.39118 C 1443.3606,933.45332 1435.498,927.42165 1435.6725,924.81315 C 1435.833,922.41392 1439.2092,916.63904 1441.0711,912.64307 C 1442.8172,908.8954 1442.3222,904.1036 1443.0123,902.9453 C 1444.0398,901.22054 1447.5867,899.5418 1448.6338,892.43846 C 1449.436,886.9959 1448.3343,878.91884 1442.7428,876.51418 C 1434.2932,872.88017 1433.843,879.98458 1427.5973,891.10384 C 1425.1296,895.49681 1422.8828,898.32114 1421.8954,899.98924 C 1420.3311,902.63201 1416.9216,905.09968 1414.8431,907.92027 C 1412.8985,910.55922 1411.1713,913.42225 1407.2623,915.52131 C 1406.117,916.13632 1406.0478,919.5398 1403.6393,921.35826 C 1398.9434,924.9038 1396.2119,931.9162 1395.6393,937.21548 C 1393.6646,955.48822 1404.6824,975.225 1423.7854,976.647 z"
       id="path3944"
       inkscape:connector-curvature="0"
       sodipodi:nodetypes="ssssssssssssss" />
    <path
       style="fill:#ffddc7;fill-opacity:0.89411765;stroke:none"
       d="M 1453.2142,903.5715 C 1458.1711,898.21806 1462.0404,893.82163 1466.993,890.99962 C 1471.9595,888.16971 1475.5757,888.16122 1477.1237,887.44328 C 1478.6025,886.75743 1480.614,885.04999 1486.5571,883.81534 C 1491.0982,882.87194 1495.1331,883.54201 1496.7711,883.54189 C 1498.4892,883.54176 1500.2746,882.88158 1505.4128,882.55686 C 1509.1184,882.32267 1515.4629,882.58448 1515.1451,886.19004 C 1514.7794,890.33888 1511.0507,894.35453 1506.6964,895.89293 C 1500.5696,898.05759 1498.7914,896.89858 1496.6894,897.27485 C 1494.331,897.69703 1492.8371,899.92515 1489.4203,900.92523 C 1484.3168,902.41901 1481.7337,904.52009 1479.2857,907.14293 C 1474.2857,912.50007 1470.3571,917.50007 1463.9285,917.14293 C 1457.5,916.78578 1451.7857,908.5715 1453.2142,903.5715 z"
       id="path3948"
       inkscape:connector-curvature="0"
       sodipodi:nodetypes="csssssssssssc" />
    <path
       style="fill:#ffddc7;fill-opacity:0.89411765;stroke:none"
       d="M 1459.1622,921.15127 C 1459.9062,919.52518 1462.9707,915.58957 1466.1431,911.8424 C 1470.1466,907.11341 1474.43,905.1523 1475.754,904.08833 C 1477.1109,902.99795 1480.8077,900.045 1483.8038,898.97336 C 1487.2005,897.75845 1490.3695,896.92855 1491.4437,896.45283 C 1493.0478,895.74253 1495.8565,893.29485 1497.8469,892.78333 C 1502.4568,891.59859 1507.0641,890.41638 1508.5112,892.42305 C 1511.1731,896.11437 1509.693,902.20868 1504.6753,905.73107 C 1500.2025,908.87091 1494.949,910.17908 1493.3566,911.11461 C 1492.2119,911.78721 1491.4075,914.09577 1489.619,915.2935 C 1487.2523,916.8784 1483.7699,918.56908 1483.2921,919.12309 C 1482.0815,920.52656 1480.539,927.38375 1477.9451,931.02015 C 1471.168,940.52143 1453.5457,933.42567 1459.1622,921.15127 z"
       id="path3950"
       inkscape:connector-curvature="0"
       sodipodi:nodetypes="sssssssssssss"
       inkscape:transform-center-x="-16.249827"
       inkscape:transform-center-y="-16.277359" />
    <path
       style="fill:#ffddc7;fill-opacity:0.89411765;stroke:none"
       d="M 1353.6642,1319.6237 C 1432.0262,1224.9894 1507.6729,1156.0298 1560.7056,1152.0921 C 1582.0057,1150.5106 1596.3511,1144.4729 1608.1956,1147.2131 C 1649.7651,1156.8304 1684.5659,1217.946 1646.0162,1263.1172 C 1606.4495,1309.4801 1604.5736,1459.787 1459.2051,1518.0095 C 1372.3715,1552.7878 1276.5439,1412.7585 1353.6642,1319.6237 z"
       id="path3952"
       inkscape:connector-curvature="0"
       sodipodi:nodetypes="ssssss" />
    <path
       style="fill:#ffddc7;fill-opacity:0.89411765;stroke:none"
       d="M 1603.6828,1154.7217 C 1656.7597,1157.7838 1816.0809,1236.4513 1864.9569,1275.7457 C 1897.8061,1302.1552 1864.1874,1385.2056 1829.6523,1369.6812 C 1777.6951,1346.3251 1646.7879,1340.5898 1583.2854,1295.5006 C 1524.708,1253.9084 1549.7694,1151.6113 1603.6828,1154.7217 z"
       id="path3954"
       inkscape:connector-curvature="0"
       sodipodi:nodetypes="sssss" />
    <path
       style="fill:#ffddc7;fill-opacity:0.89411765;stroke:none"
       d="M 1881.8086,1400.3023 C 1868.8799,1395.566 1848.6011,1382.4603 1823.9334,1365.2686 C 1808.7005,1354.6522 1840.8913,1302.4066 1856.7237,1288.2924 C 1871.0061,1275.5602 1913.1065,1249.279 1924.8509,1243.363 C 1941.2531,1235.1008 1946.7847,1227.5029 1948.7734,1224.7587 C 1950.9695,1221.7284 1955.5664,1213.8016 1957.895,1206.688 C 1960.9265,1197.4269 1965.8945,1188.4582 1974.7539,1192.5387 C 1981.7683,1195.7694 1987.6147,1207.9912 1988.1196,1216.1232 C 1988.7424,1226.1514 1978.8017,1234.5203 1978.1435,1237.2405 C 1977.3734,1240.4231 1991.4828,1260.6087 1993.1913,1272.753 C 1994.611,1282.8443 1987.9461,1296.0687 1981.6927,1305.3555 C 1968.5088,1324.9346 1947.3461,1329.399 1942.2288,1349.1972 C 1936.6343,1370.8418 1914.0906,1412.1286 1881.8086,1400.3023 z"
       id="path3956"
       inkscape:connector-curvature="0"
       sodipodi:nodetypes="sssssssssssss" />
    <path
       style="fill:#ffe6d7;fill-opacity:0.89411765;stroke:none"
       d="M 1329.3607,1562.5275 C 1206.6206,1531.1289 1185.9191,1459.4919 1224.3048,1368.5782 C 1262.6906,1277.6645 1360.2895,1188.4721 1412.1933,1214.0249 C 1477.0738,1245.9662 1519.2694,1348.3751 1490.9851,1453.431 C 1468.6893,1536.244 1423.8386,1586.6963 1329.3607,1562.5275 z"
       id="path3966"
       inkscape:connector-curvature="0"
       sodipodi:nodetypes="sssss" />
    <path
       style="fill:#ffeee3;fill-opacity:0.89473685;stroke:none"
       d="M 1333.4013,1236.2483 C 1380.4105,1189.7446 1453.6095,1203.9233 1536.442,1263.5224 C 1615.8938,1320.689 1683.2932,1380.4225 1695.036,1396.8625 C 1705.1374,1411.0046 1670.7923,1479.695 1637.4573,1478.6848 C 1617.3094,1478.0743 1556.8097,1448.4272 1466.654,1432.4729 C 1414.8642,1423.308 1372.6193,1387.6377 1356.6348,1375.6493 C 1317.4013,1346.2242 1284.9817,1284.1472 1333.4013,1236.2483 z"
       id="path3968"
       inkscape:connector-curvature="0"
       sodipodi:nodetypes="sssssss" />
    <path
       style="fill:#ffeee3;fill-opacity:0.89473685;stroke:none"
       d="M 1632.6391,1494.2943 C 1646.2349,1510.6092 1673.6892,1547.8641 1707.711,1530.3045 C 1719.336,1524.3045 1733.3331,1509.888 1739.1535,1487.6899 C 1744.4195,1467.6062 1733.0761,1452.4967 1740.4097,1429.5668 C 1747.8986,1406.151 1685.8937,1409.3154 1670.8937,1410.744 C 1656.8693,1412.0797 1613.8685,1471.7697 1632.6391,1494.2943 z"
       id="path3970"
       inkscape:connector-curvature="0"
       sodipodi:nodetypes="ssssss" />
    <path
       style="fill:#ffeee3;fill-opacity:0.89473685;stroke:none"
       d="M 1641.2615,1418.1982 C 1655.0305,1387.6453 1719.8207,1349.8503 1739.1255,1370.216 C 1759.6307,1391.8481 1750.3121,1415.2067 1736.9573,1441.3092 C 1725.8456,1463.0274 1691.9098,1510.5364 1664.2262,1491.3117 C 1646.0435,1478.6848 1628.9758,1445.4598 1641.2615,1418.1982 z"
       id="path3972"
       inkscape:connector-curvature="0"
       sodipodi:nodetypes="sssss" />
    <path
       style="fill:#ffddc7;fill-opacity:0.89411765;stroke:none"
       d="M 1721.805,1398.8827 C 1707.4913,1395.4994 1703.8747,1375.3967 1706.9052,1362.7698 C 1709.9356,1350.1429 1722.8631,1346.5856 1734.6844,1353.6784 C 1746.0487,1360.4969 1746.686,1370.9027 1745.0385,1380.1949 C 1743.7479,1387.4743 1735.302,1402.0729 1721.805,1398.8827 z"
       id="path3974"
       inkscape:connector-curvature="0"
       sodipodi:nodetypes="sssss" />
    <path
       style="fill:#fdceb0;fill-opacity:0.89411765;stroke:none"
       d="M 1690.9953,1395.8523 C 1694.6849,1387.6049 1703.9238,1385.6622 1710.7388,1384.7966 C 1718.7334,1383.7812 1730.3344,1385.5663 1730.6005,1393.1378 C 1730.8762,1400.9845 1726.3694,1414.9014 1711.7035,1412.0148 C 1705.1195,1410.7189 1701.14,1414.3172 1696.8222,1412.6147 C 1690.6792,1410.1925 1688.1163,1402.2878 1690.9953,1395.8523 z"
       id="path3994"
       inkscape:connector-curvature="0"
       sodipodi:nodetypes="ssssss" />
    <path
       style="fill:#fec099;fill-opacity:0.89411765;stroke:none"
       d="M 1678.0725,1416.8829 C 1679.5167,1409.8061 1683.2509,1404.7871 1690.751,1402.4187 C 1694.1439,1401.3473 1712.0766,1399.2431 1713.9654,1406.1686 C 1715.5725,1412.0615 1712.7153,1426.3472 1701.8224,1425.9901 C 1695.031,1425.7674 1690.5112,1427.0309 1686.9398,1426.3166 C 1683.3683,1425.6023 1675.942,1427.3224 1678.0725,1416.8829 z"
       id="path3996"
       inkscape:connector-curvature="0"
       sodipodi:nodetypes="ssssss" />
    <path
       style="fill:#f7ac7d;fill-opacity:0.89411765;stroke:none;display:inline"
       d="M 1672.0983,1443.5081 C 1671.6211,1438.4357 1673.7181,1430.2841 1683.8197,1427.7587 C 1693.9212,1425.2334 1704.4231,1428.1032 1706.1909,1435.6794 C 1707.9587,1443.2555 1702.5286,1452.4138 1694.3216,1453.8621 C 1684.2022,1455.6478 1672.6299,1449.1582 1672.0983,1443.5081 z"
       id="path3998"
       inkscape:connector-curvature="0"
       sodipodi:nodetypes="sssss" />
    <path
       style="fill:#ff9550;fill-opacity:0.89411765;stroke:none;display:inline"
       d="M 1676.1136,1461.9694 C 1683.4804,1455.9875 1700.9952,1462.7843 1702.5266,1470.9738 C 1703.8907,1478.2688 1689.4567,1488.3148 1679.2181,1483.2246 C 1668.6217,1477.9566 1668.2669,1468.341 1676.1136,1461.9694 z"
       id="path4018"
       inkscape:connector-curvature="0"
       sodipodi:nodetypes="ssss" />
  </g>
  <g
     inkscape:groupmode="layer"
     id="layer5"
     inkscape:label="Mother's Hands"
     style="display:inline">
    <path
       style="fill:#ffd8ba;fill-opacity:0.92592594;stroke:none;display:inline"
       d="M 1388.0342,1605.4077 C 1382.945,1604.9136 1365.0518,1611.8448 1349.6507,1616.0531 C 1341.3616,1618.3181 1329.4122,1618.6892 1325.5205,1618.7333 C 1319.8659,1618.7973 1316.3536,1614.4045 1309.5909,1611.67 C 1295.8372,1606.1086 1279.8485,1597.3877 1273.158,1595.1846 C 1265.5076,1592.6655 1267.0726,1578.703 1284.1219,1579.8814 C 1292.3753,1580.4519 1295.7084,1583.0289 1301.8853,1585.3735 C 1306.3598,1587.072 1310.3575,1587.3165 1314.1314,1588.7916 C 1319.5774,1590.9203 1324.1473,1593.9714 1325.5671,1593.8751 C 1330.3321,1593.552 1336.9708,1588.5235 1345.0163,1584.7471 C 1354.5543,1580.2703 1365.4696,1577.1815 1368.9566,1577.2076 C 1381.7384,1577.3032 1407.7206,1607.3185 1388.0342,1605.4077 z"
       id="path3821"
       inkscape:connector-curvature="0"
       sodipodi:nodetypes="ssssssssssss" />
    <path
       style="fill:#ba5132;fill-opacity:0.81481479;stroke:none;display:inline"
       d="M 1038.3682,1413.2386 C 1038.3682,1470.045 1027.4286,1655.6475 973.77811,1655.6475 C 920.12755,1655.6475 900.10154,1532.8181 890.00001,1401.2604 C 885.65099,1344.6207 933.49235,1298.4032 987.14288,1298.4032 C 1040.7933,1298.4032 1038.3682,1356.4322 1038.3682,1413.2386 z"
       id="path3783"
       inkscape:connector-curvature="0"
       sodipodi:nodetypes="sssss" />
    <path
       style="fill:#ffd8ba;fill-opacity:0.92592594;stroke:none;display:inline"
       d="M 1233.0696,1279.6784 C 1228.1731,1277.3401 1222.8704,1277.7285 1214.6974,1277.9735 C 1206.9493,1278.206 1199.4249,1280.3779 1187.8452,1282.1715 C 1179.2416,1283.5041 1172.2941,1282.3633 1163.7938,1284.0334 C 1156.031,1285.5586 1147.4082,1288.9548 1135.3788,1291.6964 C 1126.2545,1293.7761 1119.5435,1292.5721 1111.4634,1293.1875 C 1101.7436,1293.9277 1093.6638,1295.3341 1091.4119,1294.9775 C 1089.1586,1294.6208 1088.3902,1293.2345 1088.7042,1291.5662 C 1090.009,1284.6343 1098.6989,1280.0284 1105.98,1271.3291 C 1106.4303,1270.7909 1106.5202,1269.9266 1106.972,1269.3888 C 1107.4361,1268.8362 1108.025,1268.6177 1108.7253,1268.0579 C 1110.8411,1266.3673 1117.734,1260.5862 1122.6624,1251.2866 C 1126.3685,1244.2932 1127.2921,1236.4898 1123.255,1230.8193 C 1121.6102,1228.5091 1119.3356,1226.4892 1113.1287,1231.729 C 1108.6512,1235.5088 1102.816,1239.8807 1098.9992,1242.1085 C 1095.1645,1244.3468 1090.6715,1245.4546 1086.284,1248.2497 C 1083.6068,1249.9553 1080.6322,1254.0822 1077.7996,1255.9587 C 1068.6738,1262.0043 1061.2367,1267.1354 1052.6062,1273.2726 C 1046.5568,1277.5743 1043.7882,1277.2302 1037.8765,1281.6562 C 1034.1909,1284.4155 1031.4129,1291.2037 1027.6453,1294.1191 C 1018.7973,1300.9654 1010.8851,1307.8899 1005.4757,1314.2025 C 1001.6394,1318.6794 999.17258,1324.3185 997.53602,1324.4833 C 995.92716,1324.6454 987.80658,1315.7791 976.76136,1318.7005 C 957.8159,1323.7114 946.33612,1340.3235 948.2146,1355.9893 C 951.46357,1383.084 971.78883,1420.6216 987.42086,1430.8569 C 999.76653,1438.9405 1007.9629,1434.6988 1009.2972,1435.6006 C 1010.3343,1436.3012 1018.5671,1440.6921 1033.6165,1445.9084 C 1047.1558,1450.6013 1072.9701,1454.2329 1094.9515,1451.6261 C 1099.3609,1451.1032 1108.0005,1453.0821 1111.0757,1452.6733 C 1116.4157,1451.9637 1117.8135,1451.6479 1124.8153,1454.7708 C 1132.1653,1458.0492 1142.8611,1460.9634 1152.2205,1461.7232 C 1156.9563,1462.1078 1163.0621,1464.5876 1167.8193,1464.8387 C 1174.7111,1465.2029 1181.9362,1464.5535 1188.3018,1464.5193 C 1194.4743,1464.4859 1200.2336,1462.7077 1205.2853,1462.1699 C 1209.9599,1461.6724 1213.2604,1460.9347 1217.2295,1459.8959 C 1223.5836,1458.2332 1223.3692,1450.3229 1219.473,1446.4955 C 1215.9409,1443.0258 1209.0969,1440.7612 1203.1138,1440.4986 C 1196.0218,1440.1874 1191.3506,1441.1507 1188.0738,1440.7086 C 1185.0284,1440.2976 1180.0433,1438.1742 1176.0025,1437.9136 C 1170.4268,1437.554 1164.1179,1436.7823 1160.4132,1434.5382 C 1154.3577,1430.8701 1148.6357,1428.2059 1143.3436,1426.9565 C 1141.269,1426.4667 1140.3505,1422.758 1142.8118,1421.4799 C 1147.6962,1418.9435 1156.5176,1419.5692 1167.2411,1418.2475 C 1175.5875,1417.2187 1182.0488,1414.32 1186.7005,1413.7962 C 1189.6995,1413.4586 1193.6616,1414.2267 1200.3102,1412.8647 C 1206.1829,1411.6614 1214.854,1403.7153 1221.1689,1400.711 C 1231.6602,1395.7196 1243.3862,1388.0274 1249.2534,1384.2496 C 1258.0006,1378.6175 1255.0785,1368.0724 1246.9449,1365.5007 C 1239.6616,1363.1977 1235.2948,1363.5492 1229.0661,1365.4907 C 1223.0557,1367.3643 1217.2123,1369.0696 1211.955,1371.8201 C 1206.6598,1374.5905 1199.3324,1379.1434 1195.6112,1379.5078 C 1190.6296,1379.9957 1183.204,1378.058 1170.2311,1378.977 C 1158.0206,1379.8421 1151.2066,1380.2722 1147.9503,1379.5798 C 1145.7893,1379.1203 1145.6206,1377.9329 1147.1937,1377.283 C 1151.4918,1375.5078 1156.0308,1374.6601 1166.2236,1372.7942 C 1175.304,1371.1321 1184.6614,1373.7397 1196.759,1371.3179 C 1205.6549,1369.5371 1213.5268,1365.0671 1222.4275,1363.6968 C 1226.4802,1363.0727 1232.844,1359.9689 1240.4954,1358.0119 C 1248.9699,1355.8444 1258.1846,1354.723 1263.2007,1350.2724 C 1268.6759,1345.4144 1268.9165,1335.5361 1261.4762,1332.3604 C 1253.1232,1328.7949 1244.886,1328.6178 1235.8321,1329.4659 C 1227.4036,1330.2554 1224.2236,1331.3477 1215.3344,1332.4995 C 1208.2401,1333.4185 1201.3168,1332.7834 1194.8352,1333.3763 C 1192.5238,1333.5877 1188.8918,1333.9159 1186.6733,1333.9943 C 1178.9261,1334.2684 1172.9574,1333.6938 1164.8247,1333.7661 C 1155.086,1333.8528 1146.2141,1335.818 1141.4634,1334.0607 C 1138.6845,1333.0328 1140.8392,1330.0629 1142.4696,1328.7312 C 1145.2252,1326.4807 1152.098,1323.122 1159.7513,1322.2379 C 1166.6879,1321.4365 1173.8628,1318.952 1177.2579,1317.5104 C 1182.9965,1315.0737 1192.0369,1311.8566 1196.6431,1310.8029 C 1204.383,1309.0323 1209.1097,1308.741 1218.0697,1306.1583 C 1225.3749,1304.0525 1232.331,1301.9767 1237.5413,1296.0077 C 1241.072,1291.9628 1239.7404,1282.8642 1233.0696,1279.6784 z"
       id="path3765"
       inkscape:connector-curvature="0"
       sodipodi:nodetypes="sssssssssssssssssssssssssssssssssssssssssssssssssssssssssssssssssssssssss" />
    <path
       style="fill:#ffd8ba;fill-opacity:0.92592594;stroke:none;display:inline"
       d="M 1362.3215,1579.6429 C 1352.512,1577.6003 1337.3337,1577.6119 1323.9875,1575.9542 C 1315.3862,1574.8859 1307.4969,1571.7793 1300.4193,1569.9395 C 1295.9155,1568.7688 1291.2091,1568.7487 1288.5714,1568.0358 C 1284.5932,1566.9606 1280.6248,1561.2955 1275.1604,1556.0906 C 1268.9786,1550.2023 1261.132,1544.4531 1253.8117,1538.2862 C 1246.1092,1531.7975 1238.2203,1528.2442 1236.4285,1526.9644 C 1232.4757,1524.141 1237.4999,1511.0715 1251.4285,1515.7143 C 1265.3571,1520.3572 1286.4286,1538.5715 1300,1540.7143 C 1313.5714,1542.8572 1342.3214,1543.3929 1352.5,1548.9286 C 1359.0286,1552.4792 1376.7248,1582.6421 1362.3215,1579.6429 z"
       id="path3818"
       inkscape:connector-curvature="0"
       sodipodi:nodetypes="sssssssssss" />
    <path
       style="fill:#ffd8ba;fill-opacity:0.92592594;stroke:none;display:inline"
       d="M 1345.2525,1515.8802 C 1339.9983,1515.0998 1330.0316,1514.5966 1319.8366,1512.8582 C 1308.8647,1510.9873 1297.4558,1509.1482 1293.9739,1508.6036 C 1289.6513,1507.9275 1282.6174,1504.2828 1274.4319,1501.0937 C 1265.103,1497.4591 1254.5804,1494.19 1250.1838,1492.5972 C 1232.4118,1486.1585 1208.2143,1500.3571 1229.2857,1511.4286 C 1235.5961,1514.7443 1250.4993,1521.3832 1264.4769,1528.6519 C 1271.9399,1532.5329 1276.9726,1537.4961 1285.1095,1540.2217 C 1291.4879,1542.3583 1297.5806,1542.2661 1303.3411,1543.6221 C 1311.4626,1545.5339 1318.1662,1549.4036 1324.8364,1550.8095 C 1333.8406,1552.7074 1342.1611,1551.9846 1347.9617,1553.4922 C 1361.1149,1556.9109 1356.8243,1517.5989 1345.2525,1515.8802 z"
       id="path3815"
       inkscape:connector-curvature="0"
       sodipodi:nodetypes="ssssssssssss" />
    <path
       style="fill:#ffd8ba;fill-opacity:0.92592594;stroke:none;display:inline"
       d="M 1564.7813,1494.5094 C 1568.426,1501.7886 1569.8879,1520.4942 1568.4916,1539.852 C 1567.0028,1560.4921 1564.3211,1573.4065 1554.1732,1580.9369 C 1540.5288,1591.0619 1521.3215,1584.5935 1515.0552,1585.3069 C 1509.0473,1585.9909 1486.8322,1600.2 1456.6392,1604.2205 C 1436.8777,1606.8519 1419.0539,1603.8267 1407.1422,1603.8862 C 1401.3437,1603.9152 1397.1831,1607.8295 1392.0608,1606.8552 C 1385.8084,1605.666 1382.2773,1604.347 1376.7869,1601.0418 C 1371.0472,1597.5864 1359.0612,1574.7805 1354.729,1555.7082 C 1351.4574,1541.305 1341.3521,1532.0232 1337.0017,1519.5789 C 1335.6194,1515.6248 1328.217,1514.7469 1308.6016,1507.9342 C 1293.9314,1502.8391 1284.2662,1502.0854 1275.9967,1499.6479 C 1267.5685,1497.1636 1253.3421,1487.2423 1246.3481,1485.4698 C 1236.4623,1482.9645 1222.1525,1479.7932 1224.0079,1470.4957 C 1226.2196,1459.413 1239.0754,1458.739 1252.8555,1460.3704 C 1261.0053,1461.3352 1270.9359,1464.7665 1281.4773,1467.059 C 1293.3562,1469.6423 1308.2002,1476.1469 1325.1777,1478.0432 C 1335.7196,1479.2208 1347.7424,1478.57 1358.3911,1478.6162 C 1367.8337,1478.6571 1377.703,1480.7154 1385.8233,1479.1124 C 1392.7388,1477.7472 1404.1697,1474.4837 1408.6839,1472.9407 C 1411.1435,1472.1 1410.7642,1470.5084 1409.2544,1470.1777 C 1406.4307,1469.5594 1399.654,1470.2923 1394.2895,1469.4 C 1390.7062,1468.804 1386.7823,1467.6977 1383.8386,1467.6419 C 1378.6955,1467.5445 1372.2778,1468.1327 1367.3456,1467.461 C 1353.2183,1465.537 1337.0068,1458.8161 1337.6996,1445.619 C 1338.1114,1437.7729 1351.4784,1437.8547 1365.9076,1437.2326 C 1370.6061,1437.03 1375.9324,1438.1236 1379.7598,1437.6671 C 1383.397,1437.2333 1387.8578,1434.7014 1392.2297,1434.3604 C 1396.0697,1434.0608 1398.1513,1435.1758 1401.4354,1434.7723 C 1405.4272,1434.2817 1414.8674,1434.3151 1425.8126,1433.3143 C 1437.2445,1432.2691 1448.2366,1434.1443 1455.9814,1435.2339 C 1459.5936,1435.7421 1462.7612,1435.4188 1464.4624,1435.7477 C 1471.505,1437.109 1475.8123,1443.0463 1482.0717,1445.3821 C 1492.8769,1449.4143 1505.5606,1456.6354 1513.6298,1468.3831 C 1517.2308,1473.6255 1521.4727,1480.7289 1524.0541,1482.4685 C 1527.6855,1484.9157 1535.7424,1482.5 1544.5384,1483.6154 C 1553.6625,1484.7723 1561.5424,1488.0407 1564.7813,1494.5094 z"
       id="path3768"
       inkscape:connector-curvature="0"
       sodipodi:nodetypes="sssssssssssssssssssssssssssssssssssss" />
  </g>
</svg>
