<?xml version="1.0" encoding="UTF-8" standalone="no"?>
<!-- Created with Inkscape (http://www.inkscape.org/) -->

<svg
   xmlns:dc="http://purl.org/dc/elements/1.1/"
   xmlns:cc="http://creativecommons.org/ns#"
   xmlns:rdf="http://www.w3.org/1999/02/22-rdf-syntax-ns#"
   xmlns:svg="http://www.w3.org/2000/svg"
   xmlns="http://www.w3.org/2000/svg"
   xmlns:sodipodi="http://sodipodi.sourceforge.net/DTD/sodipodi-0.dtd"
   xmlns:inkscape="http://www.inkscape.org/namespaces/inkscape"
   width="2500"
   height="3500"
   id="svg2"
   version="1.1"
   inkscape:version="0.48.4 r9939"
   sodipodi:docname="Madonna SVG 01-003.svg">
  <defs
     id="defs4" />
  <sodipodi:namedview
     id="base"
     pagecolor="#ffffff"
     bordercolor="#666666"
     borderopacity="1.0"
     inkscape:pageopacity="0.0"
     inkscape:pageshadow="2"
     inkscape:zoom="0.12374369"
     inkscape:cx="863.24948"
     inkscape:cy="2118.0645"
     inkscape:document-units="px"
     inkscape:current-layer="layer2"
     showgrid="false"
     borderlayer="true"
     inkscape:window-width="1537"
     inkscape:window-height="878"
     inkscape:window-x="-8"
     inkscape:window-y="-8"
     inkscape:window-maximized="1" />
  <metadata
     id="metadata7">
    <rdf:RDF>
      <cc:Work
         rdf:about="">
        <dc:format>image/svg+xml</dc:format>
        <dc:type
           rdf:resource="http://purl.org/dc/dcmitype/StillImage" />
        <dc:title></dc:title>
      </cc:Work>
    </rdf:RDF>
  </metadata>
  <g
     inkscape:label="Base"
     inkscape:groupmode="layer"
     id="layer1"
     transform="translate(0,2447.6378)"
     sodipodi:insensitive="true">
    <rect
       style="fill:#fff8cd;fill-opacity:1;fill-rule:evenodd;stroke:none"
       id="rect3753"
       width="2500"
       height="3500"
       x="0"
       y="-2447.6377" />
  </g>
  <g
     inkscape:groupmode="layer"
     id="layer3"
     inkscape:label="Background">
    <path
       style="fill:#81a991;fill-opacity:0.47089945;stroke:none"
       d="m 4463.7746,2048.8263 c 0,544.5023 -622.3106,985.9088 -1389.9698,985.9088 -767.659,0 -1389.9697,-441.4065 -1389.9697,-985.9088 0,-544.5025 622.3107,-985.9089 1389.9697,-985.9089 767.6592,0 1389.9698,441.4064 1389.9698,985.9089 z"
       id="path3794"
       inkscape:connector-curvature="0" />
    <path
       style="fill:#735745;fill-opacity:0.91005291;stroke:none"
       d="m 2226.3762,1396.8625 c -24.2437,456.1073 49.0513,727.8211 -16.1984,975.7979 -20.5213,77.9898 -83.9619,68.2869 -109.0605,60.6186 -31.2147,-9.5371 -40.6719,-24.6948 -14.0162,-101.1319 42.49,-121.8431 78.666,-446.5976 74.6254,-939.3252 -0.8036,-97.9934 -27.394,-803.967 -25.5168,-1444.54903 1.0973,-374.43349 -2.774,-597.97937 13.395,-597.97937 16.2065,0 39.7267,257.7703 35.1231,634.42194 -7.5923,621.19276 46.8418,1314.44156 41.6484,1412.14706 z"
       id="path3800"
       inkscape:connector-curvature="0"
       sodipodi:nodetypes="sssssssss" />
    <path
       inkscape:connector-curvature="0"
       id="path3791"
       d="m 1677.2098,2216.165 c 0,544.5023 -1034.77241,985.9088 -2311.22884,985.9088 -1276.45636,0 -2311.22886,-441.4065 -2311.22886,-985.9088 0,-544.5025 1034.7725,-985.9089 2311.22886,-985.9089 1276.45643,0 2311.22884,441.4064 2311.22884,985.9089 z"
       style="fill:#81a991;fill-opacity:0.47089945;stroke:none" />
    <path
       style="fill:#566f4b;fill-opacity:0.88359791;stroke:none"
       d="m 3515.3307,3265.6447 c 0,544.5023 -1065.5262,985.9088 -2379.9193,985.9088 -1314.3931,0 -2379.9192,-441.4065 -2379.9192,-985.9088 0,-544.5025 1065.5261,-985.9089 2379.9192,-985.9089 1314.3931,0 2379.9193,441.4064 2379.9193,985.9089 z"
       id="path3788"
       inkscape:connector-curvature="0" />
    <path
       style="fill:#764d2a;fill-opacity:0.89417988;stroke:none"
       d="m 377.14285,2008.5715 c 21.36531,286.9126 -45.82414,487.8795 -237.05875,542.2828 -845.89444,240.644 -351.35928,-238.6137 -381.47062,-784.8877 C -252.64578,1561.7033 -536.13284,851.84756 -549.95439,113.97684 -562.17095,-538.211 -317.74996,-1238.8029 -152.89919,-1248.1771 19.556531,-1257.9837 93.424109,-382.0079 79.158453,300.79034 63.877329,1032.192 327.61861,1343.5153 377.14285,2008.5715 z"
       id="path3797"
       inkscape:connector-curvature="0"
       sodipodi:nodetypes="sssssss" />
    <path
       transform="translate(1398.0511,-8.0812622)"
       style="fill:#999999;fill-opacity:0.8888889;stroke:none"
       d="M 1026.315,3742.4367 C 776.68032,4142.5247 567.62748,3219.4459 -92.934038,3047.4518 -692.99123,2891.2115 -1752.8041,2799.001 -1737.4623,2602.9846 c 24.2436,-309.7528 817.68334,-878.8617 2153.64513,-622.2539 869.65387,167.0407 1096.26027,982.5912 610.13217,1761.706 z"
       id="path3766"
       inkscape:connector-curvature="0"
       sodipodi:nodetypes="sssss" />
    <path
       style="fill:#48496c;fill-opacity:0.86243388;stroke:none"
       d="m 2185.9701,2083.7661 c 46.7525,25.2852 -101.9032,44.8315 -112.7415,94.5911 -28.2916,129.8889 121.2434,183.2956 203.6552,485.2364 27.7582,101.7005 -466.6904,103.6224 -668.7209,187.8884 -153.4399,63.9991 22.2237,-1250.1191 171.7259,-1218.2438 132.6593,28.2842 128.5882,300.4512 406.0813,450.5279 z"
       id="path3817"
       inkscape:connector-curvature="0"
       sodipodi:nodetypes="ssssss" />
  </g>
  <g
     inkscape:groupmode="layer"
     id="layer2"
     inkscape:label="Madonna">
    <path
       style="fill:#7e4e30;fill-opacity:0.81481479;stroke:none"
       d="m 1630.0666,653.06019 c -64.7982,187.60593 -198.5221,67.65245 -356.1275,91.32703 -161.3939,24.24366 -182.5105,-105.82584 -165.3676,-210.10151 7.6765,-46.69441 -20.913,-56.19013 -31.9239,-97.76834 -17.0188,-64.26475 -12.7434,-157.63605 80.1507,-175.19022 40.1369,-7.58465 78.1502,-32.6234 127.4874,-39.89858 120.8564,-17.82127 169.2761,57.97431 269.907,133.94525 84.8485,64.05606 113.522,188.6865 75.8739,297.68637 z"
       id="path3780"
       inkscape:connector-curvature="0"
       sodipodi:nodetypes="ssssssss" />
    <path
       style="fill:#ffd8ba;fill-opacity:0.82010582;stroke:none"
       d="m 1032.5626,2743.3945 c -74.73026,65.2786 -61.25239,150.1375 -80.91072,183.8785 -19.5719,33.5926 -39.35777,50.388 -79.19952,54.2643 -38.04671,3.7017 -39.50283,-32.4526 -14.29811,-72.5055 20.91071,-33.2293 7.04935,-110.4512 11.2973,-157.0637 4.19949,-46.0808 2.20967,-110.5046 35.91328,-135.7686 64.89382,-48.644 186.19077,-22.7379 194.96317,40.6832 4.8336,34.945 -56.1569,76.3715 -67.7654,86.5118 z"
       id="path3771"
       inkscape:connector-curvature="0"
       sodipodi:nodetypes="ssssssss" />
    <path
       style="fill:#ffdebd;fill-opacity:0.84126988;stroke:none"
       d="m 1397.8229,3112.7985 c -5.4509,26.8261 -8.6156,43.4171 -18.1788,54.4453 -21.3014,24.5645 -56.7521,18.2677 -95.2681,12.8999 -8.5273,-1.1884 -10.6193,-32.805 -17.7513,-33.4024 -13.0314,-1.0913 -2.6622,27.5211 -40.4362,22.8864 -23.9307,-2.9363 -18.5954,-34.1344 -12.2092,-79.9581 11.2429,-80.6726 29.0222,-71.8815 84.83,-64.1039 55.8077,7.7776 111.9752,23.4439 99.0136,87.2328 z"
       id="path3793"
       inkscape:connector-curvature="0"
       sodipodi:nodetypes="ssssssss" />
    <path
       style="fill:#48496c;fill-opacity:0.86243388;stroke:none"
       d="m 679.99999,2144.2858 c 0,131.7594 -24.71418,447.0096 -157.14285,395.7143 -199.15893,-77.1429 -334.28571,38.9023 -334.28571,-92.8571 0,-74.6232 96.05305,-263.5974 245.34987,-364.6774 71.04401,-48.0996 -84.1959,-50.9701 -23.67854,-87.0447 131.69529,-78.504 237.66403,-86.8493 286.90009,-86.8493 142.01607,0 -17.14286,103.9549 -17.14286,235.7142 z"
       id="path3814"
       inkscape:connector-curvature="0"
       sodipodi:nodetypes="sssssss" />
    <path
       style="fill:#2c2a5c;fill-opacity:0.81481479;stroke:none"
       d="m 2011.0102,1259.9343 c -10.0086,185.4341 -61.5628,318.5985 -165.9402,386.8142 23.2031,82.6196 117.8025,245.0969 36.1108,401.3776 -14.4604,27.6635 -105.4364,190.5049 -126.4552,261.7774 -33.3685,113.1488 -42.8849,449.5303 -23.5339,632.8115 11.766,111.4398 -89.6934,-26.5753 -70.744,71.5932 22.0693,114.3313 -36.5672,59.6017 -152.6044,72.5459 -124.3038,13.8665 -166.3765,-18.0132 -326.2794,-86.6603 -60.7216,-26.068 -74.4816,-136.924 -75.6182,-197.8002 -2.2438,-120.1805 -41.005,-153.3669 -132.91795,-87.3639 -57.66064,41.4063 -111.17538,112.6828 -218.46735,56.3516 -74.52575,-39.128 -364.40002,113.4695 -347.40393,-0.4165 30.62686,-205.2219 123.54785,-508.635 114.66719,-705.2381 -1.51286,-33.4921 -33.10221,-173.968 -20.39032,-205.1422 26.50502,-65 94.28333,-95.7674 229.58288,-166.063 61.55765,-31.9826 139.68803,-77.9383 314.37458,-116.0599 4.6448,-24.1817 26.9911,-52.2228 22.7373,-87.7943 -134.16175,123.4536 -314.75767,-165.6079 -320.54686,-275.5284 -3.48596,-66.1887 -17.85546,-109.2879 31.25163,-143.1698 41.18763,-28.4177 15.53378,-74.39517 84.2492,-95.1732 121.14566,-36.63178 197.57133,-208.53193 289.76123,-232.73322 147.9393,-38.83639 184.3631,-87.73966 298.8132,-78.12723 133.5825,11.21931 217.1896,79.53714 245.8839,92.86425 98.4569,45.72845 214.1266,232.2992 258.79,399.1647 15.7921,59.0004 57.4075,51.4334 54.6798,101.9699 z"
       id="path3756"
       inkscape:connector-curvature="0"
       sodipodi:nodetypes="scsssssssssssssccssssssss" />
    <path
       style="fill:#d7624b;fill-opacity:0.88359794;stroke:none"
       d="m 1686.9548,895.82674 c 3.6827,55.83537 91.8509,447.37846 -200.7424,678.88986 -138.2739,109.4078 -94.481,69.6782 -224.4179,125.8602 -71.6527,30.9811 15.5006,-141.8088 -45.1903,-245.1322 -70.5416,-120.094 -129.6801,-479.25898 -129.6801,-545.47572 0,-120.50464 180.1844,-210.11173 355.5737,-216.17265 177.3038,-6.12707 236.5263,81.78713 244.457,202.03051 z"
       id="path3777"
       inkscape:connector-curvature="0"
       sodipodi:nodetypes="sssssss" />
    <path
       style="fill:#ffd8ba;fill-opacity:0.82010582;stroke:none"
       d="m 1371.5909,399.97807 c 16.3962,22.79706 29.6326,-13.99655 53.7261,-0.69147 26.9906,14.90493 29.0228,67.74498 21.2634,94.14717 -5.0609,17.22041 -19.1012,11.37699 -25.2556,19.45556 -2.0786,2.72843 6.8465,26.47407 8.7294,33.56711 11.1711,42.08431 48.7634,103.07095 59.5681,117.22368 7.4454,9.75247 38.5406,29.83752 68.7728,46.35378 35.4437,19.36336 69.3229,36.28031 56.8614,62.64303 -37.3769,79.07206 -346.4018,58.05831 -384.7196,23.70949 -25.9384,-23.25175 20.0533,-37.58577 46.765,-69.80813 17.7317,-21.38988 42.4314,-43.06983 42.8132,-47.42069 0.6776,-7.72243 -8.7706,-22.55266 -14.9903,-26.52897 -10.3296,5.55487 -29.0677,9.6363 -41.8601,15.27301 -12.1895,5.37106 -31.5354,1.06166 -43.2741,-10.08688 -9.1997,-8.73726 -30.485,-31.08212 -46.0008,-52.54073 -15.0868,-20.86527 -29.3626,-49.412 -33.126,-75.87356 -3.4458,-24.22896 -20.0128,-33.7627 -25.9251,-61.47412 -10.619,-49.77202 -6.3516,-92.59889 12.6304,-118.03693 11.0269,-14.77733 26.3502,-23.35196 48.3525,-24.88473 21.6903,-1.51103 57.6075,16.59844 91.8907,25.57412 39.9125,10.4495 78.5077,14.26294 103.7786,49.39926 z"
       id="path3759"
       inkscape:connector-curvature="0"
       sodipodi:nodetypes="ssssssssssscsssssssss" />
    <path
       style="fill:#ffd8ba;fill-opacity:0.92592594;stroke:none"
       d="m 1169.6701,895.74179 c 3.0305,20.80722 -8.1832,45.48088 -22.2666,67.6463 -10.3314,16.26044 -1.4691,23.52793 35.0438,12.96879 36.4211,-10.53264 92.9403,33.32632 123.289,23.71692 28.3276,-8.96953 28.4268,-49.79574 38.4239,-94.8467 6.3178,-28.47034 8.8284,-75.61907 22.4413,-88.02112 23.1459,-21.08718 118.9286,13.406 117.866,42.1411 -2.841,76.82781 -98.3977,125.86347 -71.4879,170.15882 28.0234,46.128 63.628,-5.3892 117.5222,1.9044 34.0679,4.6105 104.3725,49.7785 174.5559,64.0928 42.1191,8.5904 95.5705,-54.6019 121.7482,-41.0272 36.0267,18.6821 4.1154,101.6631 0.3145,108.0148 -19.2995,32.2519 -37.7292,36.2112 -74.8875,34.0628 -29.5973,-1.7112 -8.5319,14.7563 -48.2034,37.757 -57.8608,33.5465 -131.3928,-6.5085 -160.5459,32.992 -40.4302,54.7802 -61.155,67.6545 -135.9147,75.7677 -145.314,15.7701 -218.3687,-38.5462 -293.7876,-123.7901 -49.8585,-56.3537 -45.3309,-115.4852 -61.2905,-154.8088 -12.2383,-30.1546 -106.8694,7.4463 -151.05484,-16.1135 -70.99461,-37.8547 -62.43381,-123.20554 -39.31017,-180.36444 24.90472,-61.56149 121.39263,-116.64624 189.61381,-73.99559 48.0831,30.06076 108.3595,36.02904 117.9305,101.74402 z"
       id="path3762"
       inkscape:connector-curvature="0"
       sodipodi:nodetypes="ssssssssssssssssssssss" />
    <path
       style="fill:#ba5132;fill-opacity:0.81481479;stroke:none"
       d="m 1102.8571,1274.2857 c 0,56.8064 19.3649,142.8571 -34.2856,142.8571 -53.6506,0 -134.28577,-71.7649 -134.28577,-128.5713 0,-56.8064 43.49234,-102.8572 97.14287,-102.8572 53.6505,0 71.4285,31.765 71.4285,88.5714 z"
       id="path3783"
       inkscape:connector-curvature="0"
       sodipodi:nodetypes="sssss"
       transform="translate(-37.142857,-40)" />
    <path
       style="fill:#c78b5c;fill-opacity:0.88359794;stroke:none"
       d="m 1452.8572,844.28571 c 0,54.4395 -34.2814,84.28572 -87.1429,84.28572 -52.8615,0 -77.8962,-43.27905 -75.7143,-77.14286 1.9957,-30.97476 31.0238,-46.38693 55.1449,-60.94354 14.149,-8.53869 22.8616,-23.34217 33.4265,-23.34217 17.6487,0 18.9359,13.48151 29.9488,18.24253 21.9731,9.49928 44.337,22.63629 44.337,58.90032 z"
       id="path3774"
       inkscape:connector-curvature="0"
       sodipodi:nodetypes="sssssss" />
    <path
       style="fill:#bd482d;fill-opacity:0.7037037;stroke:none"
       d="m 1424.2857,850.7143 c 0,22.48588 -52.3647,55.00001 -76.4285,55.00001 -24.0638,0 -46.4286,-26.79984 -46.4286,-49.28572 0,-22.48588 48.0791,-69.28572 72.1429,-69.28572 24.0638,0 50.7142,41.08555 50.7142,63.57143 z"
       id="path3796"
       inkscape:connector-curvature="0"
       sodipodi:nodetypes="sssss" />
    <path
       style="fill:#f5dcc9;fill-opacity:0.92592594;stroke:none"
       d="m 1895.0462,1228.167 c -273.8295,37.7437 -441.692,301.6268 -628.1655,250.9776 -70.0927,-19.0383 -217.1957,-186.0076 -241.5759,-205.5207 -36.24787,-29.0116 -81.00014,-196.008 -47.47711,-209.1016 34.30371,-13.3985 66.81491,-53.4742 132.32991,-45.4569 38.4452,4.7047 126.7445,25.5449 131.2963,103.792 4.3239,74.3295 70.106,132.4365 120.3855,124.2795 54.1552,-8.7857 205.9148,23.8702 371.5217,-57.6269 57.6722,-28.3811 159.2499,-24.3866 197.8032,-2.327 20.2254,11.5726 29.7707,31.9021 -36.1181,40.984 z"
       id="path3043"
       inkscape:connector-curvature="0"
       sodipodi:nodetypes="ssssssssss" />
    <path
       style="fill:#dfb696;fill-opacity:1;stroke:none"
       d="m 1123.8125,1042.9375 c -14.3736,-0.1738 -43.4701,28.4065 -59.9063,42.0313 -15.9724,13.2402 -36.3687,25.8079 -57.5937,43.4687 -6.32666,-13.7275 0.8208,-55.5937 -6.65625,-55.5937 -8.64989,0 -46.22431,90.2206 -51.21875,121.6874 -0.28835,0.4652 -0.58769,0.9054 -0.875,1.375 -27.903,45.6086 -37.04881,66.5449 27.375,83.5938 31.7217,8.3948 104.3114,-30.7135 130.125,-37.3125 15.5062,-3.964 132.8433,-3.8876 126.25,-17.75 -7.7525,-16.2996 -98.5945,-3.9957 -99.5727,-27.6164 -0.4327,-10.4436 96.4229,-68.8794 85.3227,-85.5399 -9.9801,-14.9793 -92.2596,47.7305 -92.6875,35.5626 -0.2737,-7.7825 89.4352,-38.5469 80.6875,-56.8438 -6.3811,-13.3469 -116.6822,40.5162 -115.3734,19.7812 1.262,-19.9929 51.8766,-52.707 39.2797,-64.875 -1.3728,-1.3259 -3.1029,-1.9439 -5.1563,-1.9687 z"
       id="path3765"
       inkscape:connector-curvature="0"
       sodipodi:nodetypes="cscsccssscsssscc" />
    <path
       style="fill:#ba5132;fill-opacity:0.81481479;stroke:none"
       d="m 1612.9289,1386.0435 c 3.8124,36.5168 6.2077,83.2878 4.307,117.5117 -3.4083,61.3695 -22.5076,11.5755 -55.2664,6.7914 -18.2132,-2.6598 -22.8766,3.9793 -23.7855,-7.9718 -1.5217,-20.0084 -3.7439,-22.8627 -0.2884,-54.1922 3.6853,-33.4129 -2.8725,-69.8431 24.1246,-70.9506 26.7897,-1.0989 45.8579,-39.5671 50.9087,8.8115 z"
       id="path3786"
       inkscape:connector-curvature="0"
       sodipodi:nodetypes="sssssss" />
    <path
       style="fill:#dfb696;fill-opacity:1;stroke:none"
       d="m 1564.7813,1397.5348 c 7.5308,15.0405 2.1472,78.934 -13.8224,97.4989 -4.7159,5.4822 -24.5178,0.018 -43.0466,8.2986 -38.2146,17.0784 -83.6713,29.522 -131.4784,30.5684 -17.9314,6.2254 -104.4585,7.4068 -105.9665,-12.492 -0.8964,-11.8268 70.5234,-6.1954 72.8776,-12.5795 2.6749,-7.2539 -41.5933,-17.5239 -69.1612,-35.0979 -22.0103,-14.0311 -44.2026,-25.1941 -39.1553,-35.1165 4.1519,-8.1621 15.4287,-2.8079 25.9554,-1.0912 -25.6221,-14.8642 -62.9013,-32.4829 -54.253,-39.2839 19.4856,-15.3234 112.8299,37.2006 124.9137,21.1503 6.0583,-8.047 -103.3611,-30.7685 -103.7082,-39.7975 -0.486,-12.6433 25.1753,-13.5338 53.5409,-7.3652 19.2549,4.1874 48.5798,10.9004 76.3781,11.0214 19.3733,0.084 42.046,-4.8698 43.0593,-8.3881 1.9166,-6.6549 -26.7339,-2.0572 -48.8208,-5.2345 -16.0054,-2.3024 -29.7611,-10.0085 -35.2287,-22.0972 -4.2678,-9.4362 40.0964,-5.6164 64.5978,-9.1878 37.0537,-5.4011 72.8345,-6.0838 100.6087,4.8637 14.9002,5.8731 26.1976,35.4832 42.74,41.0264 26.7684,8.9698 33.6083,0.5988 39.9696,13.3036 z"
       id="path3768"
       inkscape:connector-curvature="0"
       sodipodi:nodetypes="ssscsssscssssssssssss" />
  </g>
</svg>
