<?xml version="1.0" encoding="UTF-8" standalone="no"?>
<!-- Created with Inkscape (http://www.inkscape.org/) -->

<svg
   xmlns:dc="http://purl.org/dc/elements/1.1/"
   xmlns:cc="http://creativecommons.org/ns#"
   xmlns:rdf="http://www.w3.org/1999/02/22-rdf-syntax-ns#"
   xmlns:svg="http://www.w3.org/2000/svg"
   xmlns="http://www.w3.org/2000/svg"
   xmlns:sodipodi="http://sodipodi.sourceforge.net/DTD/sodipodi-0.dtd"
   xmlns:inkscape="http://www.inkscape.org/namespaces/inkscape"
   width="2500"
   height="3500"
   id="svg2"
   version="1.1"
   inkscape:version="0.48.4 r9939"
   sodipodi:docname="madonna.svg">
  <defs
     id="defs4" />
  <sodipodi:namedview
     id="base"
     pagecolor="#ffffff"
     bordercolor="#666666"
     borderopacity="1.0"
     inkscape:pageopacity="0.0"
     inkscape:pageshadow="2"
     inkscape:zoom="0.49497476"
     inkscape:cx="1338.2144"
     inkscape:cy="2602.2127"
     inkscape:document-units="px"
     inkscape:current-layer="layer2"
     showgrid="false"
     borderlayer="true"
     inkscape:window-width="1537"
     inkscape:window-height="878"
     inkscape:window-x="-8"
     inkscape:window-y="-8"
     inkscape:window-maximized="1" />
  <metadata
     id="metadata7">
    <rdf:RDF>
      <cc:Work
         rdf:about="">
        <dc:format>image/svg+xml</dc:format>
        <dc:type
           rdf:resource="http://purl.org/dc/dcmitype/StillImage" />
        <dc:title />
      </cc:Work>
    </rdf:RDF>
  </metadata>
  <g
     inkscape:label="Base"
     inkscape:groupmode="layer"
     id="layer1"
     transform="translate(0,2447.6378)"
     style="display:inline">
    <rect
       style="fill:#fff8cd;fill-opacity:1;fill-rule:evenodd;stroke:none"
       id="rect3753"
       width="3048.5713"
       height="4107.3882"
       x="-257.14285"
       y="-2723.5972" />
  </g>
  <g
     inkscape:groupmode="layer"
     id="layer3"
     inkscape:label="Background"
     style="display:inline">
    <path
       inkscape:connector-curvature="0"
       id="path3820"
       d="M 2688.0603,1845.8008 C 2688.0603,2092.0694 2125.8715,2291.7097 1432.3762,2291.7097 C 738.88122,2291.7097 176.69228,2092.0694 176.69228,1845.8008 C 176.69228,1599.5322 738.88122,1399.8919 1432.3762,1399.8919 C 2125.8715,1399.8919 2688.0603,1599.5322 2688.0603,1845.8008 z"
       style="fill:#81a991;fill-opacity:0.47089945;stroke:none" />
    <path
       style="fill:#81a991;fill-opacity:0.47089945;stroke:none"
       d="M 4463.7746,2145.8009 C 4463.7746,2690.3032 3841.464,3131.7097 3073.8048,3131.7097 C 2306.1458,3131.7097 1683.8351,2690.3032 1683.8351,2145.8009 C 1683.8351,1601.2984 2306.1458,1159.892 3073.8048,1159.892 C 3841.464,1159.892 4463.7746,1601.2984 4463.7746,2145.8009 z"
       id="path3794"
       inkscape:connector-curvature="0" />
    <path
       style="fill:#7a5f4b;fill-opacity:0.89417988;stroke:none"
       d="M 2365.0756,1149.7567 C 2338.2863,1251.2733 2293.0155,1473.5391 2297.6106,1530.2367 C 2300.1784,1561.92 2237.0905,1621.9778 2220.2072,1619.1624 C 2199.2096,1615.6609 2187.2922,1571.205 2205.2229,1543.1417 C 2233.8052,1498.4079 2286.3395,1342.2798 2319.5666,1164.4356 C 2335.8893,1077.0701 2251.0925,855.48044 2242.3459,817.16887 C 2231.1743,768.23558 2246.9632,706.97099 2243.8131,650.24308 C 2240.5992,592.3649 2272.8387,442.85153 2258.5994,395.00389 C 2254.5326,381.33834 2264.0766,367.18619 2273.0914,321.30206 C 2277.9318,296.66501 2284.0727,228.78936 2283.8808,222.19103 C 2283.7632,218.14519 2289.012,216.4624 2292.4729,206.93672 C 2303.3883,176.89332 2330.9888,164.43941 2344.4964,145.66155 C 2367.0897,114.2532 2382.8194,117.55808 2422.651,75.211968 C 2425.8482,71.812923 2427.8104,74.880645 2425.6234,77.3881 C 2393.1755,114.5895 2370.9258,114.84541 2345.8587,150.95924 C 2333.6313,168.57506 2308.2106,175.32003 2299.5524,213.04327 C 2298.1451,219.1747 2293.893,219.77704 2293.0027,227.13113 C 2290.7756,245.52706 2291.0002,291.7589 2284.5599,324.37646 C 2280.2028,346.44327 2271.1077,371.32738 2275.2533,397.21706 C 2286.738,468.94051 2259.7624,616.72913 2263.3184,644.93487 C 2270.6422,703.02495 2255.6973,761.5777 2267.8815,812.67465 C 2277.6162,853.49911 2376.5878,1106.1317 2365.0756,1149.7567 z"
       id="path3800"
       inkscape:connector-curvature="0"
       sodipodi:nodetypes="ssssssssssssssssssssss" />
    <path
       inkscape:connector-curvature="0"
       id="path3791"
       d="M 1677.2098,2313.1396 C 1677.2098,2857.6419 642.43739,3299.0484 -634.01904,3299.0484 C -1910.4754,3299.0484 -2945.2479,2857.6419 -2945.2479,2313.1396 C -2945.2479,1768.6371 -1910.4754,1327.2307 -634.01904,1327.2307 C 642.43739,1327.2307 1677.2098,1768.6371 1677.2098,2313.1396 z"
       style="fill:#81a991;fill-opacity:0.47089945;stroke:none" />
    <path
       style="fill:#925528;fill-opacity:0.9254902;stroke:none"
       d="M 3509.6164,3362.6193 C 3509.6164,3907.1216 2444.0902,4348.5281 1129.6971,4348.5281 C -184.69599,4348.5281 -1250.2221,3907.1216 -1250.2221,3362.6193 C -1250.2221,2818.1168 -184.69599,2376.7104 1129.6971,2376.7104 C 2444.0902,2376.7104 3509.6164,2818.1168 3509.6164,3362.6193 z"
       id="path3788"
       inkscape:connector-curvature="0" />
    <path
       style="fill:#764d2a;fill-opacity:0.89417988;stroke:none"
       d="M 377.14285,2105.5461 C 398.50816,2392.4587 331.31871,2593.4256 140.0841,2647.8289 C -705.81034,2888.4729 -211.27518,2409.2152 -241.38652,1862.9412 C -252.64578,1658.6779 -350.26478,989.2283 -364.08633,251.35758 C -368.15016,34.407368 -355.9101,-190.71899 -303.45813,-388.33642 C -246.78029,-601.87517 137.39932,-526.99878 120.60738,-380.04745 C 91.843562,-128.32646 84.483426,142.89535 79.158453,397.76498 C 63.87733,1129.1666 327.61861,1440.4899 377.14285,2105.5461 z"
       id="path3797"
       inkscape:connector-curvature="0"
       sodipodi:nodetypes="ssssssss" />
    <path
       style="fill:#d6d2b3;fill-opacity:0.88888891;stroke:none"
       d="M 2424.3661,3831.3301 C 2134.3253,3940.4942 1925.6786,3108.3393 1265.1171,2936.3452 C 665.05987,2780.1049 -354.753,2887.8944 -339.4112,2691.878 C -315.1676,2382.1252 478.27214,1813.0163 1814.2339,2069.6241 C 2683.8878,2236.6648 3283.8415,3507.8452 2424.3661,3831.3301 z"
       id="path3766"
       inkscape:connector-curvature="0"
       sodipodi:nodetypes="sssss" />
    <path
       style="fill:#ac7c3c;fill-opacity:0.92592594;stroke:none;display:inline"
       d="M 2771.1653,1340.1648 C 2129.7695,1628.6499 1175.8175,1633.2382 674.78188,1811.025 C 173.74623,1988.8118 -125.25891,1932.2433 -347.49247,2110.0301 C -569.72602,2287.817 -593.96968,2501.9693 -315.16758,2421.1571 C -36.36549,2340.3449 133.34013,2219.1266 791.95958,2170.6393 C 1450.579,2122.152 2298.5124,2491.1644 2751.0607,2584.0984 C 3203.609,2677.0324 2929.4423,2461.5632 2941.5641,2178.7205 C 2953.686,1895.8778 3073.3374,1204.2547 2771.1653,1340.1648 z"
       id="path3032"
       inkscape:connector-curvature="0"
       sodipodi:nodetypes="ssssssss" />
    <path
       style="fill:#7a5f4b;fill-opacity:0.89417988;stroke:none"
       d="M 2300.1173,191.09224 C 2295.0746,193.46522 2280.4867,170.78767 2263.4717,162.00267 C 2250.1283,155.11333 2212.0946,86.060709 2209.3515,64.971109 C 2208.7291,60.186478 2204.566,57.859792 2205.1017,63.425242 C 2206.7471,80.518828 2245.1305,155.4113 2260.3546,163.95645 C 2275.3295,172.36176 2294.3522,194.07719 2295.0052,203.42328 C 2296.169,220.08078 2305.7258,188.453 2300.1173,191.09224 z"
       id="path3826"
       inkscape:connector-curvature="0"
       sodipodi:nodetypes="sssssss" />
    <path
       style="fill:#7a5f4b;fill-opacity:0.89411765;stroke:none"
       d="M 2246.0345,631.49375 C 2232.6576,606.51272 2150.9055,537.9782 2134.1437,528.0954 C 2129.2953,525.2368 2124.7141,524.22295 2120.2405,521.21882 C 2094.3244,503.81542 2041.7497,446.13266 2012.7288,421.56021 C 2007.9225,417.49056 2001.5913,418.86191 1994.4843,414.21241 C 1963.5568,393.97919 1887.7405,363.11457 1877.2066,363.83807 C 1872.4319,364.16601 1860.8675,344.70642 1852.3395,334.18051 C 1849.5135,330.69248 1846.5713,328.24166 1844.9174,327.74229 C 1842.6858,327.06848 1844.2133,325.22788 1845.5487,325.53258 C 1847.8422,326.05591 1848.9389,327.74192 1850.853,329.51397 C 1855.0484,333.39798 1859.6041,339.43515 1864.2506,345.75492 C 1868.4497,351.46611 1872.072,356.80196 1880.3073,359.16249 C 1917.615,369.85614 1974.7942,399.39104 1999.6914,409.59211 C 2010.5474,414.04011 2015.5192,412.5678 2020.8101,417.26706 C 2062.8178,454.57751 2096.7621,505.62124 2141.5233,522.07038 C 2155.6391,527.25776 2231.1581,611.38066 2248.9624,605.08009 C 2259.4028,601.38547 2251.3428,641.4069 2246.0345,631.49375 z"
       id="path3828"
       inkscape:connector-curvature="0"
       sodipodi:nodetypes="sssssssssssssssss" />
    <path
       style="fill:#7a5f4b;fill-opacity:0.89411765;stroke:none"
       d="M 2006.6474,413.8615 C 2011.9744,409.23994 2004.6542,389.86988 2001.0203,383.88343 C 1996.6862,376.74368 1969.0398,356.91044 1963.989,350.84953 C 1958.9383,344.78861 1965.4942,340.98522 1964.9892,336.69207 C 1964.4841,332.39892 1951.6072,314.19343 1943.0284,306.65535 C 1938.7274,302.87613 1942.4494,302.76793 1945.7323,305.54585 C 1954.3724,312.60949 1966.4251,332.14638 1967.9403,335.17684 C 1969.4556,338.2073 1965.1497,344.9418 1966.7363,346.67893 C 1969.4291,349.62727 1991.9265,371.74745 2001.6172,377.11349 C 2009.6651,381.56989 2009.6651,404.53772 2016.8741,415.46602 C 2020.8122,421.43587 2004.7897,415.47327 2006.6474,413.8615 z"
       id="path3830"
       inkscape:connector-curvature="0"
       sodipodi:nodetypes="ssscsccssss" />
    <path
       style="fill:#7a5f4b;fill-opacity:0.89411765;stroke:none"
       d="M 2114.6428,508.57151 C 2106.0714,487.85722 2087.1428,467.85722 2080.3571,452.85723 C 2073.5714,437.85723 2071.4285,434.64294 2068.2142,431.7858 C 2064.9999,428.92865 2034.2857,419.64294 2031.0714,416.42865 C 2027.8571,413.21437 2024.6428,401.42866 2022.1428,401.42866 C 2019.6428,401.42866 1993.7137,397.82673 1985.3571,397.50008 C 1969.9066,396.89614 1933.2142,407.85723 1926.0714,406.7858 C 1918.9285,405.71437 1905.7142,395.71437 1900.7142,395.00008 C 1895.7142,394.2858 1897.2691,392.96555 1901.5548,392.96555 C 1905.8405,392.96555 1919.2857,403.21437 1926.0714,403.21437 C 1932.8571,403.21437 1971.838,393.37688 1985.0866,393.93237 C 1995.4306,394.36608 2021.6885,398.34064 2025.6171,396.91207 C 2029.5456,395.4835 2030.7142,410.71437 2034.2857,412.85723 C 2037.8571,415.00008 2070.3571,426.42865 2074.2857,428.57151 C 2078.2142,430.71437 2085.1696,455.00008 2090.5267,460.00008 C 2095.8838,465.00008 2128.0557,516.28815 2129.8415,520.57386 C 2131.6272,524.85958 2114.2857,514.28579 2114.6428,508.57151 z"
       id="path3832"
       inkscape:connector-curvature="0"
       sodipodi:nodetypes="csssssssssssssscc" />
    <path
       style="fill:#7a5f4b;fill-opacity:0.89411765;stroke:none"
       d="M 2062.6785,424.64294 C 2066.337,422.08506 2059.6428,404.46437 2059.1071,398.21437 C 2058.5714,391.96437 2054.1071,366.25008 2049.8214,361.96437 C 2047.3232,359.46615 2046.9851,342.68431 2046.6963,332.51276 C 2046.4896,325.23493 2045.6981,323.78148 2046.9642,322.14294 C 2049.9999,318.21437 2073.9285,294.2858 2075.8928,288.92866 C 2077.8571,283.57151 2080.1785,286.96437 2079.1071,290.5358 C 2078.6947,291.91047 2075.4449,294.22443 2070.4333,299.85042 C 2062.4248,308.8409 2051.3046,322.40508 2050.5357,324.82151 C 2049.2857,328.75008 2049.1195,351.94486 2052.6785,356.42865 C 2055.7491,360.29721 2056.7857,369.28579 2058.3928,375.17865 C 2060,381.0715 2063.0357,398.75008 2064.2857,403.75008 C 2065.5357,408.75008 2068.8059,423.54087 2074.6428,431.42865 C 2076.8326,434.38786 2058.7379,427.39804 2062.6785,424.64294 z"
       id="path3834"
       inkscape:connector-curvature="0"
       sodipodi:nodetypes="ssssssssssssss" />
    <path
       style="fill:#7a5f4b;fill-opacity:0.89411765;stroke:none"
       d="M 2246.8863,631.91338 C 2243.6197,629.48221 2229.2695,609.78255 2222.9716,607.59439 C 2216.6737,605.40623 2183.5509,593.24978 2179.1903,589.77013 C 2174.8297,586.29055 2147.2986,568.29975 2143.4391,571.59673 C 2139.5798,574.89377 2103.4957,592.94284 2099.2717,595.89039 C 2095.0476,598.83788 2072.9372,597.10748 2070.6886,592.15408 C 2068.4401,587.20077 2049.8057,561.26157 2043.8042,556.2093 C 2037.8027,551.15704 1996.6959,524.70268 1987.5718,524.00341 C 1983.9282,523.72417 1970.9327,521.59925 1955.7118,517.86716 C 1932.8175,512.25359 1905.1137,504.35648 1898.4242,504.42237 C 1893.1188,504.47462 1891.8572,499.78067 1898.6566,500.35068 C 1905.4559,500.9207 1939.7626,510.83126 1953.0325,512.98272 C 1959.6195,514.05066 1990.8994,520.89631 1994.6296,519.924 C 1998.3598,518.95171 2038.3659,546.21178 2045.2259,549.63828 C 2048.5922,551.31973 2054.2622,561.18164 2061.8391,569.06831 C 2070.3089,577.88446 2073.2061,586.26746 2076.4553,588.20166 C 2079.6613,590.11014 2090.9868,592.3007 2097.7103,589.30007 C 2104.4338,586.29945 2140.8184,565.93687 2142.543,563.04246 C 2144.2676,560.14798 2147.3444,562.0474 2152.6014,565.68654 C 2157.8585,569.32574 2200.5607,595.21036 2209.1605,596.4566 C 2217.7604,597.70284 2231.6627,604.73056 2235.3244,608.9395 C 2238.986,613.14838 2244.1062,618.75515 2246.2487,618.70969 C 2248.391,618.66416 2249.6439,635.60566 2246.8863,631.91338 z"
       id="path3836"
       inkscape:connector-curvature="0"
       sodipodi:nodetypes="cssccsssssssssssssssscc" />
    <path
       style="fill:#7a5f4b;fill-opacity:0.89411765;stroke:none"
       d="M 2140.5132,566.01201 C 2134.9573,563.99171 2100.1071,545.30389 2098.0868,539.74805 C 2096.0665,534.19221 2089.5005,511.46378 2084.1972,504.14017 C 2078.8939,496.81657 2062.4789,493.53357 2058.6908,490.50311 C 2054.9028,487.47265 2053.2396,489.75819 2056.27,493.04118 C 2059.3005,496.32418 2074.8533,500.09956 2077.6312,503.88763 C 2080.4091,507.6757 2092.7835,531.66683 2092.7835,537.22267 C 2092.7835,542.7785 2093.5411,546.56658 2098.8444,548.83942 C 2104.1477,551.11226 2133.4421,566.51709 2133.4421,569.54755 C 2133.4421,572.578 2145.8165,567.52724 2140.5132,566.01201 z"
       id="path3838"
       inkscape:connector-curvature="0"
       sodipodi:nodetypes="cssccssssc" />
    <path
       style="fill:#7a5f4b;fill-opacity:0.89411765;stroke:none"
       d="M 1985.4464,519.46436 C 1985.0808,513.43578 1964.4032,481.96827 1959.2857,475.00008 C 1957.7797,472.94946 1960.0349,472.57106 1961.9317,474.66646 C 1963.5231,476.42444 1978.4667,501.23925 1982.7524,505.52497 C 1987.0382,509.81068 1989.2857,519.64294 1991.7857,521.42865 C 1994.2857,523.21437 1985.7736,524.859 1985.4464,519.46436 z"
       id="path3840"
       inkscape:connector-curvature="0"
       sodipodi:nodetypes="ssssss" />
    <path
       style="fill:#7a5f4b;fill-opacity:0.89411765;stroke:none"
       d="M 2270,531.78579 C 2281.4653,534.2102 2291.4285,528.92865 2302.8571,524.64295 C 2311.422,521.43111 2309.2856,500.00005 2312.1428,495.00008 C 2314.9999,490.00005 2342.8571,477.14294 2347.8571,475.71437 C 2351.5363,474.66317 2383.6351,458.14312 2405.2848,452.55132 C 2414.1781,450.25428 2418.9395,447.49005 2420.5357,445.17866 C 2422.568,442.23588 2421.9359,437.10464 2423.1821,430.63934 C 2425.4579,418.83313 2428.9945,403.41217 2431.0714,394.64294 C 2432.349,389.24848 2430.5546,384.57803 2428.5111,377.87561 C 2425.8078,369.00959 2422.133,358.46254 2419.2856,356.42866 C 2414.2856,352.85723 2417.8571,347.85723 2419.2856,345.00009 C 2420.7142,342.14294 2436.2944,340.21941 2439.4193,334.49129 C 2444.442,325.28458 2458.5714,309.2858 2471.4285,300.71437 C 2484.2856,292.14295 2507.1974,279.87014 2511.4285,269.82151 C 2512.857,266.42866 2515.5356,268.75009 2514.2856,271.42866 C 2510.5008,279.53898 2482.3213,296.25009 2476.6071,301.25009 C 2470.8928,306.25009 2447.1428,325.00009 2444.9999,334.2858 C 2443.671,340.04449 2434.5851,344.72535 2428.2334,346.30548 C 2424.5706,347.21667 2423.4018,350.68545 2424.6428,352.85724 C 2430.1785,362.54462 2438.5714,388.57151 2437.8571,395.71437 C 2437.1428,402.85723 2427.1428,427.85723 2428.5714,437.85723 C 2429.9999,447.85723 2417.8571,456.42866 2413.5714,457.14294 C 2409.2856,457.85723 2341.4285,487.14294 2334.9999,491.42865 C 2328.5714,495.71437 2320.3571,495.71436 2319.6428,506.42865 C 2318.9285,517.14293 2316.4285,527.85722 2312.1428,530.71437 C 2307.8571,533.57151 2277.8571,543.21437 2270,557.14294 C 2265.2266,565.60484 2264.3658,530.59442 2270,531.78579 z"
       id="path3842"
       inkscape:connector-curvature="0"
       sodipodi:nodetypes="sssssssssscssssscssssssssss" />
    <path
       style="fill:#7a5f4b;fill-opacity:0.89411765;stroke:none"
       d="M 2454.0541,241.27022 C 2451.8017,248.01627 2454.4709,262.90428 2447.4469,268.77022 C 2445.165,270.67591 2439.9445,275.71868 2435.5123,282.03285 C 2433.5332,284.85233 2428.5603,290.22055 2428.3398,291.9845 C 2427.6255,297.69879 2429.4112,317.69878 2428.6969,321.9845 C 2427.9827,326.27021 2422.9827,339.84164 2420.4827,344.84164 C 2417.9827,349.84164 2431.1932,345.21675 2429.7646,340.93101 C 2428.3361,336.64532 2431.9112,330.19878 2433.3398,324.84164 C 2434.7684,319.4845 2432.9827,306.62736 2432.9827,299.84164 C 2432.9827,293.05593 2433.3757,290.67171 2436.2329,287.81454 C 2437.817,286.23042 2444.5779,275.31349 2447.9253,271.92051 C 2450.6152,269.19392 2453.6969,267.82258 2453.6969,265.91307 C 2453.6969,261.62736 2454.5903,245.11733 2455.8398,241.27022 C 2456.9751,237.77497 2455.2175,237.78567 2454.0541,241.27022 z"
       id="path3844"
       inkscape:connector-curvature="0"
       sodipodi:nodetypes="sssscsssssssss" />
    <path
       style="fill:#7a5f4b;fill-opacity:0.89411765;stroke:none"
       d="M 2406.4285,250.00009 C 2402.4784,246.59466 2406.2499,247.14294 2407.6785,248.0358 C 2409.1071,248.92866 2422.6785,267.14294 2424.6428,271.07151 C 2426.6071,275.00009 2430.5357,286.07151 2433.2142,286.60722 C 2435.8928,287.14294 2429.4642,296.07152 2428.7499,292.67866 C 2428.0357,289.28581 2423.7499,275.5358 2422.1428,272.67866 C 2420.5357,269.82151 2415.3588,257.6991 2406.4285,250.00009 z"
       id="path3846"
       inkscape:connector-curvature="0"
       sodipodi:nodetypes="sssssss" />
    <path
       style="fill:#7a5f4b;fill-opacity:0.89411765;stroke:none"
       d="M 2313.7543,527.12639 C 2321.4917,522.48437 2342.8432,521.94863 2363.9633,514.01977 C 2372.4604,510.82977 2376.1979,514.33064 2382.3581,515.02995 C 2391.5161,516.06958 2391.4494,523.4123 2392.4596,528.96813 C 2393.4697,534.52398 2414.7696,543.78867 2424.366,545.80896 C 2426.5414,546.26694 2433.156,547.66845 2436.566,551.02866 C 2444.2503,558.60079 2459.4201,564.84378 2464.1938,570.5655 C 2466.6775,573.5424 2470.7873,572.92236 2472.8534,572.57801 C 2481.9447,571.06281 2490.026,574.09323 2495.5818,571.06278 C 2501.1376,568.03232 2553.1605,550.85973 2557.2011,550.85973 C 2561.2417,550.85973 2604.3877,506.97783 2617.0146,501.42199 C 2619.5385,500.31149 2621.69,500.48071 2624.3778,500.42391 C 2635.137,500.19654 2646.0179,502.42333 2652.1554,503.38256 C 2659.5233,504.5341 2656.2184,501.06764 2652.8391,500.82282 C 2648.4276,500.50321 2629.9554,498.13618 2623.9988,496.27063 C 2619.7672,494.94535 2617.1578,495.81299 2614.7798,497.44791 C 2606.6986,503.00375 2560.2569,544.53358 2553.6909,547.05896 C 2547.125,549.58435 2498.3372,564.3057 2496.2655,565.20581 C 2489.9595,567.94566 2472.3244,568.5899 2468.9914,565.8028 C 2464.597,562.12823 2457.3494,559.40556 2448.6048,553.03536 C 2444.7743,550.24497 2443.2904,547.43601 2440.277,545.1035 C 2437.3308,542.82297 2435.3279,541.34715 2431.4371,540.7582 C 2425.3618,539.83859 2403.6579,531.16177 2401.1325,527.12114 C 2398.6072,523.08055 2398.6072,512.97903 2395.0716,509.94855 C 2393.427,508.5389 2387.0951,508.51783 2380.6835,506.3296 C 2372.2343,503.44593 2364.2734,505.29729 2360.2214,506.91809 C 2352.6452,509.94858 2321.601,516.50929 2318.0348,510.7136 C 2315.1717,506.06064 2308.8542,530.06616 2313.7543,527.12639 z"
       id="path3848"
       inkscape:connector-curvature="0"
       sodipodi:nodetypes="ssssssssssssssssssssssssssss" />
    <path
       style="fill:#7a5f4b;fill-opacity:0.89411765;stroke:none"
       d="M 2524.8596,556.99461 C 2525.3957,555.31934 2528.5947,549.79152 2532.4839,544.90391 C 2535.3186,541.34156 2542.3731,537.95559 2543.6272,534.82355 C 2544.5565,532.50264 2548.7221,518.62345 2549.6439,507.25074 C 2550.3685,498.3103 2553.375,490.62029 2553.1605,487.72519 C 2552.6554,480.90666 2544.3217,459.44092 2541.2912,455.40031 C 2538.2607,451.3597 2541.165,448.96059 2543.9429,453.50628 C 2546.7208,458.05197 2556.4435,485.70489 2557.2011,488.48281 C 2557.9587,491.26073 2552.6554,503.63509 2552.6554,508.18078 C 2552.6554,512.72647 2548.6148,538.73789 2544.0691,540.50566 C 2539.5234,542.27342 2532.5577,550.97719 2533.3605,554.2587 C 2533.8881,556.41539 2523.7232,560.54591 2524.8596,556.99461 z"
       id="path3858"
       inkscape:connector-curvature="0"
       sodipodi:nodetypes="ssssssssssss" />
    <path
       style="fill:#7a5f4b;fill-opacity:0.89411765;stroke:none"
       d="M 2555.6573,485.58658 C 2558.7004,481.69131 2568.6403,465.57421 2570.26,461.32226 C 2571.8798,457.07027 2573.5277,458.63767 2572.4136,462.31428 C 2570.984,467.03263 2565.4049,473.536 2563.1777,477.38302 C 2560.9505,481.23004 2557.0746,489.23115 2556.0623,490.85092 C 2555.0499,492.47074 2553.6281,488.18392 2555.6573,485.58658 z"
       id="path3860"
       inkscape:connector-curvature="0"
       sodipodi:nodetypes="ssssss" />
    <path
       style="fill:#7a5f4b;fill-opacity:0.89411765;stroke:none"
       d="M 2396.2499,512.32151 C 2402.6771,516.25652 2419.4642,522.50008 2424.1071,523.03579 C 2428.7499,523.57151 2437.0721,519.82065 2439.9999,518.48222 C 2443.1249,517.05363 2446.764,519.61994 2449.4426,518.77175 C 2452.4879,517.80744 2474.3596,511.17797 2482.4783,507.1646 C 2490.9504,502.97648 2504.7385,493.69197 2506.4127,491.73503 C 2507.6519,490.28668 2509.9696,491.75858 2508.6475,492.98503 C 2506.1327,495.31795 2488.8605,506.43782 2483.9483,509.136 C 2473.1507,515.06693 2453.1142,521.60468 2450.4144,522.43114 C 2448.227,523.10078 2443.1474,521.83231 2441.0045,522.45728 C 2438.1514,523.28943 2433.7499,526.25008 2429.8214,526.60722 C 2425.8928,526.96436 2416.7857,526.60722 2412.6785,524.46436 C 2408.5714,522.32151 2398.3928,519.10722 2396.6071,519.28579 C 2394.8214,519.46437 2393.842,510.84726 2396.2499,512.32151 z"
       id="path3862"
       inkscape:connector-curvature="0"
       sodipodi:nodetypes="ssssssssssssss" />
    <path
       style="fill:#7a5f4b;fill-opacity:0.89411765;stroke:none"
       d="M 2071.5625,591.78579 C 2068.0513,590.21501 2053.3482,585.89293 2049.7768,586.0715 C 2046.2053,586.25007 2025.3125,583.75007 2020.6696,585.53579 C 2016.0268,587.3215 2000.6695,593.57148 1998.7053,596.0715 C 1996.741,598.57148 1992.2065,596.72451 1996.8493,594.04594 C 2001.4922,591.36737 2016.3839,584.64293 2020.8482,582.14293 C 2025.3125,579.64293 2028.3482,581.25007 2032.8125,581.60722 C 2037.2768,581.96436 2051.2053,584.10722 2054.2411,583.39293 C 2057.2768,582.67864 2066.3839,586.96439 2067.9911,585.53579 C 2069.5982,584.10725 2074.8428,593.25334 2071.5625,591.78579 z"
       id="path3864"
       inkscape:connector-curvature="0"
       sodipodi:nodetypes="ssssssssss" />
    <path
       style="fill:#7a5f4b;fill-opacity:0.89411765;stroke:none"
       d="M 2261.4483,374.91987 C 2258.234,367.88857 2256.4942,359.56866 2253.526,352.87735 C 2251.5722,348.47294 2249.179,347.67976 2247.6812,344.91117 C 2243.1535,336.54156 2234.9624,330.14138 2231.1744,328.12109 C 2227.3863,326.10077 2194.6355,326.21808 2191.3525,328.49093 C 2188.0695,330.76377 2170.8178,330.89901 2167.0297,331.15155 C 2163.2416,331.40409 2159.9586,328.12108 2158.9485,324.58556 C 2157.9383,321.05002 2153.0535,298.60477 2151.2857,293.554 C 2149.5179,288.50324 2140.9433,279.41637 2134.8311,276.60331 C 2130.7321,274.7168 2120.3102,266.2492 2118.5424,261.9561 C 2117.4383,259.27485 2115.0226,249.7912 2115.3785,238.74713 C 2115.556,233.2398 2116.3927,228.32868 2112.8386,226.10838 C 2108.7468,223.55206 2107.1832,217.13091 2102.885,210.9434 C 2100.5868,207.63503 2103.9183,205.77498 2105.0099,208.65787 C 2106.7776,213.32609 2111.2188,221.04495 2113.7441,223.06523 C 2116.2695,225.08556 2119.0474,228.36853 2119.0474,232.40914 C 2119.0474,236.44975 2117.2796,254.50621 2122.4567,261.19849 C 2125.8597,265.59741 2135.9675,273.57286 2139.2505,275.34063 C 2142.5335,277.10839 2151.6249,286.19979 2154.1502,289.7353 C 2156.6756,293.27085 2160.4637,319.0297 2162.2315,321.5551 C 2163.9992,324.08046 2163.9327,327.68999 2169.236,326.93237 C 2174.5393,326.17476 2186.7277,326.60584 2189.7581,324.08048 C 2192.7886,321.55507 2219.0525,322.31272 2225.366,322.31272 C 2231.6794,322.31272 2237.2353,325.84827 2240.2657,328.12109 C 2243.2962,330.39396 2252.135,342.76831 2256.1756,346.30384 C 2260.2163,349.83937 2260.4688,357.16298 2265.7721,359.43582 C 2271.0754,361.70867 2263.9062,380.29648 2261.4483,374.91987 z"
       id="path3866"
       inkscape:connector-curvature="0"
       sodipodi:nodetypes="sssssssssssssssssssssssssss" />
    <path
       style="fill:#7a5f4b;fill-opacity:0.89411765;stroke:none"
       d="M 2159.928,325.47842 C 2156.5232,323.89676 2144.7449,311.05442 2137.3909,310.81589 C 2130.3049,310.58605 2103.8952,307.41297 2098.5919,305.89774 C 2093.2886,304.38251 2090.803,301.20658 2089.0541,298.78072 C 2087.4346,296.53441 2090.7256,296.0992 2091.5668,297.462 C 2092.9679,299.73218 2095.8166,303.52292 2102.3826,304.28053 C 2108.9486,305.03814 2133.7966,308.45375 2137.5847,307.94868 C 2141.3728,307.4436 2145.3088,309.85167 2147.5816,311.64747 C 2150.3979,313.8726 2156.6661,317.65866 2158.2775,317.02211 C 2160.7549,316.04351 2163.7046,327.23281 2159.928,325.47842 z"
       id="path3868"
       inkscape:connector-curvature="0"
       sodipodi:nodetypes="ssssssssss" />
    <path
       style="fill:#7a5f4b;fill-opacity:0.89411765;stroke:none"
       d="M 2116.4285,226.42866 C 2119.4215,223.21397 2123.6885,210.82494 2124.0115,208.85469 C 2124.3552,206.75831 2127.1511,207.43034 2126.3311,209.41207 C 2124.4815,213.88192 2119.2027,224.68967 2118.0357,230.89294 C 2117.4982,233.74975 2114.3035,228.71113 2116.4285,226.42866 z"
       id="path3870"
       inkscape:connector-curvature="0"
       sodipodi:nodetypes="sssss" />
    <path
       style="fill:#7a5f4b;fill-opacity:0.89411765;stroke:none"
       d="M 2256.0714,157.50009 C 2258.1735,151.75956 2258.5101,134.62936 2258.153,126.77221 C 2257.7959,118.91507 2256.538,108.05622 2254.4157,103.74547 C 2252.906,100.67912 2255.7397,99.51236 2257.0185,102.74275 C 2259.4883,108.98177 2259.9387,118.55793 2260.2959,130.70079 C 2260.653,142.84364 2259.4066,156.2556 2260.8035,160.44652 C 2261.6963,163.12509 2255.1883,159.91169 2256.0714,157.50009 z"
       id="path3872"
       inkscape:connector-curvature="0"
       sodipodi:nodetypes="sssssss" />
    <path
       style="fill:#7a5f4b;fill-opacity:0.89411765;stroke:none"
       d="M 2338.1874,158.66801 C 2345.0179,158.36443 2355.865,155.63756 2360.1582,156.90025 C 2364.4513,158.16294 2385.1595,157.65787 2391.2204,156.90025 C 2394.1458,156.53457 2395.9457,156.90181 2403.157,152.11977 C 2410.2939,147.3871 2423.2993,140.01012 2426.4495,139.00161 C 2430.4415,137.7236 2429.9607,135.06468 2427.2134,136.44466 C 2423.6453,138.23696 2416.2217,141.24288 2412.181,144.0208 C 2408.1404,146.79872 2395.5341,153.09686 2393.7664,153.60193 C 2391.9986,154.10702 2385.8024,155.62223 2379.7415,155.11716 C 2373.6806,154.61208 2360.1582,153.86979 2357.6328,153.11217 C 2355.1074,152.35456 2344.5009,154.81682 2343.9958,152.6071 C 2343.6399,151.05009 2333.6462,158.86984 2338.1874,158.66801 z"
       id="path3874"
       inkscape:connector-curvature="0"
       sodipodi:nodetypes="ssssssssssss" />
    <path
       style="fill:#7a5f4b;fill-opacity:0.89411765;stroke:none"
       d="M 1877.9612,358.55818 C 1879.7678,357.65184 1877.4445,345.38467 1876.2723,341.44431 C 1875.7253,339.60556 1877.2938,338.73272 1878.006,340.48772 C 1879.2314,343.50718 1879.604,352.82027 1880.4383,354.60754 C 1881.2726,356.3948 1881.0973,359.45569 1882.2148,360.66472 C 1883.3323,361.87372 1875.6927,359.69621 1877.9612,358.55818 z"
       id="path3876"
       inkscape:connector-curvature="0"
       sodipodi:nodetypes="ssssss" />
    <path
       style="fill:#7a5f4b;fill-opacity:0.89411765;stroke:none"
       d="M 2325.7138,485.99086 C 2333.5634,475.69593 2340.6447,454.77769 2340.6671,448.88756 C 2340.6896,442.99749 2341.7393,440.31626 2343.7562,433.82737 C 2344.9274,430.05958 2345.6217,425.37687 2343.9411,421.38154 C 2342.7273,418.49614 2339.8045,416.34843 2337.1643,413.35985 C 2330.8681,406.23295 2318.1004,385.43229 2317.1013,374.8608 C 2316.102,364.28928 2317.6076,362.69905 2321.0148,355.08942 C 2324.422,347.47979 2330.6744,331.99008 2331.8382,320.3389 C 2332.2045,316.67051 2335.5397,317.71639 2335.0958,320.21752 C 2332.4399,335.18741 2327.8053,348.10752 2324.391,355.57867 C 2321.0719,362.84217 2319.1079,367.37178 2321.2835,375.27571 C 2323.0465,381.68077 2330.2194,396.74711 2339.3515,407.65122 C 2343.8831,413.06207 2346.5578,415.55497 2349.0921,418.29025 C 2352.4126,421.87401 2351.2896,425.98339 2350.5124,428.28578 C 2349.023,432.69773 2346.135,444.28428 2346.107,451.10745 C 2346.0606,462.39616 2337.8399,476.99691 2339.4659,482.20036 C 2341.0919,487.40376 2320.8475,492.37306 2325.7138,485.99086 z"
       id="path3878"
       inkscape:connector-curvature="0"
       sodipodi:nodetypes="sssssssssssssssss" />
    <path
       style="fill:#7a5f4b;fill-opacity:0.89411765;stroke:none"
       d="M 2337.794,406.15073 C 2342.0599,404.72511 2348.0266,395.29036 2349.0981,387.79037 C 2350.1695,380.29036 2360.8977,360.19167 2364.6428,351.42866 C 2366.7226,346.56236 2369.3081,349.97032 2367.7253,352.60655 C 2364.7612,357.54333 2353.5714,380.71437 2351.4285,390.35723 C 2349.2857,400.00008 2343.2812,407.87702 2343.3009,412.22774 C 2343.3159,415.52038 2335.84,406.80372 2337.794,406.15073 z"
       id="path3880"
       inkscape:connector-curvature="0"
       sodipodi:nodetypes="sssssss" />
    <path
       style="fill:#7a5f4b;fill-opacity:0.89411765;stroke:none"
       d="M 2344.8963,1103.7615 C 2355.99,1092.5929 2374.8851,1067.9198 2377.9085,1055.8265 C 2380.9317,1043.7332 2398.064,1020.5544 2398.064,1007.4533 C 2398.064,994.35216 2395.0406,950.00988 2397.0562,936.90875 C 2399.0718,923.80764 2406.679,913.82198 2399.0718,902.6443 C 2391.0004,890.78464 2384.3537,873.06477 2372.5148,861.04977 C 2365.1158,853.5408 2350.6862,830.5775 2346.6673,827.06094 C 2343.3106,824.12389 2338.1225,814.09995 2330.6552,806.80211 C 2320.1869,796.57135 2306.6985,788.77982 2300.3096,787.7576 C 2294.0109,786.74981 2297.0264,782.78055 2300.7101,784.35416 C 2308.1846,787.54713 2324.5832,796.28235 2333.4909,804.12102 C 2342.3984,811.95968 2368.4085,851.15306 2375.5347,856.85392 C 2382.6606,862.55477 2400.1195,895.33468 2405.4641,901.03554 C 2410.8086,906.73639 2412.5901,912.08094 2410.4523,915.64397 C 2408.3146,919.207 2403.6826,940.2289 2403.3262,948.78019 C 2402.97,957.33146 2407.2457,999.73159 2406.8893,1008.2829 C 2406.533,1016.8341 2390.1742,1045.1678 2388.7179,1053.177 C 2385.1548,1072.7739 2369.1212,1094.1519 2364.8455,1106.2663 C 2360.5699,1118.3806 2357.3631,1136.1957 2355.5816,1142.9655 C 2353.8,1149.7352 2338.7739,1109.9251 2344.8963,1103.7615 z"
       id="path3882"
       inkscape:connector-curvature="0"
       sodipodi:nodetypes="ssssssssssssssssssss" />
    <path
       style="fill:#7a5f4b;fill-opacity:0.89411765;stroke:none"
       d="M 2403.6884,902.30244 C 2406.5061,901.17823 2415.3636,879.83509 2415.8669,875.88337 C 2416.3699,871.93172 2419.2267,859.7462 2426.2257,856.50114 C 2431.2852,854.15527 2462.4865,839.22006 2467.3613,834.31122 C 2469.5033,832.15442 2470.7955,833.73213 2468.6909,835.75313 C 2467.2209,837.16471 2463.112,840.19552 2457.2515,843.15618 C 2445.8905,848.89558 2430.6311,856.95392 2428.3444,859.10004 C 2424.8783,862.3531 2419.8149,870.6722 2419.9077,875.21323 C 2419.9966,879.56156 2409.5478,900.50047 2408.7686,906.24224 C 2408.0654,911.4241 2400.2374,903.6793 2403.6884,902.30244 z"
       id="path3884"
       inkscape:connector-curvature="0"
       sodipodi:nodetypes="ssssssssss" />
    <path
       style="fill:#7a5f4b;fill-opacity:0.89411765;stroke:none"
       d="M 2384.7986,1063.3316 C 2398.6675,1054.7368 2413.4809,1039.9937 2428.9801,1029.4828 C 2435.9897,1024.7293 2443.4104,1015.9433 2443.5886,1008.9954 C 2443.6823,1005.3426 2443.9327,989.77184 2445.7841,979.44837 C 2449.3919,959.33047 2451.0219,934.86402 2455.3467,927.58014 C 2458.7316,921.8793 2452.3303,920.44513 2451.071,925.79861 C 2444.6541,953.07704 2441.8071,976.21545 2439.6693,987.26088 C 2437.5315,998.30617 2440.9163,1014.3399 2430.5835,1020.3972 C 2420.2507,1026.4542 2392.2809,1052.9988 2388.3616,1051.9299 C 2384.4423,1050.8611 2373.3698,1070.4143 2384.7986,1063.3316 z"
       id="path3886"
       inkscape:connector-curvature="0"
       sodipodi:nodetypes="ssssssssss" />
    <path
       style="fill:#7a5f4b;fill-opacity:0.89411765;stroke:none"
       d="M 2424.4317,858.10975 C 2426.815,850.57187 2434.2856,838.57151 2435.3571,835.00007 C 2435.7252,833.77321 2438.0068,831.46026 2439.8377,830.47519 C 2443.3367,828.59271 2447.5697,828.21591 2450.3571,826.0715 C 2451.9911,824.81439 2454.9491,826.97519 2452.4566,828.1277 C 2449.3247,829.57583 2445.0169,830.50258 2442.8342,831.28167 C 2440.3595,832.16501 2440.1119,832.9126 2438.2142,835.00007 C 2436.5492,836.83159 2434.8511,842.01128 2432.8173,846.41757 C 2430.4887,851.46268 2427.9753,855.69022 2428.9285,856.0715 C 2430.7142,856.78579 2423.4328,861.26907 2424.4317,858.10975 z"
       id="path3888"
       inkscape:connector-curvature="0"
       sodipodi:nodetypes="ssssssssss" />
    <path
       style="fill:#7a5f4b;fill-opacity:0.89411765;stroke:none"
       d="M 2370.3571,852.67864 C 2373.6618,849.37389 2373.5714,842.14293 2373.7499,838.21436 C 2373.9285,834.28578 2372.8571,811.42862 2370.5357,806.42864 C 2368.2142,801.42862 2373.2143,802.14292 2374.1071,805.00007 C 2375,807.8572 2375.8928,823.39292 2376.9643,833.21436 C 2378.0357,843.03578 2375.6091,853.00339 2375.7142,856.78578 C 2375.8928,863.21435 2367.5878,855.44795 2370.3571,852.67864 z"
       id="path3890"
       inkscape:connector-curvature="0"
       sodipodi:nodetypes="sssssss" />
  </g>
  <g
     inkscape:groupmode="layer"
     id="layer2"
     inkscape:label="Madonna"
     style="display:inline">
    <path
       style="fill:#48496c;fill-opacity:0.86243388;stroke:none;display:inline"
       d="M 2026.3516,2846.5551 C 2066.0532,3046.9262 1968.4007,2884.2603 1616.2441,3037.35 C 1463.7761,3103.631 1780.2431,1812.5608 1797.0317,1964.4985 C 1855.4052,2492.7827 1975.4727,2589.7732 2026.3516,2846.5551 z"
       id="path3817"
       inkscape:connector-curvature="0"
       sodipodi:nodetypes="ssss" />
    <path
       transform="matrix(0.66428572,0,0,0.66428572,42.367329,690.38281)"
       d="M 1794.2856,431.42865 A 400,400 0 1 1 994.28564,431.42865 A 400,400 0 1 1 1794.2856,431.42865 z"
       sodipodi:ry="400"
       sodipodi:rx="400"
       sodipodi:cy="431.42865"
       sodipodi:cx="1394.2856"
       id="path3785"
       style="fill:#ebdd92;fill-opacity:0.86243388;stroke:none"
       sodipodi:type="arc" />
    <path
       sodipodi:type="arc"
       style="fill:#ebdd92;fill-opacity:0.86243388;stroke:none"
       id="path3015"
       sodipodi:cx="1394.2856"
       sodipodi:cy="431.42865"
       sodipodi:rx="400"
       sodipodi:ry="400"
       d="M 1794.2856,431.42865 A 400,400 0 1 1 994.28564,431.42865 A 400,400 0 1 1 1794.2856,431.42865 z"
       transform="translate(-39.999999,136.97464)" />
    <path
       style="fill:#7e4e30;fill-opacity:0.81481479;stroke:none"
       d="M 1630.0666,750.03483 C 1565.2684,937.64076 1431.5445,817.68728 1273.9391,841.36186 C 1112.5452,865.60552 1091.4286,735.53602 1108.5715,631.26035 C 1116.248,584.56594 1087.6585,575.07022 1076.6476,533.49201 C 1059.6288,469.22726 1063.9042,375.85596 1156.7983,358.30179 C 1196.9352,350.71714 1234.9485,325.67839 1284.2857,318.40321 C 1405.1421,300.58194 1453.5618,376.37752 1554.1927,452.34846 C 1639.0412,516.40452 1667.7147,641.03496 1630.0666,750.03483 z"
       id="path3780"
       inkscape:connector-curvature="0"
       sodipodi:nodetypes="ssssssss" />
    <path
       style="fill:#ffd8ba;fill-opacity:0.82010582;stroke:none"
       d="M 1032.5626,2840.3691 C 957.83234,2905.6477 971.31021,2990.5066 951.65188,3024.2476 C 932.07998,3057.8402 912.29411,3074.6356 872.45236,3078.5119 C 834.40565,3082.2136 832.94953,3046.0593 858.15425,3006.0064 C 879.06496,2972.7771 865.2036,2895.5552 869.45155,2848.9427 C 873.65104,2802.8619 871.66122,2738.4381 905.36483,2713.1741 C 970.25865,2664.5301 1091.5556,2690.4362 1100.328,2753.8573 C 1105.1616,2788.8023 1044.1711,2830.2288 1032.5626,2840.3691 z"
       id="path3771"
       inkscape:connector-curvature="0"
       sodipodi:nodetypes="ssssssss" />
    <path
       style="fill:#ffdebd;fill-opacity:0.84126988;stroke:none"
       d="M 1367.4599,3156.9745 C 1369.6748,3178.6212 1357.2365,3192.487 1359.5656,3201.0929 C 1363.6938,3216.346 1361.4375,3225.9839 1351.49,3227.4665 C 1337.9848,3229.4793 1341.7197,3203.1723 1331.1421,3207.7471 C 1322.7282,3211.3861 1343.9288,3225.6057 1319.5339,3230.0815 C 1299.7739,3233.7068 1311.3609,3208.6442 1303.8123,3210.0604 C 1292.8529,3212.1168 1316.13,3236.8529 1286.0582,3233.4354 C 1270.7504,3231.6956 1278.5718,3208.662 1274.9226,3208.5837 C 1263.7053,3208.3428 1283.6774,3234.468 1258.7046,3236.8238 C 1236.8776,3238.8829 1248.3877,3206.0383 1241.2353,3206.2941 C 1228.1666,3206.7618 1239.3428,3234.9472 1201.2857,3234.8415 C 1181.4602,3234.7864 1175.9485,3209.0297 1181.498,3189.8934 C 1184.5057,3179.5219 1195.9697,3172.7909 1197.8278,3152.8647 C 1203.4436,3092.6417 1236.702,2968.1005 1293.0388,2969.1792 C 1349.3754,2970.2581 1360.8342,3092.2201 1367.4599,3156.9745 z"
       id="path3793"
       inkscape:connector-curvature="0"
       sodipodi:nodetypes="sssssssssssssss" />
    <path
       style="fill:#48496c;fill-opacity:0.86243388;stroke:none"
       d="M 679.99999,2241.2604 C 679.99999,2373.0198 647.34816,2871.2215 514.91949,2819.9262 C 315.76056,2742.7833 158.64782,2681.0298 165.71429,2644.1176 C 179.95882,2569.7104 371.1509,2301.7261 496.77844,2162.2973 C 562.98891,2088.813 710.76393,1954.1176 759.99999,1954.1176 C 902.01606,1954.1176 679.99999,2109.5011 679.99999,2241.2604 z"
       id="path3814"
       inkscape:connector-curvature="0"
       sodipodi:nodetypes="ssssss" />
    <path
       style="fill:#2c2a5c;fill-opacity:0.94709018;stroke:none"
       d="M 2011.0102,1356.9089 C 2001.0016,1542.343 1928.1029,1745.6264 1791.4006,1749.1923 C 1814.6037,1831.8119 1910.3446,1960.5357 1828.6529,2116.8164 C 1814.1925,2144.4799 1775.7444,2335.6056 1754.7256,2406.8781 C 1721.3571,2520.0269 1736.1264,2900.6941 1731.1917,3039.6896 C 1727.2158,3151.6783 1651.6268,3034.7322 1653.3048,3111.2828 C 1653.9738,3141.8012 1589.5353,3189.0672 1507.8433,3183.8287 C 1383.0248,3175.8246 1270.7561,3149.6531 1181.5639,3097.1684 C 1124.6119,3063.6553 1133.3463,2964.285 1140.2909,2903.4088 C 1153.9148,2783.9819 1064.9407,2746.0013 973.02775,2812.0043 C 915.36711,2853.4106 861.85237,2924.6871 754.5604,2868.3559 C 680.03465,2829.2279 399.02892,2982.7994 407.15647,2867.9394 C 423.49762,2637.0032 479.27575,2360.6068 504.6808,2155.4323 C 508.80062,2122.1601 488.72145,2045.3018 501.43334,2014.1276 C 527.93836,1949.1276 603.67225,1889.0654 735.05683,1811.6992 C 816.81753,1763.5541 912.58098,1719.7202 1071.1051,1665.4362 C 1031.3971,1617.5333 1101.1862,1553.6319 1049.9874,1485.6462 C 1032.1559,1598.7066 988.20107,1614.3857 963.73881,1615.9106 C 838.15179,1623.7396 752.42663,1404.1139 747.58124,1312.1135 C 744.09528,1245.9248 729.72578,1202.8256 778.83287,1168.9437 C 820.0205,1140.526 774.36665,1083.12 843.08207,1062.342 C 964.22773,1025.7102 888.30837,998.42206 978.73097,968.2817 C 1073.8131,936.58817 1331.8387,958.70015 1446.2888,968.3126 C 1579.8713,979.53191 1657.4175,825.30439 1728.969,861.48864 C 1825.844,910.47927 1911.667,1088.0736 1956.3304,1254.939 C 1972.1225,1313.9394 2013.7379,1306.3724 2011.0102,1356.9089 z"
       id="path3756"
       inkscape:connector-curvature="0"
       sodipodi:nodetypes="scsssssssssssssccsssssssss" />
    <path
       style="fill:#d7624b;fill-opacity:0.88359794;stroke:none"
       d="M 1721.2405,1001.3728 C 1724.9231,1057.2082 1778.8057,1440.1798 1486.2124,1671.6912 C 1347.9385,1781.099 1391.7314,1741.3694 1261.7945,1797.5514 C 1190.1418,1828.5325 1277.2951,1655.7426 1216.6042,1552.4192 C 1146.0626,1432.3252 1036.9241,1067.446 1036.9241,1001.2292 C 1036.9241,945.22536 1065.6493,883.5728 1133.5786,866.40106 C 1211.9392,846.59239 1349.9155,784.78653 1443.508,792.79118 C 1557.1284,802.50875 1662.6669,842.96775 1694.3286,868.45825 C 1721.3654,890.22528 1719.2227,970.77888 1721.2405,1001.3728 z"
       id="path3777"
       inkscape:connector-curvature="0"
       sodipodi:nodetypes="sssssssss" />
    <path
       style="fill:#ffd8ba;fill-opacity:0.82010582;stroke:none"
       d="M 1371.5909,496.95271 C 1387.9871,519.74977 1401.2235,482.95616 1425.317,496.26124 C 1452.3076,511.16617 1454.3398,564.00622 1446.5804,590.40841 C 1441.5195,607.62882 1427.4792,601.7854 1421.3248,609.86397 C 1419.2462,612.5924 1428.1713,636.33804 1430.0542,643.43108 C 1441.2253,685.51539 1478.8176,746.50203 1489.6223,760.65476 C 1497.0677,770.40723 1528.1629,790.49228 1558.3951,807.00854 C 1593.8388,826.3719 1627.718,843.28885 1615.2565,869.65157 C 1577.8796,948.72363 1268.8547,927.70988 1230.5369,893.36106 C 1204.5985,870.10931 1238.319,851.08658 1272.2511,826.58339 C 1299.0742,807.21381 1319.7333,780.4831 1320.1151,776.13224 C 1320.7927,768.40981 1311.3445,753.57958 1305.1248,749.60327 C 1294.7952,755.15814 1276.0571,759.23957 1263.2647,764.87628 C 1251.0752,770.24734 1231.7293,765.93794 1219.9906,754.7894 C 1210.7909,746.05214 1189.5056,723.70728 1173.9898,702.24867 C 1158.903,681.3834 1144.6272,652.83667 1140.8638,626.37511 C 1137.418,602.14615 1120.851,592.61241 1114.9387,564.90099 C 1104.3197,515.12897 1108.5871,472.3021 1127.5691,446.86406 C 1138.596,432.08673 1153.9193,423.5121 1175.9216,421.97933 C 1197.6119,420.4683 1233.5291,438.57777 1267.8123,447.55345 C 1307.7248,458.00295 1346.32,461.81639 1371.5909,496.95271 z"
       id="path3759"
       inkscape:connector-curvature="0"
       sodipodi:nodetypes="ssssssssssscsssssssss" />
    <path
       style="fill:#ffd8ba;fill-opacity:0.92592594;stroke:none"
       d="M 996.84375,875.875 C 939.75831,876.26004 880.80354,918.79763 862.125,964.96875 C 839.00136,1022.1276 830.44289,1107.489 901.4375,1145.3438 C 945.62294,1168.9035 1040.2617,1131.2829 1052.5,1161.4375 C 1068.4596,1200.7611 1063.9227,1259.8963 1113.7812,1316.25 C 1189.2001,1401.4939 1262.2485,1455.8013 1407.5625,1440.0312 C 1482.3222,1431.918 1503.0385,1419.0614 1543.4688,1364.2812 C 1572.6218,1324.7808 1646.1705,1364.8277 1704.0312,1331.2812 C 1743.7028,1308.2805 1722.6215,1291.8201 1752.2188,1293.5312 C 1789.3771,1295.6797 1807.8255,1291.7206 1827.125,1259.4688 C 1830.9259,1253.1171 1862.8392,1170.1196 1826.8125,1151.4375 C 1800.6348,1137.8628 1747.1816,1201.0592 1705.0625,1192.4688 C 1634.8791,1178.1544 1564.5679,1132.9855 1530.5,1128.375 C 1476.6058,1121.0814 1454.1482,1212.0031 1426.125,1165.875 C 1410.9984,1140.9756 1351.7459,1130.0147 1309.7812,1137.4688 C 1284.4742,1141.964 1241.6117,1092.9872 1206.067,1077.7786 C 1191.2229,1071.4272 1168.752,1069.4302 1160.2014,1077.1706 C 1154.6824,1074.8406 1153.7401,1068.9529 1146.9062,1066.4375 C 1156.0105,1056.1142 1165.0296,1040.5087 1167.375,1022.4688 C 1172.7769,1016.1031 1175.8125,1008.0102 1175.8125,1001.9062 C 1175.8125,996.37616 1173.3057,992.11609 1169.0312,988.90625 C 1160.2913,940.93478 1123.3629,922.81663 1082.5814,912.49064 C 1071.8274,909.76771 1062.495,897.68636 1051.75,890.96875 C 1034.6947,880.30606 1015.8722,875.74665 996.84375,875.875 z"
       id="path3762"
       inkscape:connector-curvature="0"
       sodipodi:nodetypes="sssssssssssssssscccscsss" />
    <path
       style="fill:#ba5132;fill-opacity:0.81481479;stroke:none"
       d="M 1045.5111,1357.5243 C 1045.5111,1414.3307 1034.5715,1599.9332 980.92097,1599.9332 C 927.27041,1599.9332 907.2444,1477.1038 897.14287,1345.5461 C 892.79385,1288.9064 940.63521,1242.6889 994.28574,1242.6889 C 1047.9362,1242.6889 1045.5111,1300.7179 1045.5111,1357.5243 z"
       id="path3783"
       inkscape:connector-curvature="0"
       sodipodi:nodetypes="sssss" />
    <path
       style="fill:#fbcfb2;fill-opacity:1;stroke:none"
       d="M 1426.0713,1021.6072 C 1426.0713,1033.146 1401.8433,1051.0714 1381.4285,1051.0714 C 1361.0136,1051.0714 1352.1428,1033.146 1352.1428,1021.6072 C 1352.1428,1010.0684 1368.6922,1000.7143 1389.1071,1000.7143 C 1409.5219,1000.7143 1426.0713,1010.0684 1426.0713,1021.6072 z"
       id="path3798"
       inkscape:connector-curvature="0"
       sodipodi:nodetypes="sssss" />
    <path
       style="fill:#c78b5c;fill-opacity:0.88359794;stroke:none"
       d="M 1473.5715,939.11749 C 1473.5715,993.55699 1439.4687,1025.5461 1386.6072,1025.5461 C 1333.7457,1025.5461 1308.5324,980.12416 1310.7143,946.26035 C 1312.71,915.28559 1341.7381,899.87342 1365.8592,885.31681 C 1380.0082,876.77812 1388.7208,861.97464 1399.2857,861.97464 C 1416.9344,861.97464 1418.2216,875.45615 1429.2345,880.21717 C 1451.2076,889.71645 1473.5715,902.85346 1473.5715,939.11749 z"
       id="path3774"
       inkscape:connector-curvature="0"
       sodipodi:nodetypes="sssssss" />
    <path
       style="fill:#fbcfb2;fill-opacity:1;stroke:none"
       d="M 1464.8261,1002.6937 C 1465.5044,1005.5128 1462.9153,1006.0181 1460.6171,1008.2104 C 1458.82,1009.9247 1455.2127,1016.1367 1451.1486,1019.1421 C 1447.6286,1021.7452 1439.6817,1030.9501 1435.2612,1036.6171 C 1427.4697,1046.6059 1416.7626,1064.1551 1395.0572,1063.5516 C 1364.7127,1062.7078 1360.9084,1038.3262 1364.5956,1029.499 C 1369.8114,1017.0124 1406.6695,1014.8703 1424.1761,1018.8689 C 1426.958,1015.4449 1430.6939,1012.6032 1435.841,1011.622 C 1437.6968,1009.085 1441.735,1005.6687 1445.5801,1004.8441 C 1450.0716,997.40984 1462.9822,995.03122 1464.8261,1002.6937 z"
       id="path3792"
       inkscape:connector-curvature="0"
       sodipodi:nodetypes="sssssscccs" />
    <path
       style="fill:#bd482d;fill-opacity:0.7037037;stroke:none"
       d="M 1445,945.54608 C 1445,968.03196 1392.6353,1000.5461 1368.5715,1000.5461 C 1344.5077,1000.5461 1322.1429,973.74625 1322.1429,951.26037 C 1322.1429,928.77449 1370.222,881.97465 1394.2858,881.97465 C 1418.3496,881.97465 1445,923.0602 1445,945.54608 z"
       id="path3796"
       inkscape:connector-curvature="0"
       sodipodi:nodetypes="sssss" />
    <path
       style="fill:#f5dcc9;fill-opacity:0.92592594;stroke:none"
       d="M 1895.0462,1325.1416 C 1621.2167,1362.8853 1453.3542,1626.7684 1266.8807,1576.1192 C 1196.788,1557.0809 1049.685,1390.1116 1025.3048,1370.5985 C 989.05693,1341.5869 944.30466,1174.5905 977.82769,1161.4969 C 1012.1314,1148.0984 1044.6426,1108.0227 1110.1576,1116.04 C 1148.6028,1120.7447 1236.9021,1141.5849 1241.4539,1219.832 C 1245.7778,1294.1615 1311.5599,1352.2685 1361.8394,1344.1115 C 1415.9946,1335.3258 1567.7542,1367.9817 1733.3611,1286.4846 C 1791.0333,1258.1035 1892.611,1262.098 1931.1643,1284.1576 C 1951.3897,1295.7302 1960.935,1316.0597 1895.0462,1325.1416 z"
       id="path3043"
       inkscape:connector-curvature="0"
       sodipodi:nodetypes="ssssssssss" />
    <path
       style="fill:#dfb696;fill-opacity:1;stroke:none"
       d="M 1138.7437,1124.9935 C 1133.741,1124.959 1125.1004,1128.962 1118.2831,1132.1801 C 1109.8348,1136.1681 1102.8083,1141.0706 1094.0035,1147.3308 C 1087.1728,1152.1874 1082.3935,1155.8739 1076.8639,1159.7697 C 1068.7177,1165.5089 1065.4949,1170.6932 1056.5897,1177.7706 C 1049.835,1183.139 1043.0481,1186.6906 1037.5213,1190.6819 C 1031.5029,1195.0283 1018.3242,1205.9842 1016.3853,1206.7962 C 1014.4453,1207.6088 1013.1706,1206.8941 1012.6081,1205.4335 C 1010.271,1199.3647 1014.8532,1191.54 1016.3461,1181.188 C 1016.4384,1180.5476 1016.0899,1179.8263 1016.1835,1179.1855 C 1016.2796,1178.5271 1016.6355,1178.0703 1016.9133,1177.2918 C 1017.753,1174.9403 1019.2038,1166.7359 1018.5607,1157.0536 C 1018.0769,1149.7725 1015.0184,1142.8757 1010.2559,1141.0443 C 1007.8155,1140.1058 1005.0831,1139.5485 1002.7555,1146.6666 C 1001.0764,1151.8014 998.6195,1158.0588 996.7063,1161.6562 C 994.78396,1165.2705 991.79744,1168.3173 989.71158,1172.6363 C 988.43883,1175.2717 988.1066,1179.9502 986.79486,1182.7949 C 982.56879,1191.9601 979.22371,1199.5894 975.43042,1208.5862 C 972.77158,1214.8923 970.4336,1215.9645 967.94294,1222.3014 C 966.39016,1226.2521 967.07531,1232.7868 965.96083,1237.0351 C 962.16229,1251.5149 962.05522,1259.2908 959.57315,1272.1917 C 956.81724,1286.5159 951.02348,1293.9035 944.02046,1303.8259 C 933.60209,1318.5874 930.68709,1326.0888 932.60338,1335.6827 C 935.58695,1350.6196 951.0185,1368.0478 966.66657,1372.8158 C 982.46211,1377.6287 995.90537,1373.4709 1011.8929,1369.2216 C 1019.2562,1367.2645 1030.3955,1366.067 1041.175,1362.9137 C 1060.6304,1357.2224 1102.3696,1335.0547 1116.7526,1325.7722 C 1122.9955,1321.7431 1126.7408,1321.5488 1134.828,1315.3397 C 1140.7134,1310.8212 1150.399,1305.4131 1157.0216,1299.837 C 1160.3727,1297.0155 1165.9806,1294.6773 1169.2591,1291.7546 C 1174.0089,1287.5206 1178.3193,1282.4067 1182.4658,1278.2533 C 1186.4866,1274.2259 1189.1044,1269.3238 1192.0638,1265.6933 C 1194.8023,1262.3339 1196.4851,1259.7089 1198.4104,1256.4529 C 1201.4927,1251.2404 1196.219,1246.1991 1191.1835,1246.221 C 1186.6187,1246.2408 1180.7401,1248.8362 1176.436,1252.2947 C 1172.4393,1255.5061 1171.0832,1259.3636 1168.6503,1261.2004 C 1166.3891,1262.9076 1160.9258,1265.4881 1158.1103,1267.9397 C 1154.2254,1271.3225 1148.6279,1275.7824 1144.7454,1276.7168 C 1138.3992,1278.2442 1133.1212,1282.5326 1129.0663,1283.9145 C 1127.2061,1284.5486 1125.2091,1282.6272 1126.5197,1280.4317 C 1129.1207,1276.0747 1128.2422,1276.075 1134.1492,1269.5036 C 1138.0297,1265.1869 1142.9298,1262.556 1147.8441,1257.0255 C 1152.1196,1252.2142 1156.8119,1248.0294 1161.3658,1243.7382 C 1165.3881,1239.9477 1171.1233,1231.8286 1174.6192,1226.4113 C 1180.4273,1217.4109 1189.1773,1205.4415 1191.9473,1199.6346 C 1196.0769,1190.9773 1188.6733,1184.124 1181.0479,1186.0501 C 1174.2197,1187.7747 1168.6312,1191.4794 1162.7938,1197.4106 C 1154.621,1205.7144 1153.4225,1210.8482 1146.276,1216.8737 C 1139.6504,1222.4601 1135.1485,1229.1369 1129.3921,1233.3634 C 1120.295,1240.0428 1113.6559,1244.5366 1110.684,1245.3042 C 1107.1594,1246.2146 1105.5342,1243.7242 1106.9526,1241.3107 C 1110.259,1235.6844 1112.59,1233.6753 1119.7637,1227.3656 C 1127.9731,1220.145 1135.6266,1215.9135 1141.8425,1210.0881 C 1147.7485,1204.5532 1153.1148,1198.3746 1159.4308,1192.9851 C 1162.3065,1190.5311 1167.4225,1187.1075 1172.4743,1181.8636 C 1178.0696,1176.0555 1183.1227,1168.6136 1184.899,1162.6916 C 1186.8378,1156.2276 1182.2378,1148.364 1174.8633,1149.4803 C 1166.5842,1150.7334 1160.0384,1154.5877 1153.3491,1159.6418 C 1147.1218,1164.3468 1145.1575,1166.7451 1138.7446,1171.9575 C 1133.6264,1176.1174 1127.8891,1178.9756 1123.0934,1182.5825 C 1115.4109,1188.3608 1110.2111,1194.7616 1102.0519,1199.906 C 1094.4564,1204.695 1087.3063,1207.2676 1083.3799,1207.6752 C 1080.9229,1207.9303 1079.0567,1204.3442 1080.3628,1202.2721 C 1084.8555,1195.1447 1091.7152,1189.3301 1099.2095,1180.784 C 1101.4937,1178.1791 1105.9222,1176.3682 1113.6538,1168.5305 C 1121.9832,1160.0868 1127.953,1158.5355 1134.2374,1152.4402 C 1139.8614,1146.9855 1143.4524,1143.2527 1146.5899,1136.5261 C 1148.6824,1132.0399 1145.5593,1125.0406 1138.7437,1124.9935 z"
       id="path3765"
       inkscape:connector-curvature="0"
       sodipodi:nodetypes="ssssssssssssssssssssssssssssssssssssssssssssssssssssssssssssssssssss" />
    <path
       style="fill:#ba5132;fill-opacity:0.81481479;stroke:none"
       d="M 1612.9289,1483.0181 C 1616.7413,1519.5349 1619.1366,1566.3059 1617.2359,1600.5298 C 1613.8276,1661.8993 1594.7283,1612.1053 1561.9695,1607.3212 C 1543.7563,1604.6614 1539.0929,1611.3005 1538.184,1599.3494 C 1536.6623,1579.341 1534.4401,1576.4867 1537.8956,1545.1572 C 1541.5809,1511.7443 1535.0231,1475.3141 1562.0202,1474.2066 C 1588.8099,1473.1077 1607.8781,1434.6395 1612.9289,1483.0181 z"
       id="path3786"
       inkscape:connector-curvature="0"
       sodipodi:nodetypes="sssssss" />
    <path
       style="fill:#dfb696;fill-opacity:1;stroke:none"
       d="M 1564.7813,1494.5094 C 1572.3121,1509.5499 1566.9285,1573.4434 1550.9589,1592.0083 C 1546.243,1597.4905 1526.4411,1592.0263 1507.9123,1600.3069 C 1469.6977,1617.3853 1424.241,1629.8289 1376.4339,1630.8753 C 1358.5025,1637.1007 1271.9754,1638.2821 1270.4674,1618.3833 C 1269.571,1606.5565 1340.9908,1612.1879 1343.345,1605.8038 C 1346.0199,1598.5499 1301.7517,1588.2799 1274.1838,1570.7059 C 1252.1735,1556.6748 1229.9812,1545.5118 1235.0285,1535.5894 C 1239.1804,1527.4273 1250.4572,1532.7815 1260.9839,1534.4982 C 1235.3618,1519.634 1198.0826,1502.0153 1206.7309,1495.2143 C 1226.2165,1479.8909 1319.5608,1532.4149 1331.6446,1516.3646 C 1337.7029,1508.3176 1228.2835,1485.5961 1227.9364,1476.5671 C 1227.4504,1463.9238 1253.1117,1463.0333 1281.4773,1469.2019 C 1300.7322,1473.3893 1330.0571,1480.1023 1357.8554,1480.2233 C 1377.2287,1480.3073 1399.9014,1475.3535 1400.9147,1471.8352 C 1402.8313,1465.1803 1374.1808,1469.778 1352.0939,1466.6007 C 1336.0885,1464.2983 1322.3328,1456.5922 1316.8652,1444.5035 C 1312.5974,1435.0673 1356.9616,1438.8871 1381.463,1435.3157 C 1418.5167,1429.9146 1454.2975,1429.2319 1482.0717,1440.1794 C 1496.9719,1446.0525 1508.2693,1475.6626 1524.8117,1481.2058 C 1551.5801,1490.1756 1558.42,1481.8046 1564.7813,1494.5094 z"
       id="path3768"
       inkscape:connector-curvature="0"
       sodipodi:nodetypes="ssscsssscssssssssssss" />
    <path
       style="fill:#fbcfb2;fill-opacity:1;stroke:none"
       d="M 1354.5966,1009.7902 C 1358.8106,1013.4806 1390.4921,1015.198 1362.3027,1048.3672 C 1345.9928,1067.5584 1328.6782,1026.1571 1328.4117,1017.1116 C 1328.2307,1010.9648 1326.6127,996.33316 1331.0228,989.48729 C 1336.3781,981.17404 1337.8675,972.09452 1341.9876,972.59837 C 1347.1578,973.23065 1352.7028,982.99536 1347.3316,993.1922 C 1351.5411,998.63311 1353.0512,1003.9951 1354.5966,1009.7902 z"
       id="path3789"
       inkscape:connector-curvature="0"
       sodipodi:nodetypes="csssscc" />
    <path
       style="fill:#fbcfb2;fill-opacity:1;stroke:none"
       d="M 1396.5359,1085.2303 C 1393.6602,1094.4625 1399.8608,1118.9819 1398.5453,1138.6176 C 1396.7868,1164.8636 1383.8472,1185.1937 1339.4623,1175.639 C 1313.3884,1170.0261 1303.2638,1151.3776 1307.5378,1130.3711 C 1311.9848,1108.5139 1331.4299,1084.1628 1333.7479,1072.3837 C 1338.1105,1050.2143 1356.0101,1038.4715 1377.8481,1043.3091 C 1407.0655,1049.7814 1403.1019,1064.1509 1396.5359,1085.2303 z"
       id="path3795"
       inkscape:connector-curvature="0"
       sodipodi:nodetypes="sssssss" />
  </g>
</svg>
