<?xml version="1.0" encoding="UTF-8" standalone="no"?>
<!-- Created with Inkscape (http://www.inkscape.org/) -->

<svg
   xmlns:dc="http://purl.org/dc/elements/1.1/"
   xmlns:cc="http://creativecommons.org/ns#"
   xmlns:rdf="http://www.w3.org/1999/02/22-rdf-syntax-ns#"
   xmlns:svg="http://www.w3.org/2000/svg"
   xmlns="http://www.w3.org/2000/svg"
   xmlns:sodipodi="http://sodipodi.sourceforge.net/DTD/sodipodi-0.dtd"
   xmlns:inkscape="http://www.inkscape.org/namespaces/inkscape"
   width="2500"
   height="3500"
   id="svg2"
   version="1.1"
   inkscape:version="0.48.4 r9939"
   sodipodi:docname="Madonna SVG 01-004.svg">
  <defs
     id="defs4" />
  <sodipodi:namedview
     id="base"
     pagecolor="#ffffff"
     bordercolor="#666666"
     borderopacity="1.0"
     inkscape:pageopacity="0.0"
     inkscape:pageshadow="2"
     inkscape:zoom="0.35000001"
     inkscape:cx="1083.7888"
     inkscape:cy="2774.7009"
     inkscape:document-units="px"
     inkscape:current-layer="layer2"
     showgrid="false"
     borderlayer="true"
     inkscape:window-width="1537"
     inkscape:window-height="878"
     inkscape:window-x="-8"
     inkscape:window-y="-8"
     inkscape:window-maximized="1" />
  <metadata
     id="metadata7">
    <rdf:RDF>
      <cc:Work
         rdf:about="">
        <dc:format>image/svg+xml</dc:format>
        <dc:type
           rdf:resource="http://purl.org/dc/dcmitype/StillImage" />
        <dc:title></dc:title>
      </cc:Work>
    </rdf:RDF>
  </metadata>
  <g
     inkscape:label="Base"
     inkscape:groupmode="layer"
     id="layer1"
     transform="translate(0,2447.6378)"
     sodipodi:insensitive="true">
    <rect
       style="fill:#fff8cd;fill-opacity:1;fill-rule:evenodd;stroke:none"
       id="rect3753"
       width="2500"
       height="3500"
       x="0"
       y="-2447.6377" />
  </g>
  <g
     inkscape:groupmode="layer"
     id="layer3"
     inkscape:label="Background">
    <rect
       style="fill:#689a8f;fill-opacity:0.36507939;stroke:none"
       id="rect3787"
       width="2820.3459"
       height="1915.2491"
       x="-177.78685"
       y="1398.8828" />
    <path
       style="fill:#81a991;fill-opacity:0.47089945;stroke:none"
       d="m 4463.7746,2145.8009 c 0,544.5023 -622.3106,985.9088 -1389.9698,985.9088 -767.659,0 -1389.9697,-441.4065 -1389.9697,-985.9088 0,-544.5025 622.3107,-985.9089 1389.9697,-985.9089 767.6592,0 1389.9698,441.4064 1389.9698,985.9089 z"
       id="path3794"
       inkscape:connector-curvature="0" />
    <path
       style="fill:#735745;fill-opacity:0.91005291;stroke:none"
       d="m 2226.3762,1493.8371 c -24.2437,456.1073 49.0513,727.8211 -16.1984,975.7979 -20.5213,77.9898 -83.9619,68.2869 -109.0605,60.6186 -31.2147,-9.5371 -40.6719,-24.6948 -14.0162,-101.1319 42.49,-121.8431 78.666,-446.5976 74.6254,-939.3252 -0.8036,-97.9934 -27.394,-803.96696 -25.5168,-1444.548988 1.0973,-374.433492 -2.774,-597.979372 13.395,-597.979372 16.2065,0 39.7267,257.7703 35.1231,634.421942 -7.5923,621.192758 46.8418,1314.441518 41.6484,1412.147018 z"
       id="path3800"
       inkscape:connector-curvature="0"
       sodipodi:nodetypes="sssssssss" />
    <path
       inkscape:connector-curvature="0"
       id="path3791"
       d="m 1677.2098,2313.1396 c 0,544.5023 -1034.77241,985.9088 -2311.22884,985.9088 -1276.45636,0 -2311.22886,-441.4065 -2311.22886,-985.9088 0,-544.5025 1034.7725,-985.9089 2311.22886,-985.9089 1276.45643,0 2311.22884,441.4064 2311.22884,985.9089 z"
       style="fill:#81a991;fill-opacity:0.47089945;stroke:none" />
    <path
       style="fill:#566f4b;fill-opacity:0.88359794;stroke:none"
       d="m 3515.3307,3362.6193 c 0,544.5023 -1065.5262,985.9088 -2379.9193,985.9088 -1314.3931,0 -2379.9192,-441.4065 -2379.9192,-985.9088 0,-544.5025 1065.5261,-985.9089 2379.9192,-985.9089 1314.3931,0 2379.9193,441.4064 2379.9193,985.9089 z"
       id="path3788"
       inkscape:connector-curvature="0" />
    <path
       style="fill:#764d2a;fill-opacity:0.89417988;stroke:none"
       d="m 377.14285,2105.5461 c 21.36531,286.9126 -45.82414,487.8795 -237.05875,542.2828 -845.89444,240.644 -351.35928,-238.6137 -381.47062,-784.8877 -11.25926,-204.2633 -294.74632,-914.119 -308.56787,-1651.98972 -12.21656,-652.18784 232.20443,-1352.77978 397.0552,-1362.15398 C 19.556531,-1161.0091 93.424109,-285.03326 79.158453,397.76498 63.877329,1129.1666 327.61861,1440.4899 377.14285,2105.5461 z"
       id="path3797"
       inkscape:connector-curvature="0"
       sodipodi:nodetypes="sssssss" />
    <path
       style="fill:#999999;fill-opacity:0.88888891;stroke:none"
       d="M 2424.3661,3831.3301 C 2174.7314,4231.4181 1965.6786,3308.3393 1305.1171,3136.3452 705.05987,2980.1049 -354.753,2887.8944 -339.4112,2691.878 c 24.2436,-309.7528 817.68334,-878.8617 2153.6451,-622.2539 869.6539,167.0407 1096.2603,982.5912 610.1322,1761.706 z"
       id="path3766"
       inkscape:connector-curvature="0"
       sodipodi:nodetypes="sssss" />
    <path
       style="fill:#48496c;fill-opacity:0.86243388;stroke:none"
       d="m 2026.3516,2846.5551 c 39.7016,200.3711 -57.9509,37.7052 -410.1075,190.7949 -152.468,66.281 163.999,-1224.7892 180.7876,-1072.8515 58.3735,528.2842 178.441,625.2747 229.3199,882.0566 z"
       id="path3817"
       inkscape:connector-curvature="0"
       sodipodi:nodetypes="ssss" />
  </g>
  <g
     inkscape:groupmode="layer"
     id="layer2"
     inkscape:label="Madonna">
    <path
       transform="matrix(0.66428572,0,0,0.66428572,42.367329,690.38281)"
       d="m 1794.2856,431.42865 a 400,400 0 1 1 -799.99996,0 400,400 0 1 1 799.99996,0 z"
       sodipodi:ry="400"
       sodipodi:rx="400"
       sodipodi:cy="431.42865"
       sodipodi:cx="1394.2856"
       id="path3785"
       style="fill:#ebdd92;fill-opacity:0.86243388;stroke:none"
       sodipodi:type="arc" />
    <path
       sodipodi:type="arc"
       style="fill:#ebdd92;fill-opacity:0.86243388;stroke:none"
       id="path3015"
       sodipodi:cx="1394.2856"
       sodipodi:cy="431.42865"
       sodipodi:rx="400"
       sodipodi:ry="400"
       d="m 1794.2856,431.42865 a 400,400 0 1 1 -799.99996,0 400,400 0 1 1 799.99996,0 z"
       transform="translate(-39.999999,136.97464)" />
    <path
       style="fill:#7e4e30;fill-opacity:0.81481479;stroke:none"
       d="m 1630.0666,750.03483 c -64.7982,187.60593 -198.5221,67.65245 -356.1275,91.32703 -161.3939,24.24366 -182.5105,-105.82584 -165.3676,-210.10151 7.6765,-46.69441 -20.913,-56.19013 -31.9239,-97.76834 -17.0188,-64.26475 -12.7434,-157.63605 80.1507,-175.19022 40.1369,-7.58465 78.1502,-32.6234 127.4874,-39.89858 120.8564,-17.82127 169.2761,57.97431 269.907,133.94525 84.8485,64.05606 113.522,188.6865 75.8739,297.68637 z"
       id="path3780"
       inkscape:connector-curvature="0"
       sodipodi:nodetypes="ssssssss" />
    <path
       style="fill:#ffd8ba;fill-opacity:0.82010582;stroke:none"
       d="m 1032.5626,2840.3691 c -74.73026,65.2786 -61.25239,150.1375 -80.91072,183.8785 -19.5719,33.5926 -39.35777,50.388 -79.19952,54.2643 -38.04671,3.7017 -39.50283,-32.4526 -14.29811,-72.5055 20.91071,-33.2293 7.04935,-110.4512 11.2973,-157.0637 4.19949,-46.0808 2.20967,-110.5046 35.91328,-135.7686 64.89382,-48.644 186.19077,-22.7379 194.96317,40.6832 4.8336,34.945 -56.1569,76.3715 -67.7654,86.5118 z"
       id="path3771"
       inkscape:connector-curvature="0"
       sodipodi:nodetypes="ssssssss" />
    <path
       style="fill:#ffdebd;fill-opacity:0.84126988;stroke:none"
       d="m 1367.4599,3156.9745 c -2.2186,27.2843 -7.8842,56.7884 -20.5156,66.4514 -14.5153,11.1042 -5.2246,-20.2536 -15.8022,-15.6788 -8.4139,3.639 12.7867,17.8586 -11.6082,22.3344 -19.76,3.6253 -8.173,-21.4373 -15.7216,-20.0211 -10.9594,2.0564 12.3177,26.7925 -17.7541,23.375 -15.3078,-1.7398 -7.4864,-24.7734 -11.1356,-24.8517 -11.2173,-0.2409 8.7548,25.8843 -16.218,28.2401 -21.827,2.0591 -10.3169,-30.7855 -17.4693,-30.5297 -13.0687,0.4677 0.6329,27.6423 -37.4242,27.5372 -24.1101,-0.067 -30.3148,-32.4898 -21.6407,-77.9361 10.7038,-56.0816 54.5316,-187.7947 110.8684,-186.716 56.3366,1.0789 79.697,122.917 74.4211,187.7953 z"
       id="path3793"
       inkscape:connector-curvature="0"
       sodipodi:nodetypes="sssssssssssss" />
    <path
       style="fill:#48496c;fill-opacity:0.86243388;stroke:none"
       d="m 679.99999,2241.2604 c 0,131.7594 -32.65183,629.9611 -165.0805,578.6658 -199.15893,-77.1429 -356.27167,-138.8964 -349.2052,-175.8086 14.24453,-74.4072 205.43661,-342.3915 331.06415,-481.8203 66.21047,-73.4843 213.98549,-208.1797 263.22155,-208.1797 142.01607,0 -80,155.3835 -80,287.1428 z"
       id="path3814"
       inkscape:connector-curvature="0"
       sodipodi:nodetypes="ssssss" />
    <path
       style="fill:#2c2a5c;fill-opacity:0.81481479;stroke:none"
       d="m 2011.0102,1356.9089 c -10.0086,185.4341 -82.9073,388.7175 -219.6096,392.2834 23.2031,82.6196 118.944,211.3434 37.2523,367.6241 -14.4604,27.6635 -52.9085,218.7892 -73.9273,290.0617 -33.3685,113.1488 -18.5992,493.816 -23.5339,632.8115 -3.9759,111.9887 -79.5649,-4.9574 -77.8869,71.5932 0.669,30.5184 -63.7695,77.7844 -145.4615,72.5459 -124.8185,-8.0041 -237.0872,-34.1756 -326.2794,-86.6603 -56.952,-33.5131 -48.2176,-132.8834 -41.273,-193.7596 13.6239,-119.4269 -75.3502,-157.4075 -167.26315,-91.4045 -57.66064,41.4063 -111.17538,112.6828 -218.46735,56.3516 -74.52575,-39.128 -355.53148,114.4435 -347.40393,-0.4165 16.34115,-230.9362 72.11928,-580.0636 97.52433,-785.2381 4.11982,-33.2722 -15.95935,-93.968 -3.24746,-125.1422 26.50502,-65 94.28333,-95.7674 229.58288,-166.063 61.55765,-31.9826 165.40232,-87.9383 340.08888,-126.0599 -39.708,-47.9029 72.5075,-26.9515 21.3087,-94.9372 -134.16174,123.4536 -339.04337,-148.465 -344.83256,-258.3855 -3.48596,-66.1887 -17.85546,-109.2879 31.25163,-143.1698 41.18763,-28.4177 -4.46622,-85.8237 64.2492,-106.6017 121.14566,-36.6318 45.2263,-63.91994 135.6489,-94.0603 95.08213,-31.69353 353.10773,-9.58155 467.55783,0.0309 133.5825,11.21931 211.1287,-143.00821 282.6802,-106.82396 96.875,48.99063 182.698,226.58496 227.3614,393.45036 15.7921,59.0004 57.4075,51.4334 54.6798,101.9699 z"
       id="path3756"
       inkscape:connector-curvature="0"
       sodipodi:nodetypes="scsssssssssssssccssssssss" />
    <path
       style="fill:#d7624b;fill-opacity:0.88359794;stroke:none"
       d="m 1721.2405,1001.3728 c 3.6826,55.8354 57.5652,438.807 -235.0281,670.3184 -138.2739,109.4078 -94.481,69.6782 -224.4179,125.8602 -71.6527,30.9811 15.5006,-141.8088 -45.1903,-245.1322 -70.5416,-120.094 -179.6801,-484.9732 -179.6801,-551.19 0,-56.00384 28.7252,-117.6564 96.6545,-134.82814 78.3606,-19.80867 216.3369,-81.61453 309.9294,-73.60988 113.6204,9.71757 219.1589,50.17657 250.8206,75.66707 27.0368,21.76703 24.8941,102.32063 26.9119,132.91455 z"
       id="path3777"
       inkscape:connector-curvature="0"
       sodipodi:nodetypes="sssssssss" />
    <path
       style="fill:#ffd8ba;fill-opacity:0.82010582;stroke:none"
       d="m 1371.5909,496.95271 c 16.3962,22.79706 29.6326,-13.99655 53.7261,-0.69147 26.9906,14.90493 29.0228,67.74498 21.2634,94.14717 -5.0609,17.22041 -19.1012,11.37699 -25.2556,19.45556 -2.0786,2.72843 6.8465,26.47407 8.7294,33.56711 11.1711,42.08431 48.7634,103.07095 59.5681,117.22368 7.4454,9.75247 38.5406,29.83752 68.7728,46.35378 35.4437,19.36336 69.3229,36.28031 56.8614,62.64303 -37.3769,79.07206 -346.4018,58.05831 -384.7196,23.70949 -25.9384,-23.25175 7.7821,-42.27448 41.7142,-66.77767 26.8231,-19.36958 47.4822,-46.10029 47.864,-50.45115 0.6776,-7.72243 -8.7706,-22.55266 -14.9903,-26.52897 -10.3296,5.55487 -29.0677,9.6363 -41.8601,15.27301 -12.1895,5.37106 -31.5354,1.06166 -43.2741,-10.08688 -9.1997,-8.73726 -30.485,-31.08212 -46.0008,-52.54073 -15.0868,-20.86527 -29.3626,-49.412 -33.126,-75.87356 -3.4458,-24.22896 -20.0128,-33.7627 -25.9251,-61.47412 -10.619,-49.77202 -6.3516,-92.59889 12.6304,-118.03693 11.0269,-14.77733 26.3502,-23.35196 48.3525,-24.88473 21.6903,-1.51103 57.6075,16.59844 91.8907,25.57412 39.9125,10.4495 78.5077,14.26294 103.7786,49.39926 z"
       id="path3759"
       inkscape:connector-curvature="0"
       sodipodi:nodetypes="ssssssssssscsssssssss" />
    <path
       style="fill:#ffd8ba;fill-opacity:0.92592594;stroke:none"
       d="m 996.84375,875.875 c -57.08544,0.38504 -116.04021,42.92263 -134.71875,89.09375 -23.12364,57.15885 -31.68211,142.52025 39.3125,180.37505 44.18544,23.5597 138.8242,-14.0609 151.0625,16.0937 15.9596,39.3236 11.4227,98.4588 61.2812,154.8125 75.4189,85.2439 148.4673,139.5513 293.7813,123.7812 74.7597,-8.1132 95.476,-20.9698 135.9063,-75.75 29.153,-39.5004 102.7017,0.5465 160.5624,-33 39.6716,-23.0007 18.5903,-39.4611 48.1876,-37.75 37.1583,2.1485 55.6067,-1.8106 74.9062,-34.0624 3.8009,-6.3517 35.7142,-89.3492 -0.3125,-108.0313 -26.1777,-13.5747 -79.6309,49.6217 -121.75,41.0313 -70.1834,-14.3144 -140.4946,-59.4833 -174.5625,-64.0938 -53.8942,-7.2936 -76.3518,83.6281 -104.375,37.5 -15.1266,-24.8994 -74.3791,-35.8603 -116.3438,-28.4062 -25.307,4.4952 -68.1695,-44.4816 -103.7142,-59.6902 -14.8441,-6.3514 -37.315,-8.3484 -45.8656,-0.608 -5.519,-2.33 -6.4613,-8.2177 -13.2952,-10.7331 9.1043,-10.3233 18.1234,-25.9288 20.4688,-43.9687 5.4019,-6.3657 8.4375,-14.4586 8.4375,-20.5626 0,-5.53004 -2.5068,-9.79011 -6.7813,-12.99995 -8.7399,-47.97147 -45.6683,-66.08962 -86.4498,-76.41561 -10.754,-2.72293 -20.0864,-14.80428 -30.8314,-21.52189 -17.0553,-10.66269 -35.8778,-15.2221 -54.90625,-15.09375 z"
       id="path3762"
       inkscape:connector-curvature="0"
       sodipodi:nodetypes="sssssssssssssssscccscsss" />
    <path
       style="fill:#ba5132;fill-opacity:0.81481479;stroke:none"
       d="m 1045.5111,1357.5243 c 0,56.8064 39.568,232.3074 -14.0825,232.3074 -53.65056,0 -124.1842,-112.7279 -134.28573,-244.2856 -4.34902,-56.6397 43.49234,-102.8572 97.14287,-102.8572 53.65046,0 51.22536,58.029 51.22536,114.8354 z"
       id="path3783"
       inkscape:connector-curvature="0"
       sodipodi:nodetypes="sssss" />
    <path
       style="fill:#fbcfb2;fill-opacity:1;stroke:none"
       d="m 1426.0713,1021.6072 c 0,11.5388 -24.228,29.4642 -44.6428,29.4642 -20.4149,0 -29.2857,-17.9254 -29.2857,-29.4642 0,-11.5388 16.5494,-20.8929 36.9643,-20.8929 20.4148,0 36.9642,9.3541 36.9642,20.8929 z"
       id="path3798"
       inkscape:connector-curvature="0"
       sodipodi:nodetypes="sssss" />
    <path
       style="fill:#c78b5c;fill-opacity:0.88359794;stroke:none"
       d="m 1473.5715,939.11749 c 0,54.4395 -34.1028,86.42861 -86.9643,86.42861 -52.8615,0 -78.0748,-45.42194 -75.8929,-79.28575 1.9957,-30.97476 31.0238,-46.38693 55.1449,-60.94354 14.149,-8.53869 22.8616,-23.34217 33.4265,-23.34217 17.6487,0 18.9359,13.48151 29.9488,18.24253 21.9731,9.49928 44.337,22.63629 44.337,58.90032 z"
       id="path3774"
       inkscape:connector-curvature="0"
       sodipodi:nodetypes="sssssss" />
    <path
       style="fill:#fbcfb2;fill-opacity:1;stroke:none"
       d="m 1464.8261,1002.6937 c 0.6783,2.8191 -1.9108,3.3244 -4.209,5.5167 -1.7971,1.7143 -5.4044,7.9263 -9.4685,10.9317 -3.52,2.6031 -11.4669,11.808 -15.8874,17.475 -7.7915,9.9888 -18.4986,27.538 -40.204,26.9345 -30.3445,-0.8438 -34.1488,-25.2254 -30.4616,-34.0526 5.2158,-12.4866 42.0739,-14.6287 59.5805,-10.6301 2.7819,-3.424 6.5178,-6.2657 11.6649,-7.2469 1.8558,-2.537 5.894,-5.9533 9.7391,-6.7779 4.4915,-7.43426 17.4021,-9.81288 19.246,-2.1504 z"
       id="path3792"
       inkscape:connector-curvature="0"
       sodipodi:nodetypes="sssssscccs" />
    <path
       style="fill:#bd482d;fill-opacity:0.7037037;stroke:none"
       d="m 1445,945.54608 c 0,22.48588 -52.3647,55.00002 -76.4285,55.00002 -24.0638,0 -46.4286,-26.79985 -46.4286,-49.28573 0,-22.48588 48.0791,-69.28572 72.1429,-69.28572 24.0638,0 50.7142,41.08555 50.7142,63.57143 z"
       id="path3796"
       inkscape:connector-curvature="0"
       sodipodi:nodetypes="sssss" />
    <path
       style="fill:#f5dcc9;fill-opacity:0.92592594;stroke:none"
       d="m 1895.0462,1325.1416 c -273.8295,37.7437 -441.692,301.6268 -628.1655,250.9776 -70.0927,-19.0383 -217.1957,-186.0076 -241.5759,-205.5207 -36.24787,-29.0116 -81.00014,-196.008 -47.47711,-209.1016 34.30371,-13.3985 66.81491,-53.4742 132.32991,-45.4569 38.4452,4.7047 126.7445,25.5449 131.2963,103.792 4.3239,74.3295 70.106,132.4365 120.3855,124.2795 54.1552,-8.7857 205.9148,23.8702 371.5217,-57.6269 57.6722,-28.3811 159.2499,-24.3866 197.8032,-2.327 20.2254,11.5726 29.7707,31.9021 -36.1181,40.984 z"
       id="path3043"
       inkscape:connector-curvature="0"
       sodipodi:nodetypes="ssssssssss" />
    <path
       style="fill:#dfb696;fill-opacity:1;stroke:none"
       d="m 1123.8125,1139.9121 c -14.3736,-0.1738 -43.4701,28.4065 -59.9063,42.0313 -15.9724,13.2402 -36.3687,25.8079 -57.5937,43.4687 -6.32666,-13.7275 0.8208,-55.5937 -6.65625,-55.5937 -8.64989,0 -46.22431,90.2206 -51.21875,121.6874 -0.28835,0.4652 -0.58769,0.9054 -0.875,1.375 -27.903,45.6086 -37.04881,66.5449 27.375,83.5938 31.7217,8.3948 104.3114,-30.7135 130.125,-37.3125 15.5062,-3.964 132.8433,-3.8876 126.25,-17.75 -7.7525,-16.2996 -98.5945,-3.9957 -99.5727,-27.6164 -0.4327,-10.4436 96.4229,-68.8794 85.3227,-85.5399 -9.9801,-14.9793 -92.2596,47.7305 -92.6875,35.5626 -0.2737,-7.7825 89.4352,-38.5469 80.6875,-56.8438 -6.3811,-13.3469 -116.6822,40.5162 -115.3734,19.7812 1.262,-19.9929 51.8766,-52.707 39.2797,-64.875 -1.3728,-1.3259 -3.1029,-1.9439 -5.1563,-1.9687 z"
       id="path3765"
       inkscape:connector-curvature="0"
       sodipodi:nodetypes="cscsccssscsssscc" />
    <path
       style="fill:#ba5132;fill-opacity:0.81481479;stroke:none"
       d="m 1612.9289,1483.0181 c 3.8124,36.5168 6.2077,83.2878 4.307,117.5117 -3.4083,61.3695 -22.5076,11.5755 -55.2664,6.7914 -18.2132,-2.6598 -22.8766,3.9793 -23.7855,-7.9718 -1.5217,-20.0084 -3.7439,-22.8627 -0.2884,-54.1922 3.6853,-33.4129 -2.8725,-69.8431 24.1246,-70.9506 26.7897,-1.0989 45.8579,-39.5671 50.9087,8.8115 z"
       id="path3786"
       inkscape:connector-curvature="0"
       sodipodi:nodetypes="sssssss" />
    <path
       style="fill:#dfb696;fill-opacity:1;stroke:none"
       d="m 1564.7813,1494.5094 c 7.5308,15.0405 2.1472,78.934 -13.8224,97.4989 -4.7159,5.4822 -24.5178,0.018 -43.0466,8.2986 -38.2146,17.0784 -83.6713,29.522 -131.4784,30.5684 -17.9314,6.2254 -104.4585,7.4068 -105.9665,-12.492 -0.8964,-11.8268 70.5234,-6.1954 72.8776,-12.5795 2.6749,-7.2539 -41.5933,-17.5239 -69.1612,-35.0979 -22.0103,-14.0311 -44.2026,-25.1941 -39.1553,-35.1165 4.1519,-8.1621 15.4287,-2.8079 25.9554,-1.0912 -25.6221,-14.8642 -62.9013,-32.4829 -54.253,-39.2839 19.4856,-15.3234 112.8299,37.2006 124.9137,21.1503 6.0583,-8.047 -103.3611,-30.7685 -103.7082,-39.7975 -0.486,-12.6433 25.1753,-13.5338 53.5409,-7.3652 19.2549,4.1874 48.5798,10.9004 76.3781,11.0214 19.3733,0.084 42.046,-4.8698 43.0593,-8.3881 1.9166,-6.6549 -26.7339,-2.0572 -48.8208,-5.2345 -16.0054,-2.3024 -29.7611,-10.0085 -35.2287,-22.0972 -4.2678,-9.4362 40.0964,-5.6164 64.5978,-9.1878 37.0537,-5.4011 72.8345,-6.0838 100.6087,4.8637 14.9002,5.8731 26.1976,35.4832 42.74,41.0264 26.7684,8.9698 33.6083,0.5988 39.9696,13.3036 z"
       id="path3768"
       inkscape:connector-curvature="0"
       sodipodi:nodetypes="ssscsssscssssssssssss" />
    <path
       style="fill:#fbcfb2;fill-opacity:1;stroke:none"
       d="m 1354.5966,1009.7902 c 4.214,3.6904 35.8955,5.4078 7.7061,38.577 -16.3099,19.1912 -33.6245,-22.2101 -33.891,-31.2556 -0.181,-6.1468 -1.799,-20.77844 2.6111,-27.62431 5.3553,-8.31325 6.8447,-17.39277 10.9648,-16.88892 5.1702,0.63228 10.7152,10.39699 5.344,20.59383 4.2095,5.44091 5.7196,10.8029 7.265,16.598 z"
       id="path3789"
       inkscape:connector-curvature="0"
       sodipodi:nodetypes="csssscc" />
    <path
       style="fill:#fbcfb2;fill-opacity:1;stroke:none"
       d="m 1396.5359,1085.2303 c -2.8757,9.2322 3.3249,33.7516 2.0094,53.3873 -1.7585,26.246 -14.6981,46.5761 -59.083,37.0214 -26.0739,-5.6129 -36.1985,-24.2614 -31.9245,-45.2679 4.447,-21.8572 23.8921,-46.2083 26.2101,-57.9874 4.3626,-22.1694 22.2622,-33.9122 44.1002,-29.0746 29.2174,6.4723 25.2538,20.8418 18.6878,41.9212 z"
       id="path3795"
       inkscape:connector-curvature="0"
       sodipodi:nodetypes="sssssss" />
  </g>
</svg>
