<?xml version="1.0" encoding="UTF-8" standalone="no"?>
<!-- Created with Inkscape (http://www.inkscape.org/) -->

<svg
   xmlns:dc="http://purl.org/dc/elements/1.1/"
   xmlns:cc="http://creativecommons.org/ns#"
   xmlns:rdf="http://www.w3.org/1999/02/22-rdf-syntax-ns#"
   xmlns:svg="http://www.w3.org/2000/svg"
   xmlns="http://www.w3.org/2000/svg"
   xmlns:sodipodi="http://sodipodi.sourceforge.net/DTD/sodipodi-0.dtd"
   xmlns:inkscape="http://www.inkscape.org/namespaces/inkscape"
   width="2500"
   height="3500"
   id="svg2"
   version="1.1"
   inkscape:version="0.48.4 r9939"
   sodipodi:docname="Madonna SVG 01-002.svg">
  <defs
     id="defs4" />
  <sodipodi:namedview
     id="base"
     pagecolor="#ffffff"
     bordercolor="#666666"
     borderopacity="1.0"
     inkscape:pageopacity="0.0"
     inkscape:pageshadow="2"
     inkscape:zoom="0.12374369"
     inkscape:cx="1021.1525"
     inkscape:cy="1429.8672"
     inkscape:document-units="px"
     inkscape:current-layer="layer3"
     showgrid="false"
     borderlayer="true"
     inkscape:window-width="1537"
     inkscape:window-height="878"
     inkscape:window-x="-8"
     inkscape:window-y="-8"
     inkscape:window-maximized="1" />
  <metadata
     id="metadata7">
    <rdf:RDF>
      <cc:Work
         rdf:about="">
        <dc:format>image/svg+xml</dc:format>
        <dc:type
           rdf:resource="http://purl.org/dc/dcmitype/StillImage" />
        <dc:title />
      </cc:Work>
    </rdf:RDF>
  </metadata>
  <g
     inkscape:label="Base"
     inkscape:groupmode="layer"
     id="layer1"
     transform="translate(0,2447.6378)"
     sodipodi:insensitive="true">
    <rect
       style="fill:#fff8cd;fill-opacity:1;fill-rule:evenodd;stroke:none"
       id="rect3753"
       width="2500"
       height="3500"
       x="0"
       y="-2447.6377" />
  </g>
  <g
     inkscape:groupmode="layer"
     id="layer3"
     inkscape:label="Background">
    <path
       style="fill:#81a991;fill-opacity:0.47089945;stroke:none"
       d="m 4463.7746,2048.8263 c 0,544.5023 -622.3106,985.9088 -1389.9698,985.9088 -767.659,0 -1389.9697,-441.4065 -1389.9697,-985.9088 0,-544.5025 622.3107,-985.9089 1389.9697,-985.9089 767.6592,0 1389.9698,441.4064 1389.9698,985.9089 z"
       id="path3794"
       inkscape:connector-curvature="0" />
    <path
       style="fill:#735745;fill-opacity:0.91005291;stroke:none"
       d="m 2226.3762,1396.8625 c -24.2437,456.1073 49.0513,727.8211 -16.1984,975.7979 -20.5213,77.9898 -83.9619,68.2869 -109.0605,60.6186 -31.2147,-9.5371 -40.6719,-24.6948 -14.0162,-101.1319 42.49,-121.8431 78.666,-446.5976 74.6254,-939.3252 -0.8036,-97.9934 -27.394,-803.967 -25.5168,-1444.54903 1.0973,-374.43349 -2.774,-597.97937 13.395,-597.97937 16.2065,0 39.7267,257.7703 35.1231,634.42194 -7.5923,621.19276 46.8418,1314.44156 41.6484,1412.14706 z"
       id="path3800"
       inkscape:connector-curvature="0"
       sodipodi:nodetypes="sssssssss" />
    <path
       inkscape:connector-curvature="0"
       id="path3791"
       d="m 1677.2098,2216.165 c 0,544.5023 -1034.77241,985.9088 -2311.22884,985.9088 -1276.45636,0 -2311.22886,-441.4065 -2311.22886,-985.9088 0,-544.5025 1034.7725,-985.9089 2311.22886,-985.9089 1276.45643,0 2311.22884,441.4064 2311.22884,985.9089 z"
       style="fill:#81a991;fill-opacity:0.47089945;stroke:none" />
    <path
       style="fill:#566f4b;fill-opacity:0.88359791;stroke:none"
       d="m 3515.3307,3265.6447 c 0,544.5023 -1065.5262,985.9088 -2379.9193,985.9088 -1314.3931,0 -2379.9192,-441.4065 -2379.9192,-985.9088 0,-544.5025 1065.5261,-985.9089 2379.9192,-985.9089 1314.3931,0 2379.9193,441.4064 2379.9193,985.9089 z"
       id="path3788"
       inkscape:connector-curvature="0" />
    <path
       style="fill:#764d2a;fill-opacity:0.89417988;stroke:none"
       d="m 377.14285,2008.5715 c 21.36531,286.9126 -45.82414,487.8795 -237.05875,542.2828 -845.89444,240.644 -351.35928,-238.6137 -381.47062,-784.8877 C -252.64578,1561.7033 -536.13284,851.84756 -549.95439,113.97684 -562.17095,-538.211 -317.74996,-1238.8029 -152.89919,-1248.1771 19.556531,-1257.9837 93.424109,-382.0079 79.158453,300.79034 63.877329,1032.192 327.61861,1343.5153 377.14285,2008.5715 z"
       id="path3797"
       inkscape:connector-curvature="0"
       sodipodi:nodetypes="sssssss" />
    <path
       transform="translate(1398.0511,-8.0812622)"
       style="fill:#999999;fill-opacity:0.8888889;stroke:none"
       d="M 1026.315,3742.4367 C 776.68032,4142.5247 567.62748,3219.4459 -92.934038,3047.4518 -692.99123,2891.2115 -1752.8041,2799.001 -1737.4623,2602.9846 c 24.2436,-309.7528 817.68334,-878.8617 2153.64513,-622.2539 869.65387,167.0407 1096.26027,982.5912 610.13217,1761.706 z"
       id="path3766"
       inkscape:connector-curvature="0"
       sodipodi:nodetypes="sssss" />
  </g>
  <g
     inkscape:groupmode="layer"
     id="layer2"
     inkscape:label="Madonna">
    <path
       style="fill:#7e4e30;fill-opacity:0.81481479;stroke:none"
       d="m 1630.0666,653.06019 c -64.7982,187.60593 -198.5221,67.65245 -356.1275,91.32703 -161.3939,24.24366 -182.5105,-105.82584 -165.3676,-210.10151 7.6765,-46.69441 -20.913,-56.19013 -31.9239,-97.76834 -17.0188,-64.26475 -12.7434,-157.63605 80.1507,-175.19022 40.1369,-7.58465 78.1502,-32.6234 127.4874,-39.89858 120.8564,-17.82127 169.2761,57.97431 269.907,133.94525 84.8485,64.05606 113.522,188.6865 75.8739,297.68637 z"
       id="path3780"
       inkscape:connector-curvature="0"
       sodipodi:nodetypes="ssssssss" />
    <path
       style="fill:#2c2a5c;fill-opacity:0.81481479;stroke:none"
       d="m 2008.9899,1272.0561 c 26.8256,138.5806 -59.5425,306.4767 -163.9199,374.6924 23.2031,82.6196 129.326,251.6842 36.1108,401.3776 -71.4877,114.8014 186.9754,411.0502 221.8266,606.1825 13.5049,75.6142 2.0534,122.2228 -152.597,161.3892 -130.0436,32.9345 -211.9902,-7.2822 -130.4776,122.3885 77.0034,122.4974 -53.1952,204.395 -246.3752,180.1964 -124.105,-15.5459 -224.0096,-13.0763 -383.9125,-81.7234 -60.7216,-26.068 -82.5628,-173.2895 -83.6994,-234.1657 -2.2438,-120.1805 -41.005,-153.3669 -132.91795,-87.3639 -57.66064,41.4063 -113.48582,55.5496 -192.20338,-36.5824 -188.39805,-220.5033 -283.51955,-539.1429 -287.57214,-721.292 -2.30064,-103.405 90.16705,-256.0825 308.21214,-295.2458 111.46618,-20.0205 142.66412,-80.3052 243.92643,-83.4479 0.6042,-42.3644 26.9911,-52.2228 22.7373,-87.7943 -134.16175,123.4536 -314.75767,-165.6079 -320.54686,-275.5284 -3.48596,-66.1887 -17.85546,-109.2879 31.25163,-143.1698 41.18763,-28.4177 15.53378,-74.39517 84.2492,-95.1732 121.14566,-36.63178 197.57133,-208.53193 289.76123,-232.73322 147.9393,-38.83639 184.3631,-87.73966 298.8132,-78.12723 133.5825,11.21931 217.1896,79.53715 245.8839,92.86425 120.8404,56.1245 278.1371,341.165 311.4495,513.2564 z"
       id="path3756"
       inkscape:connector-curvature="0"
       sodipodi:nodetypes="scsssssssssssccsssssss" />
    <path
       style="fill:#d7624b;fill-opacity:0.88359794;stroke:none"
       d="m 1686.9548,895.82674 c 8.0812,122.52496 -0.3773,317.18786 -177.7869,317.18786 -177.4096,0 -422.2438,-182.5411 -422.2438,-303.04572 0,-120.50464 180.1844,-210.11173 355.5737,-216.17265 177.3038,-6.12707 236.5263,81.78713 244.457,202.03051 z"
       id="path3777"
       inkscape:connector-curvature="0"
       sodipodi:nodetypes="sssss" />
    <path
       style="fill:#ffd8ba;fill-opacity:0.82010582;stroke:none"
       d="m 1371.5909,399.97807 c 16.3962,22.79706 29.6326,-13.99655 53.7261,-0.69147 26.9906,14.90493 29.0228,67.74498 21.2634,94.14717 -5.0609,17.22041 -19.1012,11.37699 -25.2556,19.45556 -2.0786,2.72843 6.8465,26.47407 8.7294,33.56711 11.1711,42.08431 48.7634,103.07095 59.5681,117.22368 7.4454,9.75247 38.5406,29.83752 68.7728,46.35378 35.4437,19.36336 69.3229,36.28031 56.8614,62.64303 -37.3769,79.07206 -346.4018,58.05831 -384.7196,23.70949 -25.9384,-23.25175 20.0533,-37.58577 46.765,-69.80813 17.7317,-21.38988 42.4314,-43.06983 42.8132,-47.42069 0.6776,-7.72243 -8.7706,-22.55266 -14.9903,-26.52897 -10.3296,5.55487 -29.0677,9.6363 -41.8601,15.27301 -12.1895,5.37106 -31.5354,1.06166 -43.2741,-10.08688 -9.1997,-8.73726 -30.485,-31.08212 -46.0008,-52.54073 -15.0868,-20.86527 -29.3626,-49.412 -33.126,-75.87356 -3.4458,-24.22896 -20.0128,-33.7627 -25.9251,-61.47412 -10.619,-49.77202 -6.3516,-92.59889 12.6304,-118.03693 11.0269,-14.77733 26.3502,-23.35196 48.3525,-24.88473 21.6903,-1.51103 57.6075,16.59844 91.8907,25.57412 39.9125,10.4495 78.5077,14.26294 103.7786,49.39926 z"
       id="path3759"
       inkscape:connector-curvature="0"
       sodipodi:nodetypes="ssssssssssscsssssssss" />
    <path
       style="fill:#ffd8ba;fill-opacity:0.92592591;stroke:none"
       d="m 1169.6701,895.74179 c 3.0305,20.80722 -8.1832,45.48088 -22.2666,67.6463 -10.3314,16.26044 -1.4691,23.52793 35.0438,12.96879 36.4211,-10.53264 92.9403,33.32632 123.289,23.71692 28.3276,-8.96953 28.4268,-49.79574 38.4239,-94.8467 6.3178,-28.47034 8.8284,-75.61907 22.4413,-88.02112 23.1459,-21.08718 118.9286,13.406 117.866,42.1411 -2.841,76.82781 -98.3977,125.86347 -71.4879,170.15882 28.0234,46.128 63.628,-5.3892 117.5222,1.9044 34.0679,4.6105 104.3725,49.7785 174.5559,64.0928 42.1191,8.5904 95.5705,-54.6019 121.7482,-41.0272 36.0267,18.6821 4.1154,101.6631 0.3145,108.0148 -19.2995,32.2519 -53.8916,38.2315 -91.0499,36.0831 -29.5973,-1.7112 5.6102,51.1218 -34.0613,74.1225 -57.8608,33.5465 -129.3725,-44.8943 -158.5256,-5.3938 -40.4302,54.7802 -81.3581,41.3905 -156.1178,49.5037 -145.314,15.7701 -126.4954,-152.4627 -223.0769,-212.6835 -41.7773,-26.0491 -140.2852,15.8346 -156.2448,-23.489 -12.23834,-30.1546 -62.4227,-8.7161 -106.60814,-32.2759 -70.99461,-37.8547 -62.43381,-123.20554 -39.31017,-180.36444 24.90472,-61.56149 121.39263,-116.64624 189.61381,-73.99559 48.0831,30.06076 108.3595,36.02904 117.9305,101.74402 z"
       id="path3762"
       inkscape:connector-curvature="0"
       sodipodi:nodetypes="ssssssssssssssssssssss" />
    <path
       style="fill:#ba5132;fill-opacity:0.81481479;stroke:none"
       d="m 1102.8571,1274.2857 c 0,56.8064 19.3649,142.8571 -34.2856,142.8571 -53.6506,0 -134.28577,-71.7649 -134.28577,-128.5713 0,-56.8064 43.49234,-102.8572 97.14287,-102.8572 53.6505,0 71.4285,31.765 71.4285,88.5714 z"
       id="path3783"
       inkscape:connector-curvature="0"
       sodipodi:nodetypes="sssss"
       transform="translate(-37.142857,-40)" />
    <path
       style="fill:#ffd8ba;fill-opacity:0.82010582;stroke:none"
       d="m 1209.8528,1238.5735 c -6.7862,14.2974 -51.2034,-6.41 -59.7487,-14.9664 0.4369,14.8059 57.9468,29.2865 48.6323,42.0199 -10.8689,14.8584 -28.8681,3.606 -53.733,-3.773 19.0208,9.0915 13.1367,28.4716 -26.1948,18.8394 -10.267,-2.5144 -45.1399,1.4038 -58.1792,4.939 -21.7068,5.8852 -46.7444,22.9044 -73.41938,15.4176 -54.17439,-15.2048 -73.63668,-63.8636 -50.17287,-104.5388 32.04035,-55.5429 62.16106,-58.7031 131.89295,-77.5837 34.5619,-9.358 74.435,6.4617 101.4705,26.9771 20.8408,15.8146 53.5284,36.6236 49.3871,47.9995 -8.4115,23.1058 -81.1806,-28.3753 -79.6365,-24.5675 6.9615,17.1672 75.3003,57.4414 69.7016,69.2369 z"
       id="path3765"
       inkscape:connector-curvature="0"
       sodipodi:nodetypes="scscsssssssss" />
    <path
       style="fill:#ffd8ba;fill-opacity:0.82010582;stroke:none"
       d="m 1032.5626,2743.3945 c -74.73026,65.2786 -61.25239,150.1375 -80.91072,183.8785 -19.5719,33.5926 -39.35777,50.388 -79.19952,54.2643 -38.04671,3.7017 -39.50283,-32.4526 -14.29811,-72.5055 20.91071,-33.2293 7.04935,-110.4512 11.2973,-157.0637 4.19949,-46.0808 2.20967,-110.5046 35.91328,-135.7686 64.89382,-48.644 186.19077,-22.7379 194.96317,40.6832 4.8336,34.945 -56.1569,76.3715 -67.7654,86.5118 z"
       id="path3771"
       inkscape:connector-curvature="0"
       sodipodi:nodetypes="ssssssss" />
    <path
       style="fill:#c78b5c;fill-opacity:0.88359794;stroke:none"
       d="m 1452.8572,844.28571 c 0,54.4395 -34.2814,84.28572 -87.1429,84.28572 -52.8615,0 -77.8962,-43.27905 -75.7143,-77.14286 1.9957,-30.97476 31.0238,-46.38693 55.1449,-60.94354 14.149,-8.53869 22.8616,-23.34217 33.4265,-23.34217 17.6487,0 18.9359,13.48151 29.9488,18.24253 21.9731,9.49928 44.337,22.63629 44.337,58.90032 z"
       id="path3774"
       inkscape:connector-curvature="0"
       sodipodi:nodetypes="sssssss" />
    <path
       style="fill:#ba5132;fill-opacity:0.81481479;stroke:none"
       d="m 1612.9289,1386.0435 c 3.8124,36.5168 6.2077,83.2878 4.307,117.5117 -3.4083,61.3695 -22.5076,11.5755 -55.2664,6.7914 -18.2132,-2.6598 -22.8766,3.9793 -23.7855,-7.9718 -1.5217,-20.0084 -3.7439,-22.8627 -0.2884,-54.1922 3.6853,-33.4129 -2.8725,-69.8431 24.1246,-70.9506 26.7897,-1.0989 45.8579,-39.5671 50.9087,8.8115 z"
       id="path3786"
       inkscape:connector-curvature="0"
       sodipodi:nodetypes="sssssss" />
    <path
       style="fill:#ffdebd;fill-opacity:0.84126988;stroke:none"
       d="m 1397.8229,3112.7985 c -5.4509,26.8261 -8.6156,43.4171 -18.1788,54.4453 -21.3014,24.5645 -56.7521,18.2677 -95.2681,12.8999 -8.5273,-1.1884 -10.6193,-32.805 -17.7513,-33.4024 -13.0314,-1.0913 -2.6622,27.5211 -40.4362,22.8864 -23.9307,-2.9363 -18.5954,-34.1344 -12.2092,-79.9581 11.2429,-80.6726 29.0222,-71.8815 84.83,-64.1039 55.8077,7.7776 111.9752,23.4439 99.0136,87.2328 z"
       id="path3793"
       inkscape:connector-curvature="0"
       sodipodi:nodetypes="ssssssss" />
    <path
       style="fill:#bd482d;fill-opacity:0.7037037;stroke:none"
       d="m 1424.2857,850.7143 c 0,22.48588 -52.3647,55.00001 -76.4285,55.00001 -24.0638,0 -46.4286,-26.79984 -46.4286,-49.28572 0,-22.48588 48.0791,-69.28572 72.1429,-69.28572 24.0638,0 50.7142,41.08555 50.7142,63.57143 z"
       id="path3796"
       inkscape:connector-curvature="0"
       sodipodi:nodetypes="sssss" />
    <path
       style="fill:#ffd8ba;fill-opacity:0.82010582;stroke:none"
       d="m 1564.7813,1397.5348 c 7.5308,15.0405 2.1472,78.934 -13.8224,97.4989 -4.7159,5.4822 -24.5178,0.018 -43.0466,8.2986 -38.2146,17.0784 -83.6713,29.522 -131.4784,30.5684 -29.1623,0.6383 -75.8184,-8.262 -103.4362,-41.3421 -7.3517,-8.8056 -8.8575,-11.0876 0.1406,-11.9466 -21.2975,-15.0729 -46.5741,-32.5015 -38.1098,-41.9972 6.0933,-6.8359 15.4287,-2.8079 25.9554,-1.0912 -25.6221,-14.8642 -62.9013,-32.4829 -54.253,-39.2839 19.4856,-15.3234 62.8299,15.772 70.628,9.7217 7.9582,-6.1744 -49.0754,-19.3399 -49.4225,-28.3689 -0.486,-12.6433 25.1753,-13.5338 53.5409,-7.3652 19.2549,4.1874 48.5798,10.9004 76.3781,11.0214 19.3733,0.084 42.046,-4.8698 43.0593,-8.3881 1.9166,-6.6549 -26.7339,-2.0572 -48.8208,-5.2345 -16.0054,-2.3024 -29.7611,-10.0085 -35.2287,-22.0972 -4.2678,-9.4362 40.0964,-5.6164 64.5978,-9.1878 37.0537,-5.4011 72.8345,-6.0838 100.6087,4.8637 14.9002,5.8731 26.1976,35.4832 42.74,41.0264 26.7684,8.9698 33.6083,0.5988 39.9696,13.3036 z"
       id="path3768"
       inkscape:connector-curvature="0"
       sodipodi:nodetypes="ssssscscssssssssssss" />
  </g>
</svg>
