<?xml version="1.0" encoding="UTF-8" standalone="no"?>
<!-- Created with Inkscape (http://www.inkscape.org/) -->

<svg
   xmlns:dc="http://purl.org/dc/elements/1.1/"
   xmlns:cc="http://creativecommons.org/ns#"
   xmlns:rdf="http://www.w3.org/1999/02/22-rdf-syntax-ns#"
   xmlns:svg="http://www.w3.org/2000/svg"
   xmlns="http://www.w3.org/2000/svg"
   xmlns:sodipodi="http://sodipodi.sourceforge.net/DTD/sodipodi-0.dtd"
   xmlns:inkscape="http://www.inkscape.org/namespaces/inkscape"
   width="2500"
   height="3500"
   id="svg2"
   version="1.1"
   inkscape:version="0.48.4 r9939"
   sodipodi:docname="Madonna SVG 01-001.svg">
  <defs
     id="defs4" />
  <sodipodi:namedview
     id="base"
     pagecolor="#ffffff"
     bordercolor="#666666"
     borderopacity="1.0"
     inkscape:pageopacity="0.0"
     inkscape:pageshadow="2"
     inkscape:zoom="0.12374369"
     inkscape:cx="1949.6219"
     inkscape:cy="2423.9808"
     inkscape:document-units="px"
     inkscape:current-layer="layer2"
     showgrid="false"
     borderlayer="true"
     inkscape:window-width="1537"
     inkscape:window-height="878"
     inkscape:window-x="-8"
     inkscape:window-y="-8"
     inkscape:window-maximized="1" />
  <metadata
     id="metadata7">
    <rdf:RDF>
      <cc:Work
         rdf:about="">
        <dc:format>image/svg+xml</dc:format>
        <dc:type
           rdf:resource="http://purl.org/dc/dcmitype/StillImage" />
        <dc:title></dc:title>
      </cc:Work>
    </rdf:RDF>
  </metadata>
  <g
     inkscape:label="Base"
     inkscape:groupmode="layer"
     id="layer1"
     transform="translate(0,2447.6378)"
     sodipodi:insensitive="true">
    <rect
       style="fill:#fff8cd;fill-opacity:1;fill-rule:evenodd;stroke:none"
       id="rect3753"
       width="2500"
       height="3500"
       x="0"
       y="-2447.6377" />
  </g>
  <g
     inkscape:groupmode="layer"
     id="layer2"
     inkscape:label="Sketch">
    <path
       style="fill:#2c2a5c;fill-opacity:0.81481479;stroke:none"
       d="m 2008.9899,1272.0561 c 26.8256,138.5806 -209.0451,308.497 -163.9199,374.6924 66.0602,96.9053 129.326,251.6842 36.1108,401.3776 -71.4877,114.8014 186.9754,411.0502 221.8266,606.1825 13.5049,75.6142 2.0534,122.2228 -152.597,161.3892 -130.0436,32.9345 -211.9902,-7.2822 -130.4776,122.3885 77.0034,122.4974 -53.1952,204.395 -246.3752,180.1964 -124.105,-15.5459 -224.0096,-13.0763 -383.9125,-81.7234 -60.7216,-26.068 -82.5628,-173.2895 -83.6994,-234.1657 -2.2438,-120.1805 -41.005,-153.3669 -132.91795,-87.3639 -57.66064,41.4063 -113.48582,55.5496 -192.20338,-36.5824 -188.39805,-220.5033 -283.51955,-539.1429 -287.57214,-721.292 -2.30064,-103.405 78.87634,-239.65 299.64071,-258.1029 134.80857,-11.2682 170.54655,-192.1023 96.66374,-222.6708 -64.16176,-26.5464 -147.61482,-195.6079 -141.97544,-261.2427 5.67395,-66.0371 6.75504,-113.7564 35.29224,-149.2307 19.24611,-23.9246 73.71753,-68.83726 80.20859,-89.1123 70.25721,-219.45076 205.01143,-189.11946 289.76123,-232.73322 53.3677,-27.46397 41.2663,-18.09271 6.0751,-108.22913 -96.1049,-246.15645 -82.7093,-392.36319 119.4328,-422.23898 192.0313,-28.38148 389.9131,154.71623 470.0272,309.65529 50.5081,97.68169 8.4788,116.79803 60.2788,203.22496 68.4959,114.2833 167.0203,373.48988 200.3327,545.58128 z"
       id="path3756"
       inkscape:connector-curvature="0"
       sodipodi:nodetypes="sssssssssssssssssssssss" />
    <path
       style="fill:#d7624b;fill-opacity:0.88359794;stroke:none"
       d="m 1684.9345,982.69986 c 0,120.50464 1.643,230.31474 -175.7666,230.31474 -177.4096,0 -422.2438,-182.5411 -422.2438,-303.04572 0,-120.50464 176.1438,-185.86807 353.5534,-185.86807 177.4096,0 244.457,138.09441 244.457,258.59905 z"
       id="path3777"
       inkscape:connector-curvature="0"
       sodipodi:nodetypes="sssss" />
    <path
       style="fill:#7e4e30;fill-opacity:0.81481479;stroke:none"
       d="M 1737.1428,632.85714 C 1672.3446,820.46307 1439.3736,734.28569 1280,734.28569 c -159.3736,0 -188.5714,-95.72431 -171.4285,-199.99998 7.6765,-46.69441 -20.913,-56.19013 -31.9239,-97.76834 -17.0188,-64.26475 -11.8852,-153.58317 80.1507,-175.19022 20.1369,-4.72751 46.6372,-37.23843 73.2017,-48.47001 79.6414,-33.67266 223.5618,66.54574 324.1927,142.51668 84.8485,64.05606 220.5982,168.48345 182.9501,277.48332 z"
       id="path3780"
       inkscape:connector-curvature="0"
       sodipodi:nodetypes="ssssssss" />
    <path
       style="fill:#ffd8ba;fill-opacity:0.82010582;stroke:none"
       d="m 1371.5909,399.97807 c 16.3963,22.79701 29.6326,-13.99655 53.7261,-0.69147 26.9906,14.90493 29.0228,67.74498 21.2634,94.14717 -6.7702,23.03638 -29.6093,4.79912 -28.143,33.82977 2.5847,51.17569 41.8351,101.75711 63.6088,131.87089 38.3837,53.08611 156.301,64.69333 133.2103,113.5425 -37.3768,79.0721 -346.4019,58.05838 -384.7196,23.70949 -44.3734,-39.77722 110.3776,-85.54302 87.0528,-124.29989 -17.7232,-29.44927 -60.6288,26.97828 -99.1143,-7.70578 -32.753,-29.51767 -95.3613,-125.45708 -103.5367,-196.4544 -9.2038,-79.92805 1.1052,-138.75034 60.9829,-142.92166 46.9422,-3.27017 148.6917,9.65644 195.6693,74.97338 z"
       id="path3759"
       inkscape:connector-curvature="0"
       sodipodi:nodetypes="ssssssssssss" />
    <path
       style="fill:#ffd8ba;fill-opacity:0.82010582;stroke:none"
       d="m 1169.6701,895.74179 c 3.0305,20.80722 -8.1832,45.48088 -22.2666,67.6463 -10.3314,16.26044 -1.4691,23.52793 35.0438,12.96879 36.4211,-10.53264 92.9403,33.32632 123.289,23.71692 28.3276,-8.96953 28.4268,-49.79574 38.4239,-94.8467 6.3178,-28.47034 8.8284,-75.61907 22.4413,-88.02112 23.1459,-21.08718 118.9286,13.406 117.866,42.1411 -2.841,76.82781 -98.3977,125.86347 -71.4879,170.15882 28.0234,46.128 63.628,-5.3892 117.5222,1.9044 34.0679,4.6105 104.3725,49.7785 174.5559,64.0928 42.1191,8.5904 95.5705,-54.6019 121.7482,-41.0272 36.0267,18.6821 4.1154,101.6631 0.3145,108.0148 -19.2995,32.2519 -53.8916,38.2315 -91.0499,36.0831 -29.5973,-1.7112 5.6102,51.1218 -34.0613,74.1225 -57.8608,33.5465 -129.3725,-44.8943 -158.5256,-5.3938 -40.4302,54.7802 -99.9295,101.3905 -174.6892,109.5037 -145.314,15.7701 -323.6383,-149.6056 -344.5055,-184.1121 -25.47669,-42.1288 -0.2852,-72.7368 -16.2448,-112.0604 -12.23834,-30.1546 -62.4227,-8.7161 -106.60814,-32.2759 -70.99461,-37.8547 -62.43381,-123.20554 -39.31017,-180.36444 24.90472,-61.56149 121.39263,-116.64624 189.61381,-73.99559 48.0831,30.06076 108.3595,36.02904 117.9305,101.74402 z"
       id="path3762"
       inkscape:connector-curvature="0"
       sodipodi:nodetypes="ssssssssssssssssssssss" />
    <path
       style="fill:#ba5132;fill-opacity:0.81481479;stroke:none"
       d="m 1102.8571,1274.2857 c 0,56.8064 19.3649,142.8571 -34.2856,142.8571 -53.6506,0 -134.28577,-71.7649 -134.28577,-128.5713 0,-56.8064 43.49234,-102.8572 97.14287,-102.8572 53.6505,0 71.4285,31.765 71.4285,88.5714 z"
       id="path3783"
       inkscape:connector-curvature="0"
       sodipodi:nodetypes="sssss"
       transform="translate(-37.142857,-40)" />
    <path
       style="fill:#ffd8ba;fill-opacity:0.82010582;stroke:none"
       d="m 1223.8216,1257.2762 c -12.5499,45.2498 -134.3771,62.9952 -204.2867,44.784 -69.90966,-18.2113 -109.48737,-66.1687 -97.65004,-111.6099 11.8373,-45.4414 77.31333,-52.6423 147.04524,-71.5228 88.0623,-23.8437 168.8709,87.9448 154.8915,138.3487 z"
       id="path3765"
       inkscape:connector-curvature="0"
       sodipodi:nodetypes="sssss" />
    <path
       style="fill:#ffd8ba;fill-opacity:0.82010582;stroke:none"
       d="m 1572.1272,1373.8618 c 0,46.0548 -64.6398,156.9685 -212.5613,163.5088 -85.7046,3.7895 -165.144,-47.1452 -165.144,-93.2 0,-46.0547 92.4364,-91.5648 178.2246,-91.5648 85.7882,0 199.4807,-24.7987 199.4807,21.256 z"
       id="path3768"
       inkscape:connector-curvature="0"
       sodipodi:nodetypes="sssss" />
    <path
       style="fill:#ffd8ba;fill-opacity:0.82010582;stroke:none"
       d="m 1032.5626,2743.3945 c -74.73028,65.2786 -61.25239,150.1375 -80.91072,183.8785 -19.5719,33.5926 -39.35777,50.388 -79.19952,54.2643 -38.04671,3.7017 -39.50283,-32.4526 -14.29811,-72.5055 20.91071,-33.2293 8.47792,-107.5941 12.72587,-154.2066 16.41009,-180.0668 207.86568,-51.7728 161.68248,-11.4307 z"
       id="path3771"
       inkscape:connector-curvature="0"
       sodipodi:nodetypes="ssssss" />
    <path
       style="fill:#c78b5c;fill-opacity:0.88359794;stroke:none"
       d="m 1452.8572,844.28571 c 0,54.4395 -34.2814,84.28572 -87.1429,84.28572 -52.8615,0 -77.8962,-43.27905 -75.7143,-77.14286 1.9957,-30.97476 31.0238,-46.38693 55.1449,-60.94354 14.149,-8.53869 22.8616,-23.34217 33.4265,-23.34217 17.6487,0 18.9359,13.48151 29.9488,18.24253 21.9731,9.49928 44.337,22.63629 44.337,58.90032 z"
       id="path3774"
       inkscape:connector-curvature="0"
       sodipodi:nodetypes="sssssss" />
    <path
       style="fill:#ba5132;fill-opacity:0.81481479;stroke:none"
       d="m 1620,1438.5714 c 0,59.1734 8.6052,85.7352 -45.7143,95.7143 -46.6571,8.5714 -88.5714,-27.9695 -82.8571,-104.2858 4.4183,-59.0081 13.3429,-104.2856 68.5714,-104.2856 55.2285,0 60,42.2552 60,112.8571 z"
       id="path3786"
       inkscape:connector-curvature="0"
       sodipodi:nodetypes="sssss" />
    <path
       style="fill:#ffdebd;fill-opacity:0.84126988;stroke:none"
       d="m 1397.8229,3112.7985 c -5.4509,26.8261 -8.6156,43.4171 -18.1788,54.4453 -21.3014,24.5645 -56.7521,18.2677 -95.2681,12.8999 -8.5273,-1.1884 -10.6193,-32.805 -17.7513,-33.4024 -13.0314,-1.0913 -2.6622,27.5211 -40.4362,22.8864 -23.9307,-2.9363 -18.5954,-34.1344 -12.2092,-79.9581 11.2429,-80.6726 29.0222,-71.8815 84.83,-64.1039 55.8077,7.7776 111.9752,23.4439 99.0136,87.2328 z"
       id="path3793"
       inkscape:connector-curvature="0"
       sodipodi:nodetypes="ssssssss" />
    <path
       style="fill:#bd482d;fill-opacity:0.7037037;stroke:none"
       d="m 1424.2857,850.7143 c 0,22.48588 -52.3647,55.00001 -76.4285,55.00001 -24.0638,0 -46.4286,-26.79984 -46.4286,-49.28572 0,-22.48588 48.0791,-69.28572 72.1429,-69.28572 24.0638,0 50.7142,41.08555 50.7142,63.57143 z"
       id="path3796"
       inkscape:connector-curvature="0"
       sodipodi:nodetypes="sssss" />
  </g>
</svg>
